%TF.GenerationSoftware,KiCad,Pcbnew,8.0.3-8.0.3-0~ubuntu24.04.1*%
%TF.CreationDate,2024-07-18T18:47:25-04:00*%
%TF.ProjectId,Power_Supply_Breakout,506f7765-725f-4537-9570-706c795f4272,rev?*%
%TF.SameCoordinates,Original*%
%TF.FileFunction,Soldermask,Top*%
%TF.FilePolarity,Negative*%
%FSLAX46Y46*%
G04 Gerber Fmt 4.6, Leading zero omitted, Abs format (unit mm)*
G04 Created by KiCad (PCBNEW 8.0.3-8.0.3-0~ubuntu24.04.1) date 2024-07-18 18:47:25*
%MOMM*%
%LPD*%
G01*
G04 APERTURE LIST*
G04 Aperture macros list*
%AMRoundRect*
0 Rectangle with rounded corners*
0 $1 Rounding radius*
0 $2 $3 $4 $5 $6 $7 $8 $9 X,Y pos of 4 corners*
0 Add a 4 corners polygon primitive as box body*
4,1,4,$2,$3,$4,$5,$6,$7,$8,$9,$2,$3,0*
0 Add four circle primitives for the rounded corners*
1,1,$1+$1,$2,$3*
1,1,$1+$1,$4,$5*
1,1,$1+$1,$6,$7*
1,1,$1+$1,$8,$9*
0 Add four rect primitives between the rounded corners*
20,1,$1+$1,$2,$3,$4,$5,0*
20,1,$1+$1,$4,$5,$6,$7,0*
20,1,$1+$1,$6,$7,$8,$9,0*
20,1,$1+$1,$8,$9,$2,$3,0*%
G04 Aperture macros list end*
%ADD10C,0.000000*%
%ADD11RoundRect,0.250000X-0.450000X0.350000X-0.450000X-0.350000X0.450000X-0.350000X0.450000X0.350000X0*%
%ADD12RoundRect,0.250000X-0.475000X0.337500X-0.475000X-0.337500X0.475000X-0.337500X0.475000X0.337500X0*%
%ADD13RoundRect,0.250000X0.475000X-0.337500X0.475000X0.337500X-0.475000X0.337500X-0.475000X-0.337500X0*%
%ADD14RoundRect,0.250000X-0.350000X-0.450000X0.350000X-0.450000X0.350000X0.450000X-0.350000X0.450000X0*%
%ADD15RoundRect,0.243750X-0.456250X0.243750X-0.456250X-0.243750X0.456250X-0.243750X0.456250X0.243750X0*%
%ADD16RoundRect,0.250000X-0.337500X-0.475000X0.337500X-0.475000X0.337500X0.475000X-0.337500X0.475000X0*%
%ADD17RoundRect,0.250000X0.337500X0.475000X-0.337500X0.475000X-0.337500X-0.475000X0.337500X-0.475000X0*%
%ADD18RoundRect,0.102000X2.850000X0.800000X-2.850000X0.800000X-2.850000X-0.800000X2.850000X-0.800000X0*%
%ADD19C,2.200000*%
%ADD20O,2.004000X3.804000*%
%ADD21O,3.804000X2.004000*%
%ADD22RoundRect,0.250000X0.450000X-0.350000X0.450000X0.350000X-0.450000X0.350000X-0.450000X-0.350000X0*%
%ADD23RoundRect,0.243750X0.456250X-0.243750X0.456250X0.243750X-0.456250X0.243750X-0.456250X-0.243750X0*%
%ADD24RoundRect,0.243750X0.243750X0.456250X-0.243750X0.456250X-0.243750X-0.456250X0.243750X-0.456250X0*%
%ADD25R,0.330200X1.219200*%
%ADD26R,1.219200X0.330200*%
%ADD27R,1.422400X1.422400*%
%ADD28C,1.422400*%
%ADD29R,0.431800X1.206500*%
%ADD30R,0.609600X1.625600*%
%ADD31R,1.625600X0.558800*%
%ADD32C,2.159000*%
%ADD33R,1.700000X1.700000*%
%ADD34O,1.700000X1.700000*%
%ADD35RoundRect,0.250001X-0.624999X0.462499X-0.624999X-0.462499X0.624999X-0.462499X0.624999X0.462499X0*%
%ADD36RoundRect,0.250000X-0.412500X-0.650000X0.412500X-0.650000X0.412500X0.650000X-0.412500X0.650000X0*%
%ADD37RoundRect,0.250000X0.350000X0.450000X-0.350000X0.450000X-0.350000X-0.450000X0.350000X-0.450000X0*%
%ADD38C,1.100000*%
%ADD39RoundRect,0.102000X-0.825000X-0.825000X0.825000X-0.825000X0.825000X0.825000X-0.825000X0.825000X0*%
%ADD40C,1.854000*%
%ADD41R,0.812800X0.228600*%
%ADD42RoundRect,0.250000X0.650000X-0.412500X0.650000X0.412500X-0.650000X0.412500X-0.650000X-0.412500X0*%
G04 APERTURE END LIST*
D10*
%TO.C,U1*%
G36*
X97318901Y-88464200D02*
G01*
X97010901Y-88464200D01*
X97010901Y-85086000D01*
X97318901Y-85086000D01*
X97318901Y-88464200D01*
G37*
G36*
X98106301Y-88464200D02*
G01*
X97718901Y-88464200D01*
X97718901Y-85086000D01*
X98106301Y-85086000D01*
X98106301Y-88464200D01*
G37*
G36*
X98893701Y-88464200D02*
G01*
X98506301Y-88464200D01*
X98506301Y-85086000D01*
X98893701Y-85086000D01*
X98893701Y-88464200D01*
G37*
G36*
X99681101Y-88464200D02*
G01*
X99293701Y-88464200D01*
X99293701Y-85086000D01*
X99681101Y-85086000D01*
X99681101Y-88464200D01*
G37*
G36*
X100389101Y-85394000D02*
G01*
X97010901Y-85394000D01*
X97010901Y-85086000D01*
X100389101Y-85086000D01*
X100389101Y-85394000D01*
G37*
G36*
X100389101Y-88464200D02*
G01*
X100081101Y-88464200D01*
X100081101Y-85086000D01*
X100389101Y-85086000D01*
X100389101Y-88464200D01*
G37*
G36*
X100389101Y-86181400D02*
G01*
X97010901Y-86181400D01*
X97010901Y-85794000D01*
X100389101Y-85794000D01*
X100389101Y-86181400D01*
G37*
G36*
X100389101Y-86968800D02*
G01*
X97010901Y-86968800D01*
X97010901Y-86581400D01*
X100389101Y-86581400D01*
X100389101Y-86968800D01*
G37*
G36*
X100389101Y-87756200D02*
G01*
X97010901Y-87756200D01*
X97010901Y-87368800D01*
X100389101Y-87368800D01*
X100389101Y-87756200D01*
G37*
G36*
X100389101Y-88464200D02*
G01*
X97010901Y-88464200D01*
X97010901Y-88156200D01*
X100389101Y-88156200D01*
X100389101Y-88464200D01*
G37*
%TD*%
D11*
%TO.C,R10*%
X97000000Y-92300000D03*
X97000000Y-94300000D03*
%TD*%
D12*
%TO.C,C4*%
X91050000Y-71812500D03*
X91050000Y-73887500D03*
%TD*%
D13*
%TO.C,C9*%
X105250000Y-77575000D03*
X105250000Y-75500000D03*
%TD*%
D14*
%TO.C,R4*%
X86300000Y-68100000D03*
X88300000Y-68100000D03*
%TD*%
D11*
%TO.C,R7*%
X78250000Y-77400000D03*
X78250000Y-79400000D03*
%TD*%
%TO.C,R1*%
X104400000Y-63800000D03*
X104400000Y-65800000D03*
%TD*%
D15*
%TO.C,D1*%
X102050000Y-64000000D03*
X102050000Y-65875000D03*
%TD*%
D16*
%TO.C,C5*%
X102112500Y-70050000D03*
X104187500Y-70050000D03*
%TD*%
D13*
%TO.C,C7*%
X114200000Y-77475000D03*
X114200000Y-75400000D03*
%TD*%
%TO.C,C3*%
X83800000Y-70987500D03*
X83800000Y-68912500D03*
%TD*%
D17*
%TO.C,C11*%
X116587500Y-79550000D03*
X114512500Y-79550000D03*
%TD*%
D18*
%TO.C,L1*%
X97600000Y-72862500D03*
X97600000Y-68162500D03*
%TD*%
D19*
%TO.C,J1*%
X59048000Y-86821550D03*
D20*
X69448000Y-86821550D03*
X63448000Y-86821550D03*
D21*
X66348000Y-91621550D03*
%TD*%
D13*
%TO.C,C8*%
X116300000Y-77475000D03*
X116300000Y-75400000D03*
%TD*%
D22*
%TO.C,R6*%
X111100000Y-68300000D03*
X111100000Y-66300000D03*
%TD*%
D23*
%TO.C,D4*%
X87900000Y-89600000D03*
X87900000Y-87725000D03*
%TD*%
D11*
%TO.C,R13*%
X82005000Y-83842500D03*
X82005000Y-85842500D03*
%TD*%
D24*
%TO.C,D3*%
X87737500Y-74500000D03*
X85862500Y-74500000D03*
%TD*%
D25*
%TO.C,U1*%
X100000001Y-84400200D03*
X99350000Y-84400200D03*
X98700001Y-84400200D03*
X98050002Y-84400200D03*
X97400001Y-84400200D03*
D26*
X96325101Y-85475100D03*
X96325101Y-86125101D03*
X96325101Y-86775100D03*
X96325101Y-87425099D03*
X96325101Y-88075100D03*
D25*
X97400001Y-89150000D03*
X98050002Y-89150000D03*
X98700001Y-89150000D03*
X99350000Y-89150000D03*
X100000001Y-89150000D03*
D26*
X101074901Y-88075100D03*
X101074901Y-87425099D03*
X101074901Y-86775100D03*
X101074901Y-86125101D03*
X101074901Y-85475100D03*
%TD*%
D11*
%TO.C,R14*%
X76395000Y-83905000D03*
X76395000Y-85905000D03*
%TD*%
D27*
%TO.C,C1*%
X78350000Y-62650000D03*
D28*
X78350000Y-57646200D03*
%TD*%
D23*
%TO.C,D5*%
X81900000Y-89600000D03*
X81900000Y-87725000D03*
%TD*%
D29*
%TO.C,U4*%
X107449987Y-90075100D03*
X106800001Y-90075100D03*
X106150015Y-90075100D03*
X105500029Y-90075100D03*
X105500029Y-92932600D03*
X106150015Y-92932600D03*
X106800001Y-92932600D03*
X107449987Y-92932600D03*
%TD*%
D11*
%TO.C,R5*%
X111100000Y-61450000D03*
X111100000Y-63450000D03*
%TD*%
D12*
%TO.C,C13*%
X103200001Y-90387600D03*
X103200001Y-92462600D03*
%TD*%
D30*
%TO.C,U2*%
X109999998Y-77137500D03*
X111900000Y-77137500D03*
X110949999Y-75137250D03*
%TD*%
D16*
%TO.C,C6*%
X113412500Y-86350000D03*
X115487500Y-86350000D03*
%TD*%
D23*
%TO.C,D6*%
X76450000Y-89650000D03*
X76450000Y-87775000D03*
%TD*%
D31*
%TO.C,U3*%
X113600000Y-81900000D03*
X113600000Y-82850001D03*
X113600000Y-83800002D03*
X116292400Y-83800002D03*
X116292400Y-82850001D03*
X116292400Y-81900000D03*
%TD*%
D16*
%TO.C,C12*%
X104025000Y-84650000D03*
X106100000Y-84650000D03*
%TD*%
D14*
%TO.C,R8*%
X80900000Y-74550000D03*
X82900000Y-74550000D03*
%TD*%
D32*
%TO.C,SW1*%
X68600000Y-63399999D03*
X68600000Y-68150000D03*
X68600000Y-72900000D03*
%TD*%
D33*
%TO.C,J2*%
X116450000Y-68800000D03*
D34*
X116450000Y-66260000D03*
X116450000Y-63720000D03*
X116450000Y-61180000D03*
%TD*%
D35*
%TO.C,F1*%
X78300000Y-68312500D03*
X78300000Y-71287500D03*
%TD*%
D36*
%TO.C,C16*%
X113537500Y-88650000D03*
X116662500Y-88650000D03*
%TD*%
D37*
%TO.C,R2*%
X93200000Y-67600000D03*
X91200000Y-67600000D03*
%TD*%
D33*
%TO.C,J4*%
X76610000Y-98500000D03*
D34*
X79150000Y-98500000D03*
X81690000Y-98500000D03*
X84230000Y-98500000D03*
X86770000Y-98500000D03*
%TD*%
D11*
%TO.C,R11*%
X87900000Y-83862500D03*
X87900000Y-85862500D03*
%TD*%
D13*
%TO.C,C10*%
X107650000Y-77625000D03*
X107650000Y-75550000D03*
%TD*%
D14*
%TO.C,R12*%
X105575008Y-87403850D03*
X107575008Y-87403850D03*
%TD*%
D38*
%TO.C,J3*%
X112410000Y-99300000D03*
X114950000Y-99300000D03*
D39*
X112410000Y-96760000D03*
D40*
X114950000Y-96760000D03*
%TD*%
D36*
%TO.C,C14*%
X102187500Y-72600000D03*
X105312500Y-72600000D03*
%TD*%
D16*
%TO.C,C2*%
X102112500Y-67950000D03*
X104187500Y-67950000D03*
%TD*%
D41*
%TO.C,U5*%
X86548200Y-70399622D03*
X86548200Y-70899748D03*
X86548200Y-71399874D03*
X86548200Y-71900000D03*
X88250000Y-71900000D03*
X88250000Y-71399874D03*
X88250000Y-70899748D03*
X88250000Y-70399622D03*
%TD*%
D37*
%TO.C,R3*%
X93200000Y-69700000D03*
X91200000Y-69700000D03*
%TD*%
D23*
%TO.C,D2*%
X78250000Y-75450000D03*
X78250000Y-73575000D03*
%TD*%
D11*
%TO.C,R9*%
X93550001Y-85875100D03*
X93550001Y-87875100D03*
%TD*%
D42*
%TO.C,C15*%
X81150000Y-71162500D03*
X81150000Y-68037500D03*
%TD*%
M02*
