%TF.GenerationSoftware,KiCad,Pcbnew,8.0.3-8.0.3-0~ubuntu24.04.1*%
%TF.CreationDate,2024-07-18T18:47:24-04:00*%
%TF.ProjectId,Power_Supply_Breakout,506f7765-725f-4537-9570-706c795f4272,rev?*%
%TF.SameCoordinates,Original*%
%TF.FileFunction,Copper,L4,Bot*%
%TF.FilePolarity,Positive*%
%FSLAX46Y46*%
G04 Gerber Fmt 4.6, Leading zero omitted, Abs format (unit mm)*
G04 Created by KiCad (PCBNEW 8.0.3-8.0.3-0~ubuntu24.04.1) date 2024-07-18 18:47:24*
%MOMM*%
%LPD*%
G01*
G04 APERTURE LIST*
%TA.AperFunction,ComponentPad*%
%ADD10O,1.800000X3.600000*%
%TD*%
%TA.AperFunction,ComponentPad*%
%ADD11O,3.600000X1.800000*%
%TD*%
%TA.AperFunction,ComponentPad*%
%ADD12R,1.422400X1.422400*%
%TD*%
%TA.AperFunction,ComponentPad*%
%ADD13C,1.422400*%
%TD*%
%TA.AperFunction,ComponentPad*%
%ADD14C,2.159000*%
%TD*%
%TA.AperFunction,ComponentPad*%
%ADD15R,1.700000X1.700000*%
%TD*%
%TA.AperFunction,ComponentPad*%
%ADD16O,1.700000X1.700000*%
%TD*%
%TA.AperFunction,ComponentPad*%
%ADD17R,1.650000X1.650000*%
%TD*%
%TA.AperFunction,ComponentPad*%
%ADD18C,1.650000*%
%TD*%
%TA.AperFunction,ViaPad*%
%ADD19C,0.600000*%
%TD*%
%TA.AperFunction,Conductor*%
%ADD20C,0.200000*%
%TD*%
%TA.AperFunction,Conductor*%
%ADD21C,0.500000*%
%TD*%
G04 APERTURE END LIST*
D10*
%TO.P,J1,1*%
%TO.N,Net-(SW1-B)*%
X69448000Y-86821550D03*
%TO.P,J1,2*%
%TO.N,GND*%
X63448000Y-86821550D03*
D11*
%TO.P,J1,3*%
X66348000Y-91621550D03*
%TD*%
D12*
%TO.P,C1,1*%
%TO.N,/24V_INPUT*%
X78350000Y-62650000D03*
D13*
%TO.P,C1,2*%
%TO.N,GND*%
X78350000Y-57646200D03*
%TD*%
D14*
%TO.P,SW1,1,A*%
%TO.N,/24V_INPUT*%
X68600000Y-63399999D03*
%TO.P,SW1,2,B*%
%TO.N,Net-(SW1-B)*%
X68600000Y-68150000D03*
%TO.P,SW1,3,C*%
%TO.N,unconnected-(SW1-C-Pad3)*%
X68600000Y-72900000D03*
%TD*%
D15*
%TO.P,J2,1,Pin_1*%
%TO.N,GND*%
X116450000Y-68800000D03*
D16*
%TO.P,J2,2,Pin_2*%
%TO.N,/SCL*%
X116450000Y-66260000D03*
%TO.P,J2,3,Pin_3*%
%TO.N,/SDA*%
X116450000Y-63720000D03*
%TO.P,J2,4,Pin_4*%
%TO.N,+3V3*%
X116450000Y-61180000D03*
%TD*%
D15*
%TO.P,J4,1,Pin_1*%
%TO.N,+3V3*%
X76610000Y-98500000D03*
D16*
%TO.P,J4,2,Pin_2*%
%TO.N,ALERT*%
X79150000Y-98500000D03*
%TO.P,J4,3,Pin_3*%
%TO.N,IFLAG*%
X81690000Y-98500000D03*
%TO.P,J4,4,Pin_4*%
%TO.N,TFLAG*%
X84230000Y-98500000D03*
%TO.P,J4,5,Pin_5*%
%TO.N,GND*%
X86770000Y-98500000D03*
%TD*%
D17*
%TO.P,J3,1,Pin_1*%
%TO.N,/OUTPUT*%
X112410000Y-96760000D03*
D18*
%TO.P,J3,2,Pin_2*%
%TO.N,GND*%
X114950000Y-96760000D03*
%TD*%
D19*
%TO.N,GND*%
X99950000Y-94650000D03*
X98300001Y-85575100D03*
X106050000Y-66000000D03*
X105850000Y-70300000D03*
X101050000Y-80500000D03*
X106850000Y-72650000D03*
X79850000Y-79600000D03*
X105750000Y-69250000D03*
X99850001Y-85575100D03*
X93950000Y-71400000D03*
X97500001Y-87975100D03*
X85000000Y-67300000D03*
X105700000Y-67000000D03*
X88700000Y-66350000D03*
X99100001Y-87175100D03*
X99900001Y-87175100D03*
X97500001Y-85625100D03*
X97550001Y-86375100D03*
X86750000Y-73200000D03*
X102350000Y-94300000D03*
X88500000Y-73200000D03*
X118100000Y-86500000D03*
X107600000Y-84700000D03*
X106750000Y-73750000D03*
X99100001Y-86375100D03*
X92850000Y-80500000D03*
X95800000Y-80350000D03*
X106700000Y-71350000D03*
X98350001Y-87975100D03*
X92800000Y-71350000D03*
X99100001Y-87975100D03*
X98300001Y-87175100D03*
X85200000Y-72900000D03*
X105800000Y-68000000D03*
X99100001Y-85575100D03*
X107650000Y-83150000D03*
X99900001Y-86375100D03*
X76750000Y-79250000D03*
X78350000Y-80800000D03*
X94900000Y-94350000D03*
X80050000Y-66400000D03*
X116950000Y-85150000D03*
X98300001Y-86375100D03*
X97500001Y-87175100D03*
X83450000Y-67300000D03*
X92800000Y-89500000D03*
X103800000Y-94400000D03*
X82400000Y-66250000D03*
X99900001Y-87975100D03*
X118150000Y-88750000D03*
%TO.N,+3V3*%
X85800000Y-93850000D03*
X87850000Y-82300000D03*
X102187500Y-76237500D03*
%TO.N,Net-(D3-K)*%
X89550000Y-75100000D03*
X89705215Y-70916414D03*
%TO.N,TFLAG*%
X99850000Y-91550000D03*
X89750000Y-89800000D03*
%TO.N,IFLAG*%
X98750000Y-91650000D03*
X83050000Y-91250000D03*
%TO.N,/SDA*%
X118400000Y-82300000D03*
X118400000Y-83850000D03*
X106150000Y-94500000D03*
%TO.N,/SCL*%
X119600000Y-66250000D03*
X105450000Y-95150000D03*
X117600000Y-82900000D03*
%TO.N,Net-(U1-'+IN)*%
X94950001Y-87675100D03*
X111500000Y-81900000D03*
%TO.N,ALERT*%
X108750000Y-93000000D03*
X79700000Y-93000000D03*
%TD*%
D20*
%TO.N,+3V3*%
X76610000Y-94260000D02*
X76610000Y-98500000D01*
X85800000Y-93850000D02*
X77000000Y-93850000D01*
D21*
X87850000Y-77650000D02*
X89262500Y-76237500D01*
X89262500Y-76237500D02*
X102187500Y-76237500D01*
X87850000Y-82300000D02*
X87850000Y-77650000D01*
D20*
X77000000Y-93850000D02*
X76600000Y-94250000D01*
X76600000Y-94250000D02*
X76610000Y-94260000D01*
%TO.N,Net-(D3-K)*%
X89550000Y-75100000D02*
X89500000Y-75050000D01*
X89500000Y-71121629D02*
X89705215Y-70916414D01*
X89500000Y-75050000D02*
X89500000Y-71121629D01*
%TO.N,TFLAG*%
X99850000Y-91550000D02*
X99350000Y-91050000D01*
X91000000Y-91050000D02*
X89750000Y-89800000D01*
X99350000Y-91050000D02*
X91000000Y-91050000D01*
%TO.N,IFLAG*%
X83450000Y-91650000D02*
X83050000Y-91250000D01*
X98750000Y-91650000D02*
X83450000Y-91650000D01*
%TO.N,/SDA*%
X106150000Y-94500000D02*
X117684314Y-94500000D01*
X117470000Y-63720000D02*
X116450000Y-63720000D01*
X118400000Y-64650000D02*
X117470000Y-63720000D01*
X118800000Y-84250000D02*
X118400000Y-83850000D01*
X117684314Y-94500000D02*
X118800000Y-93384314D01*
X118400000Y-82300000D02*
X118400000Y-64650000D01*
X118800000Y-93384314D02*
X118800000Y-84250000D01*
%TO.N,/SCL*%
X105450000Y-95150000D02*
X118750000Y-95150000D01*
X118750000Y-95150000D02*
X119650000Y-94250000D01*
X119200000Y-82900000D02*
X117600000Y-82900000D01*
X119650000Y-83350000D02*
X119200000Y-82900000D01*
X119650000Y-66300000D02*
X119600000Y-66250000D01*
X119650000Y-82450000D02*
X119650000Y-66300000D01*
X119200000Y-82900000D02*
X119650000Y-82450000D01*
X119650000Y-94250000D02*
X119650000Y-83350000D01*
%TO.N,Net-(U1-'+IN)*%
X94900000Y-82850000D02*
X94900000Y-87625099D01*
X95850000Y-81900000D02*
X94900000Y-82850000D01*
X111500000Y-81900000D02*
X95850000Y-81900000D01*
X94900000Y-87625099D02*
X94950001Y-87675100D01*
%TO.N,ALERT*%
X108750000Y-93000000D02*
X79700000Y-93000000D01*
%TD*%
%TA.AperFunction,Conductor*%
%TO.N,GND*%
G36*
X121235148Y-54864852D02*
G01*
X121249500Y-54899500D01*
X121249500Y-100800500D01*
X121235148Y-100835148D01*
X121200500Y-100849500D01*
X55199500Y-100849500D01*
X55164852Y-100835148D01*
X55150500Y-100800500D01*
X55150500Y-97630252D01*
X75559500Y-97630252D01*
X75559500Y-99369748D01*
X75571133Y-99428231D01*
X75588882Y-99454795D01*
X75615447Y-99494552D01*
X75642012Y-99512301D01*
X75681769Y-99538867D01*
X75740252Y-99550500D01*
X75740255Y-99550500D01*
X77479745Y-99550500D01*
X77479748Y-99550500D01*
X77538231Y-99538867D01*
X77604552Y-99494552D01*
X77648867Y-99428231D01*
X77660500Y-99369748D01*
X77660500Y-98500000D01*
X78094417Y-98500000D01*
X78114700Y-98705934D01*
X78174768Y-98903954D01*
X78272315Y-99086450D01*
X78403590Y-99246410D01*
X78563550Y-99377685D01*
X78746046Y-99475232D01*
X78944066Y-99535300D01*
X79150000Y-99555583D01*
X79355934Y-99535300D01*
X79553954Y-99475232D01*
X79736450Y-99377685D01*
X79896410Y-99246410D01*
X80027685Y-99086450D01*
X80125232Y-98903954D01*
X80185300Y-98705934D01*
X80205583Y-98500000D01*
X80634417Y-98500000D01*
X80654700Y-98705934D01*
X80714768Y-98903954D01*
X80812315Y-99086450D01*
X80943590Y-99246410D01*
X81103550Y-99377685D01*
X81286046Y-99475232D01*
X81484066Y-99535300D01*
X81690000Y-99555583D01*
X81895934Y-99535300D01*
X82093954Y-99475232D01*
X82276450Y-99377685D01*
X82436410Y-99246410D01*
X82567685Y-99086450D01*
X82665232Y-98903954D01*
X82725300Y-98705934D01*
X82745583Y-98500000D01*
X83174417Y-98500000D01*
X83194700Y-98705934D01*
X83254768Y-98903954D01*
X83352315Y-99086450D01*
X83483590Y-99246410D01*
X83643550Y-99377685D01*
X83826046Y-99475232D01*
X84024066Y-99535300D01*
X84230000Y-99555583D01*
X84435934Y-99535300D01*
X84633954Y-99475232D01*
X84816450Y-99377685D01*
X84976410Y-99246410D01*
X85107685Y-99086450D01*
X85205232Y-98903954D01*
X85265300Y-98705934D01*
X85285583Y-98500000D01*
X85265300Y-98294066D01*
X85251933Y-98249999D01*
X85439363Y-98249999D01*
X85439364Y-98250000D01*
X86336988Y-98250000D01*
X86304075Y-98307007D01*
X86270000Y-98434174D01*
X86270000Y-98565826D01*
X86304075Y-98692993D01*
X86336988Y-98750000D01*
X85439363Y-98750000D01*
X85496566Y-98963483D01*
X85496568Y-98963488D01*
X85596398Y-99177577D01*
X85596405Y-99177589D01*
X85731885Y-99371072D01*
X85731891Y-99371079D01*
X85898920Y-99538108D01*
X85898927Y-99538114D01*
X86092410Y-99673594D01*
X86092422Y-99673601D01*
X86306511Y-99773431D01*
X86306516Y-99773433D01*
X86520000Y-99830634D01*
X86520000Y-98933012D01*
X86577007Y-98965925D01*
X86704174Y-99000000D01*
X86835826Y-99000000D01*
X86962993Y-98965925D01*
X87020000Y-98933012D01*
X87020000Y-99830634D01*
X87233483Y-99773433D01*
X87233488Y-99773431D01*
X87447577Y-99673601D01*
X87447589Y-99673594D01*
X87641072Y-99538114D01*
X87641079Y-99538108D01*
X87808108Y-99371079D01*
X87808114Y-99371072D01*
X87913090Y-99221152D01*
X111609500Y-99221152D01*
X111609500Y-99378847D01*
X111640260Y-99533487D01*
X111640263Y-99533498D01*
X111700604Y-99679175D01*
X111700606Y-99679179D01*
X111788211Y-99810289D01*
X111899711Y-99921789D01*
X112030821Y-100009394D01*
X112176503Y-100069737D01*
X112176509Y-100069738D01*
X112176512Y-100069739D01*
X112331152Y-100100499D01*
X112331158Y-100100500D01*
X112488842Y-100100500D01*
X112643497Y-100069737D01*
X112789179Y-100009394D01*
X112920289Y-99921789D01*
X113031789Y-99810289D01*
X113119394Y-99679179D01*
X113179737Y-99533497D01*
X113210500Y-99378842D01*
X113210500Y-99221158D01*
X113210499Y-99221152D01*
X114149500Y-99221152D01*
X114149500Y-99378847D01*
X114180260Y-99533487D01*
X114180263Y-99533498D01*
X114240604Y-99679175D01*
X114240606Y-99679179D01*
X114328211Y-99810289D01*
X114439711Y-99921789D01*
X114570821Y-100009394D01*
X114716503Y-100069737D01*
X114716509Y-100069738D01*
X114716512Y-100069739D01*
X114871152Y-100100499D01*
X114871158Y-100100500D01*
X115028842Y-100100500D01*
X115183497Y-100069737D01*
X115329179Y-100009394D01*
X115460289Y-99921789D01*
X115571789Y-99810289D01*
X115659394Y-99679179D01*
X115719737Y-99533497D01*
X115750500Y-99378842D01*
X115750500Y-99221158D01*
X115719737Y-99066503D01*
X115659394Y-98920821D01*
X115571789Y-98789711D01*
X115460289Y-98678211D01*
X115329179Y-98590606D01*
X115329176Y-98590604D01*
X115329175Y-98590604D01*
X115183498Y-98530263D01*
X115183487Y-98530260D01*
X115028847Y-98499500D01*
X115028842Y-98499500D01*
X114871158Y-98499500D01*
X114871152Y-98499500D01*
X114716512Y-98530260D01*
X114716501Y-98530263D01*
X114570824Y-98590604D01*
X114439711Y-98678210D01*
X114328210Y-98789711D01*
X114240604Y-98920824D01*
X114180263Y-99066501D01*
X114180260Y-99066512D01*
X114149500Y-99221152D01*
X113210499Y-99221152D01*
X113179737Y-99066503D01*
X113119394Y-98920821D01*
X113031789Y-98789711D01*
X112920289Y-98678211D01*
X112789179Y-98590606D01*
X112789176Y-98590604D01*
X112789175Y-98590604D01*
X112643498Y-98530263D01*
X112643487Y-98530260D01*
X112488847Y-98499500D01*
X112488842Y-98499500D01*
X112331158Y-98499500D01*
X112331152Y-98499500D01*
X112176512Y-98530260D01*
X112176501Y-98530263D01*
X112030824Y-98590604D01*
X111899711Y-98678210D01*
X111788210Y-98789711D01*
X111700604Y-98920824D01*
X111640263Y-99066501D01*
X111640260Y-99066512D01*
X111609500Y-99221152D01*
X87913090Y-99221152D01*
X87943594Y-99177589D01*
X87943601Y-99177577D01*
X88043431Y-98963488D01*
X88043433Y-98963483D01*
X88100636Y-98750000D01*
X87203012Y-98750000D01*
X87235925Y-98692993D01*
X87270000Y-98565826D01*
X87270000Y-98434174D01*
X87235925Y-98307007D01*
X87203012Y-98250000D01*
X88100636Y-98250000D01*
X88100636Y-98249999D01*
X88043433Y-98036516D01*
X88043432Y-98036511D01*
X87943601Y-97822423D01*
X87943594Y-97822411D01*
X87808114Y-97628927D01*
X87808108Y-97628920D01*
X87641079Y-97461891D01*
X87641072Y-97461885D01*
X87447589Y-97326405D01*
X87447577Y-97326398D01*
X87233488Y-97226568D01*
X87233483Y-97226566D01*
X87020000Y-97169363D01*
X87020000Y-98066988D01*
X86962993Y-98034075D01*
X86835826Y-98000000D01*
X86704174Y-98000000D01*
X86577007Y-98034075D01*
X86520000Y-98066988D01*
X86520000Y-97169363D01*
X86519999Y-97169363D01*
X86306516Y-97226566D01*
X86306511Y-97226567D01*
X86092423Y-97326398D01*
X86092411Y-97326405D01*
X85898927Y-97461885D01*
X85898920Y-97461891D01*
X85731891Y-97628920D01*
X85731885Y-97628927D01*
X85596405Y-97822411D01*
X85596398Y-97822423D01*
X85496567Y-98036511D01*
X85496566Y-98036516D01*
X85439363Y-98249999D01*
X85251933Y-98249999D01*
X85205232Y-98096046D01*
X85107685Y-97913550D01*
X84976410Y-97753590D01*
X84816450Y-97622315D01*
X84633954Y-97524768D01*
X84435934Y-97464700D01*
X84230000Y-97444417D01*
X84024065Y-97464700D01*
X84024064Y-97464700D01*
X83826043Y-97524769D01*
X83643548Y-97622316D01*
X83483590Y-97753590D01*
X83352316Y-97913548D01*
X83254769Y-98096043D01*
X83194700Y-98294064D01*
X83194700Y-98294065D01*
X83194700Y-98294066D01*
X83174417Y-98500000D01*
X82745583Y-98500000D01*
X82725300Y-98294066D01*
X82665232Y-98096046D01*
X82567685Y-97913550D01*
X82436410Y-97753590D01*
X82276450Y-97622315D01*
X82093954Y-97524768D01*
X81895934Y-97464700D01*
X81690000Y-97444417D01*
X81484065Y-97464700D01*
X81484064Y-97464700D01*
X81286043Y-97524769D01*
X81103548Y-97622316D01*
X80943590Y-97753590D01*
X80812316Y-97913548D01*
X80714769Y-98096043D01*
X80654700Y-98294064D01*
X80654700Y-98294065D01*
X80654700Y-98294066D01*
X80634417Y-98500000D01*
X80205583Y-98500000D01*
X80185300Y-98294066D01*
X80125232Y-98096046D01*
X80027685Y-97913550D01*
X79896410Y-97753590D01*
X79736450Y-97622315D01*
X79553954Y-97524768D01*
X79355934Y-97464700D01*
X79150000Y-97444417D01*
X78944065Y-97464700D01*
X78944064Y-97464700D01*
X78746043Y-97524769D01*
X78563548Y-97622316D01*
X78403590Y-97753590D01*
X78272316Y-97913548D01*
X78174769Y-98096043D01*
X78114700Y-98294064D01*
X78114700Y-98294065D01*
X78114700Y-98294066D01*
X78094417Y-98500000D01*
X77660500Y-98500000D01*
X77660500Y-97630252D01*
X77648867Y-97571769D01*
X77617462Y-97524769D01*
X77604552Y-97505447D01*
X77543569Y-97464700D01*
X77538231Y-97461133D01*
X77479748Y-97449500D01*
X77479745Y-97449500D01*
X76959500Y-97449500D01*
X76924852Y-97435148D01*
X76910500Y-97400500D01*
X76910500Y-95915252D01*
X111384500Y-95915252D01*
X111384500Y-97604748D01*
X111396133Y-97663231D01*
X111413882Y-97689795D01*
X111440447Y-97729552D01*
X111467012Y-97747301D01*
X111506769Y-97773867D01*
X111565252Y-97785500D01*
X111565255Y-97785500D01*
X113254745Y-97785500D01*
X113254748Y-97785500D01*
X113313231Y-97773867D01*
X113379552Y-97729552D01*
X113423867Y-97663231D01*
X113435500Y-97604748D01*
X113435500Y-95915252D01*
X113423867Y-95856769D01*
X113397301Y-95817012D01*
X113379552Y-95790447D01*
X113339795Y-95763882D01*
X113313231Y-95746133D01*
X113254748Y-95734500D01*
X111565252Y-95734500D01*
X111506769Y-95746133D01*
X111440447Y-95790447D01*
X111396133Y-95856769D01*
X111384500Y-95915252D01*
X76910500Y-95915252D01*
X76910500Y-95149997D01*
X104944353Y-95149997D01*
X104944353Y-95150002D01*
X104964833Y-95292454D01*
X104996935Y-95362746D01*
X105024623Y-95423373D01*
X105024624Y-95423374D01*
X105024625Y-95423376D01*
X105118871Y-95532142D01*
X105118872Y-95532143D01*
X105239947Y-95609953D01*
X105316785Y-95632514D01*
X105378034Y-95650499D01*
X105378037Y-95650499D01*
X105378039Y-95650500D01*
X105378040Y-95650500D01*
X105521960Y-95650500D01*
X105521961Y-95650500D01*
X105521963Y-95650499D01*
X105521965Y-95650499D01*
X105544795Y-95643795D01*
X105660053Y-95609953D01*
X105781128Y-95532143D01*
X105837218Y-95467412D01*
X105870754Y-95450625D01*
X105874250Y-95450500D01*
X114401990Y-95450500D01*
X114436638Y-95464852D01*
X114450990Y-95499500D01*
X114436638Y-95534148D01*
X114422698Y-95543909D01*
X114284973Y-95608131D01*
X114284971Y-95608132D01*
X114206577Y-95663023D01*
X114779766Y-96236212D01*
X114737708Y-96247482D01*
X114612292Y-96319890D01*
X114509890Y-96422292D01*
X114437482Y-96547708D01*
X114426212Y-96589766D01*
X113853023Y-96016577D01*
X113798132Y-96094971D01*
X113798131Y-96094973D01*
X113700149Y-96305094D01*
X113700148Y-96305099D01*
X113640147Y-96529028D01*
X113640146Y-96529034D01*
X113619939Y-96760000D01*
X113640146Y-96990965D01*
X113640147Y-96990971D01*
X113700148Y-97214902D01*
X113700150Y-97214906D01*
X113798131Y-97425029D01*
X113798138Y-97425041D01*
X113853021Y-97503421D01*
X113853023Y-97503421D01*
X114426212Y-96930233D01*
X114437482Y-96972292D01*
X114509890Y-97097708D01*
X114612292Y-97200110D01*
X114737708Y-97272518D01*
X114779765Y-97283787D01*
X114206577Y-97856974D01*
X114206577Y-97856977D01*
X114284961Y-97911861D01*
X114284977Y-97911870D01*
X114495093Y-98009849D01*
X114495097Y-98009851D01*
X114719028Y-98069852D01*
X114719034Y-98069853D01*
X114950000Y-98090060D01*
X115180965Y-98069853D01*
X115180971Y-98069852D01*
X115404902Y-98009851D01*
X115404906Y-98009849D01*
X115615022Y-97911870D01*
X115615032Y-97911865D01*
X115693421Y-97856975D01*
X115693421Y-97856974D01*
X115120234Y-97283787D01*
X115162292Y-97272518D01*
X115287708Y-97200110D01*
X115390110Y-97097708D01*
X115462518Y-96972292D01*
X115473787Y-96930234D01*
X116046974Y-97503421D01*
X116046975Y-97503421D01*
X116101865Y-97425032D01*
X116101870Y-97425022D01*
X116199849Y-97214906D01*
X116199851Y-97214902D01*
X116259852Y-96990971D01*
X116259853Y-96990965D01*
X116280060Y-96760000D01*
X116259853Y-96529034D01*
X116259852Y-96529028D01*
X116199851Y-96305099D01*
X116199850Y-96305094D01*
X116101868Y-96094971D01*
X116101860Y-96094959D01*
X116046977Y-96016577D01*
X116046975Y-96016577D01*
X115473787Y-96589765D01*
X115462518Y-96547708D01*
X115390110Y-96422292D01*
X115287708Y-96319890D01*
X115162292Y-96247482D01*
X115120232Y-96236211D01*
X115693421Y-95663023D01*
X115693421Y-95663021D01*
X115615041Y-95608138D01*
X115615029Y-95608131D01*
X115477302Y-95543909D01*
X115451965Y-95516259D01*
X115453601Y-95478792D01*
X115481251Y-95453455D01*
X115498010Y-95450500D01*
X118789564Y-95450500D01*
X118816230Y-95443354D01*
X118865989Y-95430021D01*
X118934511Y-95390460D01*
X118990460Y-95334511D01*
X119890460Y-94434511D01*
X119924994Y-94374696D01*
X119930021Y-94365989D01*
X119950500Y-94289562D01*
X119950500Y-83310438D01*
X119950500Y-83310436D01*
X119941843Y-83278134D01*
X119930021Y-83234011D01*
X119930020Y-83234009D01*
X119930020Y-83234008D01*
X119904939Y-83190568D01*
X119890460Y-83165489D01*
X119834511Y-83109540D01*
X119659619Y-82934648D01*
X119645267Y-82900000D01*
X119659619Y-82865352D01*
X119767428Y-82757543D01*
X119890460Y-82634511D01*
X119910096Y-82600500D01*
X119930021Y-82565989D01*
X119950500Y-82489562D01*
X119950500Y-66628062D01*
X119962468Y-66595974D01*
X120025374Y-66523376D01*
X120025377Y-66523373D01*
X120085165Y-66392457D01*
X120085165Y-66392455D01*
X120085166Y-66392454D01*
X120105647Y-66250002D01*
X120105647Y-66249997D01*
X120085166Y-66107545D01*
X120080751Y-66097879D01*
X120025377Y-65976627D01*
X119931128Y-65867857D01*
X119810053Y-65790047D01*
X119810050Y-65790046D01*
X119671965Y-65749500D01*
X119671961Y-65749500D01*
X119528039Y-65749500D01*
X119528034Y-65749500D01*
X119389949Y-65790046D01*
X119268871Y-65867857D01*
X119174625Y-65976623D01*
X119174624Y-65976625D01*
X119114833Y-66107545D01*
X119094353Y-66249997D01*
X119094353Y-66250002D01*
X119114833Y-66392454D01*
X119146935Y-66462746D01*
X119174623Y-66523373D01*
X119174624Y-66523374D01*
X119174625Y-66523376D01*
X119265336Y-66628062D01*
X119268872Y-66632143D01*
X119326991Y-66669493D01*
X119348380Y-66700299D01*
X119349500Y-66710715D01*
X119349500Y-82305233D01*
X119335148Y-82339881D01*
X119089881Y-82585148D01*
X119055233Y-82599500D01*
X118889691Y-82599500D01*
X118855043Y-82585148D01*
X118840691Y-82550500D01*
X118845119Y-82530144D01*
X118885165Y-82442457D01*
X118885165Y-82442455D01*
X118885166Y-82442454D01*
X118905647Y-82300002D01*
X118905647Y-82299997D01*
X118885166Y-82157545D01*
X118854927Y-82091332D01*
X118825377Y-82026627D01*
X118731128Y-81917857D01*
X118723006Y-81912637D01*
X118701619Y-81881830D01*
X118700500Y-81871417D01*
X118700500Y-64610437D01*
X118699361Y-64606187D01*
X118697083Y-64597685D01*
X118680022Y-64534012D01*
X118640460Y-64465489D01*
X117654511Y-63479540D01*
X117585990Y-63439979D01*
X117509564Y-63419500D01*
X117509562Y-63419500D01*
X117492955Y-63419500D01*
X117458307Y-63405148D01*
X117446065Y-63384724D01*
X117444918Y-63380944D01*
X117425232Y-63316046D01*
X117327685Y-63133550D01*
X117196410Y-62973590D01*
X117036450Y-62842315D01*
X116853954Y-62744768D01*
X116655934Y-62684700D01*
X116450000Y-62664417D01*
X116244065Y-62684700D01*
X116244064Y-62684700D01*
X116046043Y-62744769D01*
X115863548Y-62842316D01*
X115703590Y-62973590D01*
X115572316Y-63133548D01*
X115474769Y-63316043D01*
X115414700Y-63514064D01*
X115414700Y-63514065D01*
X115414700Y-63514066D01*
X115394417Y-63720000D01*
X115414700Y-63925934D01*
X115474768Y-64123954D01*
X115572315Y-64306450D01*
X115703590Y-64466410D01*
X115863550Y-64597685D01*
X116046046Y-64695232D01*
X116244066Y-64755300D01*
X116450000Y-64775583D01*
X116655934Y-64755300D01*
X116853954Y-64695232D01*
X117036450Y-64597685D01*
X117196410Y-64466410D01*
X117327685Y-64306450D01*
X117402362Y-64166740D01*
X117431350Y-64142951D01*
X117468673Y-64146627D01*
X117480222Y-64155193D01*
X118085148Y-64760119D01*
X118099500Y-64794767D01*
X118099500Y-81871417D01*
X118085148Y-81906065D01*
X118076994Y-81912637D01*
X118068872Y-81917857D01*
X118068868Y-81917860D01*
X117974625Y-82026623D01*
X117974624Y-82026625D01*
X117914833Y-82157545D01*
X117894353Y-82299997D01*
X117894353Y-82300002D01*
X117909850Y-82407793D01*
X117900575Y-82444131D01*
X117868322Y-82463267D01*
X117834858Y-82455988D01*
X117810051Y-82440046D01*
X117671965Y-82399500D01*
X117671961Y-82399500D01*
X117528039Y-82399500D01*
X117528034Y-82399500D01*
X117389949Y-82440046D01*
X117389947Y-82440046D01*
X117389947Y-82440047D01*
X117365142Y-82455988D01*
X117268871Y-82517857D01*
X117174625Y-82626623D01*
X117174624Y-82626625D01*
X117114833Y-82757545D01*
X117094353Y-82899997D01*
X117094353Y-82900000D01*
X117114833Y-83042454D01*
X117145471Y-83109540D01*
X117174623Y-83173373D01*
X117174624Y-83173374D01*
X117174625Y-83173376D01*
X117268871Y-83282142D01*
X117268872Y-83282143D01*
X117389947Y-83359953D01*
X117466785Y-83382514D01*
X117528034Y-83400499D01*
X117528037Y-83400499D01*
X117528039Y-83400500D01*
X117528040Y-83400500D01*
X117671960Y-83400500D01*
X117671961Y-83400500D01*
X117671963Y-83400499D01*
X117671965Y-83400499D01*
X117707564Y-83390046D01*
X117810053Y-83359953D01*
X117931128Y-83282143D01*
X117987218Y-83217412D01*
X118020754Y-83200625D01*
X118024250Y-83200500D01*
X119055233Y-83200500D01*
X119089881Y-83214852D01*
X119335148Y-83460119D01*
X119349500Y-83494767D01*
X119349500Y-94105233D01*
X119335148Y-94139881D01*
X118639881Y-94835148D01*
X118605233Y-94849500D01*
X117862832Y-94849500D01*
X117828184Y-94835148D01*
X117813832Y-94800500D01*
X117828184Y-94765852D01*
X117838332Y-94758065D01*
X117868825Y-94740460D01*
X117924774Y-94684511D01*
X119040460Y-93568825D01*
X119079907Y-93500500D01*
X119080021Y-93500303D01*
X119100500Y-93423876D01*
X119100500Y-84210438D01*
X119100500Y-84210436D01*
X119091843Y-84178134D01*
X119080021Y-84134011D01*
X119080020Y-84134009D01*
X119080020Y-84134008D01*
X119040459Y-84065488D01*
X118912848Y-83937877D01*
X118898496Y-83903229D01*
X118898993Y-83896270D01*
X118905647Y-83850000D01*
X118905647Y-83849997D01*
X118885166Y-83707545D01*
X118880751Y-83697879D01*
X118825377Y-83576627D01*
X118754445Y-83494767D01*
X118731128Y-83467857D01*
X118719087Y-83460119D01*
X118610053Y-83390047D01*
X118610050Y-83390046D01*
X118471965Y-83349500D01*
X118471961Y-83349500D01*
X118328039Y-83349500D01*
X118328034Y-83349500D01*
X118189949Y-83390046D01*
X118189947Y-83390046D01*
X118189947Y-83390047D01*
X118173682Y-83400500D01*
X118068871Y-83467857D01*
X117974625Y-83576623D01*
X117974624Y-83576625D01*
X117914833Y-83707545D01*
X117894353Y-83849997D01*
X117894353Y-83850002D01*
X117914833Y-83992454D01*
X117946935Y-84062746D01*
X117974623Y-84123373D01*
X117974624Y-84123374D01*
X117974625Y-84123376D01*
X118068871Y-84232142D01*
X118068872Y-84232143D01*
X118189947Y-84309953D01*
X118266785Y-84332514D01*
X118328034Y-84350499D01*
X118328037Y-84350499D01*
X118328039Y-84350500D01*
X118328040Y-84350500D01*
X118450500Y-84350500D01*
X118485148Y-84364852D01*
X118499500Y-84399500D01*
X118499500Y-93239547D01*
X118485148Y-93274195D01*
X117574195Y-94185148D01*
X117539547Y-94199500D01*
X106574250Y-94199500D01*
X106539602Y-94185148D01*
X106537218Y-94182588D01*
X106481128Y-94117857D01*
X106360053Y-94040047D01*
X106360050Y-94040046D01*
X106221965Y-93999500D01*
X106221961Y-93999500D01*
X106078039Y-93999500D01*
X106078034Y-93999500D01*
X105939949Y-94040046D01*
X105818871Y-94117857D01*
X105724625Y-94226623D01*
X105724624Y-94226625D01*
X105664833Y-94357545D01*
X105644353Y-94499997D01*
X105644353Y-94500002D01*
X105661338Y-94618141D01*
X105652063Y-94654479D01*
X105619810Y-94673615D01*
X105599032Y-94672129D01*
X105521965Y-94649500D01*
X105521961Y-94649500D01*
X105378039Y-94649500D01*
X105378034Y-94649500D01*
X105239949Y-94690046D01*
X105118871Y-94767857D01*
X105024625Y-94876623D01*
X105024624Y-94876625D01*
X104964833Y-95007545D01*
X104944353Y-95149997D01*
X76910500Y-95149997D01*
X76910500Y-94384767D01*
X76924852Y-94350119D01*
X77110119Y-94164852D01*
X77144767Y-94150500D01*
X85375750Y-94150500D01*
X85410398Y-94164852D01*
X85412782Y-94167412D01*
X85464092Y-94226627D01*
X85468872Y-94232143D01*
X85589947Y-94309953D01*
X85666785Y-94332514D01*
X85728034Y-94350499D01*
X85728037Y-94350499D01*
X85728039Y-94350500D01*
X85728040Y-94350500D01*
X85871960Y-94350500D01*
X85871961Y-94350500D01*
X85871963Y-94350499D01*
X85871965Y-94350499D01*
X85894795Y-94343795D01*
X86010053Y-94309953D01*
X86131128Y-94232143D01*
X86225377Y-94123373D01*
X86285165Y-93992457D01*
X86285165Y-93992455D01*
X86285166Y-93992454D01*
X86305647Y-93850002D01*
X86305647Y-93849997D01*
X86285166Y-93707545D01*
X86240408Y-93609541D01*
X86225377Y-93576627D01*
X86218618Y-93568827D01*
X86131128Y-93467857D01*
X86117779Y-93459278D01*
X86011100Y-93390720D01*
X85989713Y-93359916D01*
X85996371Y-93323009D01*
X86027177Y-93301620D01*
X86037593Y-93300500D01*
X108325750Y-93300500D01*
X108360398Y-93314852D01*
X108362782Y-93317412D01*
X108399612Y-93359916D01*
X108418872Y-93382143D01*
X108539947Y-93459953D01*
X108616785Y-93482514D01*
X108678034Y-93500499D01*
X108678037Y-93500499D01*
X108678039Y-93500500D01*
X108678040Y-93500500D01*
X108821960Y-93500500D01*
X108821961Y-93500500D01*
X108821963Y-93500499D01*
X108821965Y-93500499D01*
X108857435Y-93490084D01*
X108960053Y-93459953D01*
X109081128Y-93382143D01*
X109175377Y-93273373D01*
X109235165Y-93142457D01*
X109235165Y-93142455D01*
X109235166Y-93142454D01*
X109255647Y-93000002D01*
X109255647Y-92999997D01*
X109235166Y-92857545D01*
X109230751Y-92847879D01*
X109175377Y-92726627D01*
X109151763Y-92699375D01*
X109081128Y-92617857D01*
X108960053Y-92540047D01*
X108960050Y-92540046D01*
X108821965Y-92499500D01*
X108821961Y-92499500D01*
X108678039Y-92499500D01*
X108678034Y-92499500D01*
X108539949Y-92540046D01*
X108418871Y-92617857D01*
X108362782Y-92682588D01*
X108329246Y-92699375D01*
X108325750Y-92699500D01*
X80124250Y-92699500D01*
X80089602Y-92685148D01*
X80087218Y-92682588D01*
X80031128Y-92617857D01*
X79910053Y-92540047D01*
X79910050Y-92540046D01*
X79771965Y-92499500D01*
X79771961Y-92499500D01*
X79628039Y-92499500D01*
X79628034Y-92499500D01*
X79489949Y-92540046D01*
X79368871Y-92617857D01*
X79274625Y-92726623D01*
X79274624Y-92726625D01*
X79214833Y-92857545D01*
X79194353Y-92999997D01*
X79194353Y-93000002D01*
X79214833Y-93142454D01*
X79246935Y-93212746D01*
X79274623Y-93273373D01*
X79274624Y-93273374D01*
X79274625Y-93273376D01*
X79340587Y-93349500D01*
X79368872Y-93382143D01*
X79488899Y-93459279D01*
X79510287Y-93490084D01*
X79503629Y-93526991D01*
X79472823Y-93548380D01*
X79462407Y-93549500D01*
X76960436Y-93549500D01*
X76884010Y-93569979D01*
X76884008Y-93569979D01*
X76815488Y-93609540D01*
X76815488Y-93609541D01*
X76359542Y-94065486D01*
X76359537Y-94065492D01*
X76319979Y-94134012D01*
X76319977Y-94134016D01*
X76299500Y-94210436D01*
X76299500Y-94289563D01*
X76307830Y-94320649D01*
X76309500Y-94333332D01*
X76309500Y-97400500D01*
X76295148Y-97435148D01*
X76260500Y-97449500D01*
X75740252Y-97449500D01*
X75681769Y-97461133D01*
X75615447Y-97505447D01*
X75571133Y-97571769D01*
X75559500Y-97630252D01*
X55150500Y-97630252D01*
X55150500Y-91371549D01*
X64070144Y-91371549D01*
X64070145Y-91371550D01*
X64932314Y-91371550D01*
X64927920Y-91375944D01*
X64875259Y-91467156D01*
X64848000Y-91568889D01*
X64848000Y-91674211D01*
X64875259Y-91775944D01*
X64927920Y-91867156D01*
X64932314Y-91871550D01*
X64070145Y-91871550D01*
X64082472Y-91949381D01*
X64082473Y-91949384D01*
X64150568Y-92158961D01*
X64250613Y-92355309D01*
X64380141Y-92533590D01*
X64380145Y-92533595D01*
X64535955Y-92689405D01*
X64535959Y-92689408D01*
X64714240Y-92818936D01*
X64910588Y-92918981D01*
X65120165Y-92987076D01*
X65120168Y-92987077D01*
X65337819Y-93021550D01*
X66098000Y-93021550D01*
X66098000Y-92021550D01*
X66598000Y-92021550D01*
X66598000Y-93021550D01*
X67358181Y-93021550D01*
X67575831Y-92987077D01*
X67575834Y-92987076D01*
X67785411Y-92918981D01*
X67981759Y-92818936D01*
X68160040Y-92689408D01*
X68160045Y-92689405D01*
X68315855Y-92533595D01*
X68315858Y-92533590D01*
X68445386Y-92355309D01*
X68545431Y-92158961D01*
X68613526Y-91949384D01*
X68613527Y-91949381D01*
X68625855Y-91871550D01*
X67763686Y-91871550D01*
X67768080Y-91867156D01*
X67820741Y-91775944D01*
X67848000Y-91674211D01*
X67848000Y-91568889D01*
X67820741Y-91467156D01*
X67768080Y-91375944D01*
X67763686Y-91371550D01*
X68625855Y-91371550D01*
X68625855Y-91371549D01*
X68613527Y-91293718D01*
X68613526Y-91293715D01*
X68599321Y-91249997D01*
X82544353Y-91249997D01*
X82544353Y-91250002D01*
X82564833Y-91392454D01*
X82576660Y-91418350D01*
X82624623Y-91523373D01*
X82624624Y-91523374D01*
X82624625Y-91523376D01*
X82718871Y-91632142D01*
X82718872Y-91632143D01*
X82839947Y-91709953D01*
X82916785Y-91732514D01*
X82978034Y-91750499D01*
X82978037Y-91750499D01*
X82978039Y-91750500D01*
X82978040Y-91750500D01*
X83105233Y-91750500D01*
X83139881Y-91764852D01*
X83209540Y-91834511D01*
X83265489Y-91890460D01*
X83334011Y-91930021D01*
X83369478Y-91939524D01*
X83410436Y-91950500D01*
X83410438Y-91950500D01*
X98325750Y-91950500D01*
X98360398Y-91964852D01*
X98362782Y-91967412D01*
X98418872Y-92032143D01*
X98539947Y-92109953D01*
X98616785Y-92132514D01*
X98678034Y-92150499D01*
X98678037Y-92150499D01*
X98678039Y-92150500D01*
X98678040Y-92150500D01*
X98821960Y-92150500D01*
X98821961Y-92150500D01*
X98821963Y-92150499D01*
X98821965Y-92150499D01*
X98844795Y-92143795D01*
X98960053Y-92109953D01*
X99081128Y-92032143D01*
X99175377Y-91923373D01*
X99235165Y-91792457D01*
X99235165Y-91792455D01*
X99235166Y-91792454D01*
X99255647Y-91650002D01*
X99255647Y-91649997D01*
X99235166Y-91507545D01*
X99233279Y-91503415D01*
X99224082Y-91483276D01*
X99222744Y-91445799D01*
X99248299Y-91418350D01*
X99285778Y-91417011D01*
X99303303Y-91428274D01*
X99337150Y-91462121D01*
X99351502Y-91496769D01*
X99351003Y-91503742D01*
X99344353Y-91549998D01*
X99344353Y-91550002D01*
X99364833Y-91692454D01*
X99372825Y-91709953D01*
X99424623Y-91823373D01*
X99424624Y-91823374D01*
X99424625Y-91823376D01*
X99511273Y-91923373D01*
X99518872Y-91932143D01*
X99639947Y-92009953D01*
X99715517Y-92032142D01*
X99778034Y-92050499D01*
X99778037Y-92050499D01*
X99778039Y-92050500D01*
X99778040Y-92050500D01*
X99921960Y-92050500D01*
X99921961Y-92050500D01*
X99921963Y-92050499D01*
X99921965Y-92050499D01*
X99944795Y-92043795D01*
X100060053Y-92009953D01*
X100181128Y-91932143D01*
X100275377Y-91823373D01*
X100335165Y-91692457D01*
X100335165Y-91692455D01*
X100335166Y-91692454D01*
X100355647Y-91550002D01*
X100355647Y-91549997D01*
X100335166Y-91407545D01*
X100308657Y-91349500D01*
X100275377Y-91276627D01*
X100266040Y-91265852D01*
X100181128Y-91167857D01*
X100060053Y-91090047D01*
X100039929Y-91084138D01*
X99921965Y-91049500D01*
X99921961Y-91049500D01*
X99794767Y-91049500D01*
X99760119Y-91035148D01*
X99534511Y-90809540D01*
X99465990Y-90769979D01*
X99389564Y-90749500D01*
X99389562Y-90749500D01*
X91144767Y-90749500D01*
X91110119Y-90735148D01*
X90262848Y-89887877D01*
X90248496Y-89853229D01*
X90248993Y-89846270D01*
X90255647Y-89800000D01*
X90255647Y-89799997D01*
X90235166Y-89657545D01*
X90230751Y-89647879D01*
X90175377Y-89526627D01*
X90081128Y-89417857D01*
X89960053Y-89340047D01*
X89960050Y-89340046D01*
X89821965Y-89299500D01*
X89821961Y-89299500D01*
X89678039Y-89299500D01*
X89678034Y-89299500D01*
X89539949Y-89340046D01*
X89418871Y-89417857D01*
X89324625Y-89526623D01*
X89324624Y-89526625D01*
X89264833Y-89657545D01*
X89244353Y-89799997D01*
X89244353Y-89800002D01*
X89264833Y-89942454D01*
X89296935Y-90012746D01*
X89324623Y-90073373D01*
X89324624Y-90073374D01*
X89324625Y-90073376D01*
X89418871Y-90182142D01*
X89418872Y-90182143D01*
X89539947Y-90259953D01*
X89616785Y-90282514D01*
X89678034Y-90300499D01*
X89678037Y-90300499D01*
X89678039Y-90300500D01*
X89678040Y-90300500D01*
X89805233Y-90300500D01*
X89839881Y-90314852D01*
X90790881Y-91265852D01*
X90805233Y-91300500D01*
X90790881Y-91335148D01*
X90756233Y-91349500D01*
X83597890Y-91349500D01*
X83563242Y-91335148D01*
X83548890Y-91300500D01*
X83549389Y-91293526D01*
X83555647Y-91250001D01*
X83555647Y-91249998D01*
X83535166Y-91107545D01*
X83524476Y-91084138D01*
X83475377Y-90976627D01*
X83381128Y-90867857D01*
X83260053Y-90790047D01*
X83260050Y-90790046D01*
X83121965Y-90749500D01*
X83121961Y-90749500D01*
X82978039Y-90749500D01*
X82978034Y-90749500D01*
X82839949Y-90790046D01*
X82718871Y-90867857D01*
X82624625Y-90976623D01*
X82624624Y-90976625D01*
X82564833Y-91107545D01*
X82544353Y-91249997D01*
X68599321Y-91249997D01*
X68545431Y-91084138D01*
X68445386Y-90887790D01*
X68315858Y-90709509D01*
X68315855Y-90709505D01*
X68160045Y-90553695D01*
X68160040Y-90553691D01*
X67981759Y-90424163D01*
X67785411Y-90324118D01*
X67575834Y-90256023D01*
X67575831Y-90256022D01*
X67358181Y-90221550D01*
X66598000Y-90221550D01*
X66598000Y-91221550D01*
X66098000Y-91221550D01*
X66098000Y-90221550D01*
X65337819Y-90221550D01*
X65120168Y-90256022D01*
X65120165Y-90256023D01*
X64910588Y-90324118D01*
X64714240Y-90424163D01*
X64535959Y-90553691D01*
X64380141Y-90709509D01*
X64250613Y-90887790D01*
X64150568Y-91084138D01*
X64082473Y-91293715D01*
X64082472Y-91293718D01*
X64070144Y-91371549D01*
X55150500Y-91371549D01*
X55150500Y-86715263D01*
X57697500Y-86715263D01*
X57697500Y-86927836D01*
X57730753Y-87137790D01*
X57730754Y-87137793D01*
X57796443Y-87339963D01*
X57892947Y-87529363D01*
X57892952Y-87529371D01*
X58017897Y-87701343D01*
X58017901Y-87701348D01*
X58168202Y-87851649D01*
X58168206Y-87851652D01*
X58168208Y-87851654D01*
X58340184Y-87976601D01*
X58529588Y-88073107D01*
X58731757Y-88138796D01*
X58941713Y-88172050D01*
X58941714Y-88172050D01*
X59154286Y-88172050D01*
X59154287Y-88172050D01*
X59364243Y-88138796D01*
X59566412Y-88073107D01*
X59755816Y-87976601D01*
X59927792Y-87851654D01*
X59927795Y-87851650D01*
X59927798Y-87851649D01*
X60078099Y-87701348D01*
X60078100Y-87701345D01*
X60078104Y-87701342D01*
X60203051Y-87529366D01*
X60299557Y-87339962D01*
X60365246Y-87137793D01*
X60398500Y-86927837D01*
X60398500Y-86715263D01*
X60365246Y-86505307D01*
X60299557Y-86303138D01*
X60203051Y-86113734D01*
X60078104Y-85941758D01*
X60078102Y-85941756D01*
X60078099Y-85941752D01*
X59947715Y-85811368D01*
X62048000Y-85811368D01*
X62048000Y-86571550D01*
X63048000Y-86571550D01*
X63048000Y-87071550D01*
X62048000Y-87071550D01*
X62048000Y-87831731D01*
X62082472Y-88049381D01*
X62082473Y-88049384D01*
X62150568Y-88258961D01*
X62250613Y-88455309D01*
X62380141Y-88633590D01*
X62380145Y-88633595D01*
X62535955Y-88789405D01*
X62535959Y-88789408D01*
X62714240Y-88918936D01*
X62910588Y-89018981D01*
X63120165Y-89087077D01*
X63197999Y-89099403D01*
X63198000Y-89099403D01*
X63198000Y-88237236D01*
X63202394Y-88241630D01*
X63293606Y-88294291D01*
X63395339Y-88321550D01*
X63500661Y-88321550D01*
X63602394Y-88294291D01*
X63693606Y-88241630D01*
X63698000Y-88237236D01*
X63698000Y-89099403D01*
X63775834Y-89087077D01*
X63985411Y-89018981D01*
X64181759Y-88918936D01*
X64360040Y-88789408D01*
X64360045Y-88789405D01*
X64515855Y-88633595D01*
X64515858Y-88633590D01*
X64645386Y-88455309D01*
X64745431Y-88258961D01*
X64813526Y-88049384D01*
X64813527Y-88049381D01*
X64848000Y-87831731D01*
X64848000Y-87071550D01*
X63848000Y-87071550D01*
X63848000Y-86571550D01*
X64848000Y-86571550D01*
X64848000Y-85834939D01*
X68347500Y-85834939D01*
X68347500Y-87808160D01*
X68374597Y-87979248D01*
X68374598Y-87979251D01*
X68428127Y-88143996D01*
X68506764Y-88298332D01*
X68506767Y-88298336D01*
X68506768Y-88298338D01*
X68608586Y-88438478D01*
X68608588Y-88438480D01*
X68608591Y-88438484D01*
X68731065Y-88560958D01*
X68731068Y-88560960D01*
X68731072Y-88560964D01*
X68871212Y-88662782D01*
X68871214Y-88662783D01*
X68871217Y-88662785D01*
X69025553Y-88741422D01*
X69025555Y-88741423D01*
X69190299Y-88794952D01*
X69361389Y-88822050D01*
X69361390Y-88822050D01*
X69534610Y-88822050D01*
X69534611Y-88822050D01*
X69705701Y-88794952D01*
X69870445Y-88741423D01*
X70024788Y-88662782D01*
X70164928Y-88560964D01*
X70287414Y-88438478D01*
X70389232Y-88298338D01*
X70467873Y-88143995D01*
X70521402Y-87979251D01*
X70548500Y-87808161D01*
X70548500Y-87675097D01*
X94444354Y-87675097D01*
X94444354Y-87675102D01*
X94464834Y-87817554D01*
X94496936Y-87887846D01*
X94524624Y-87948473D01*
X94524625Y-87948474D01*
X94524626Y-87948476D01*
X94612063Y-88049384D01*
X94618873Y-88057243D01*
X94739948Y-88135053D01*
X94816786Y-88157614D01*
X94878035Y-88175599D01*
X94878038Y-88175599D01*
X94878040Y-88175600D01*
X94878041Y-88175600D01*
X95021961Y-88175600D01*
X95021962Y-88175600D01*
X95021964Y-88175599D01*
X95021966Y-88175599D01*
X95050720Y-88167156D01*
X95160054Y-88135053D01*
X95281129Y-88057243D01*
X95375378Y-87948473D01*
X95435166Y-87817557D01*
X95435166Y-87817555D01*
X95435167Y-87817554D01*
X95455648Y-87675102D01*
X95455648Y-87675097D01*
X95435167Y-87532645D01*
X95430752Y-87522979D01*
X95375378Y-87401727D01*
X95312469Y-87329126D01*
X95281129Y-87292957D01*
X95223008Y-87255605D01*
X95201620Y-87224800D01*
X95200500Y-87214384D01*
X95200500Y-82994767D01*
X95214852Y-82960119D01*
X95960119Y-82214852D01*
X95994767Y-82200500D01*
X111075750Y-82200500D01*
X111110398Y-82214852D01*
X111112782Y-82217412D01*
X111168872Y-82282143D01*
X111289947Y-82359953D01*
X111366785Y-82382514D01*
X111428034Y-82400499D01*
X111428037Y-82400499D01*
X111428039Y-82400500D01*
X111428040Y-82400500D01*
X111571960Y-82400500D01*
X111571961Y-82400500D01*
X111571963Y-82400499D01*
X111571965Y-82400499D01*
X111594795Y-82393795D01*
X111710053Y-82359953D01*
X111831128Y-82282143D01*
X111925377Y-82173373D01*
X111985165Y-82042457D01*
X111985165Y-82042455D01*
X111985166Y-82042454D01*
X112005647Y-81900002D01*
X112005647Y-81899997D01*
X111985166Y-81757545D01*
X111940408Y-81659541D01*
X111925377Y-81626627D01*
X111901763Y-81599375D01*
X111831128Y-81517857D01*
X111710053Y-81440047D01*
X111710050Y-81440046D01*
X111571965Y-81399500D01*
X111571961Y-81399500D01*
X111428039Y-81399500D01*
X111428034Y-81399500D01*
X111289949Y-81440046D01*
X111168871Y-81517857D01*
X111112782Y-81582588D01*
X111079246Y-81599375D01*
X111075750Y-81599500D01*
X95810436Y-81599500D01*
X95734010Y-81619979D01*
X95734008Y-81619979D01*
X95665488Y-81659540D01*
X95665488Y-81659541D01*
X94659541Y-82665488D01*
X94659540Y-82665488D01*
X94619979Y-82734008D01*
X94619979Y-82734010D01*
X94599500Y-82810436D01*
X94599500Y-87297038D01*
X94587531Y-87329126D01*
X94524628Y-87401723D01*
X94524625Y-87401726D01*
X94524624Y-87401726D01*
X94464834Y-87532645D01*
X94444354Y-87675097D01*
X70548500Y-87675097D01*
X70548500Y-85834939D01*
X70521402Y-85663849D01*
X70467873Y-85499105D01*
X70389232Y-85344762D01*
X70287414Y-85204622D01*
X70287410Y-85204618D01*
X70287408Y-85204615D01*
X70164934Y-85082141D01*
X70164935Y-85082141D01*
X70024782Y-84980314D01*
X69870446Y-84901677D01*
X69705701Y-84848148D01*
X69705698Y-84848147D01*
X69574271Y-84827331D01*
X69534611Y-84821050D01*
X69361389Y-84821050D01*
X69329192Y-84826149D01*
X69190301Y-84848147D01*
X69190298Y-84848148D01*
X69025553Y-84901677D01*
X68871217Y-84980314D01*
X68731065Y-85082141D01*
X68608591Y-85204615D01*
X68506764Y-85344767D01*
X68428127Y-85499103D01*
X68374598Y-85663848D01*
X68374597Y-85663851D01*
X68347500Y-85834939D01*
X64848000Y-85834939D01*
X64848000Y-85811368D01*
X64813527Y-85593718D01*
X64813526Y-85593715D01*
X64745431Y-85384138D01*
X64645386Y-85187790D01*
X64515858Y-85009509D01*
X64515855Y-85009505D01*
X64360045Y-84853695D01*
X64360040Y-84853691D01*
X64181759Y-84724163D01*
X63985411Y-84624118D01*
X63775834Y-84556023D01*
X63775831Y-84556022D01*
X63698000Y-84543694D01*
X63698000Y-85405864D01*
X63693606Y-85401470D01*
X63602394Y-85348809D01*
X63500661Y-85321550D01*
X63395339Y-85321550D01*
X63293606Y-85348809D01*
X63202394Y-85401470D01*
X63198000Y-85405864D01*
X63198000Y-84543694D01*
X63197999Y-84543694D01*
X63120168Y-84556022D01*
X63120165Y-84556023D01*
X62910588Y-84624118D01*
X62714240Y-84724163D01*
X62535959Y-84853691D01*
X62380141Y-85009509D01*
X62250613Y-85187790D01*
X62150568Y-85384138D01*
X62082473Y-85593715D01*
X62082472Y-85593718D01*
X62048000Y-85811368D01*
X59947715Y-85811368D01*
X59927798Y-85791451D01*
X59927793Y-85791447D01*
X59755821Y-85666502D01*
X59755813Y-85666497D01*
X59566413Y-85569993D01*
X59364243Y-85504304D01*
X59364240Y-85504303D01*
X59185186Y-85475944D01*
X59154287Y-85471050D01*
X58941713Y-85471050D01*
X58910814Y-85475944D01*
X58731759Y-85504303D01*
X58731756Y-85504304D01*
X58529586Y-85569993D01*
X58340186Y-85666497D01*
X58340178Y-85666502D01*
X58168206Y-85791447D01*
X58017897Y-85941756D01*
X57892952Y-86113728D01*
X57892947Y-86113736D01*
X57796443Y-86303136D01*
X57730754Y-86505306D01*
X57730753Y-86505309D01*
X57697500Y-86715263D01*
X55150500Y-86715263D01*
X55150500Y-82299997D01*
X87344353Y-82299997D01*
X87344353Y-82300002D01*
X87364833Y-82442454D01*
X87386347Y-82489562D01*
X87424623Y-82573373D01*
X87424624Y-82573374D01*
X87424625Y-82573376D01*
X87504440Y-82665488D01*
X87518872Y-82682143D01*
X87639947Y-82759953D01*
X87716785Y-82782514D01*
X87778034Y-82800499D01*
X87778037Y-82800499D01*
X87778039Y-82800500D01*
X87778040Y-82800500D01*
X87921960Y-82800500D01*
X87921961Y-82800500D01*
X87921963Y-82800499D01*
X87921965Y-82800499D01*
X87944795Y-82793795D01*
X88060053Y-82759953D01*
X88181128Y-82682143D01*
X88275377Y-82573373D01*
X88335165Y-82442457D01*
X88335165Y-82442455D01*
X88335166Y-82442454D01*
X88355647Y-82300002D01*
X88355647Y-82299997D01*
X88335165Y-82157544D01*
X88335165Y-82157542D01*
X88304928Y-82091332D01*
X88300500Y-82070977D01*
X88300500Y-77856899D01*
X88314852Y-77822251D01*
X89434752Y-76702352D01*
X89469400Y-76688000D01*
X101948350Y-76688000D01*
X101974838Y-76695776D01*
X101977447Y-76697453D01*
X102054285Y-76720014D01*
X102115534Y-76737999D01*
X102115537Y-76737999D01*
X102115539Y-76738000D01*
X102115540Y-76738000D01*
X102259460Y-76738000D01*
X102259461Y-76738000D01*
X102259463Y-76737999D01*
X102259465Y-76737999D01*
X102282295Y-76731295D01*
X102397553Y-76697453D01*
X102518628Y-76619643D01*
X102612877Y-76510873D01*
X102672665Y-76379957D01*
X102672665Y-76379955D01*
X102672666Y-76379954D01*
X102693147Y-76237502D01*
X102693147Y-76237497D01*
X102672666Y-76095045D01*
X102668251Y-76085379D01*
X102612877Y-75964127D01*
X102518628Y-75855357D01*
X102397553Y-75777547D01*
X102397550Y-75777546D01*
X102259465Y-75737000D01*
X102259461Y-75737000D01*
X102115539Y-75737000D01*
X102115534Y-75737000D01*
X101977449Y-75777546D01*
X101977447Y-75777546D01*
X101977447Y-75777547D01*
X101974838Y-75779223D01*
X101948350Y-75787000D01*
X89203188Y-75787000D01*
X89112826Y-75811213D01*
X89088613Y-75817700D01*
X89088610Y-75817701D01*
X88985885Y-75877010D01*
X87489512Y-77373384D01*
X87489511Y-77373385D01*
X87430201Y-77476111D01*
X87428532Y-77482343D01*
X87428531Y-77482342D01*
X87428531Y-77482346D01*
X87399500Y-77590688D01*
X87399500Y-82070977D01*
X87395072Y-82091332D01*
X87364834Y-82157542D01*
X87364834Y-82157544D01*
X87344353Y-82299997D01*
X55150500Y-82299997D01*
X55150500Y-75099997D01*
X89044353Y-75099997D01*
X89044353Y-75100002D01*
X89064833Y-75242454D01*
X89096935Y-75312746D01*
X89124623Y-75373373D01*
X89124624Y-75373374D01*
X89124625Y-75373376D01*
X89218871Y-75482142D01*
X89218872Y-75482143D01*
X89339947Y-75559953D01*
X89416785Y-75582514D01*
X89478034Y-75600499D01*
X89478037Y-75600499D01*
X89478039Y-75600500D01*
X89478040Y-75600500D01*
X89621960Y-75600500D01*
X89621961Y-75600500D01*
X89621963Y-75600499D01*
X89621965Y-75600499D01*
X89644795Y-75593795D01*
X89760053Y-75559953D01*
X89881128Y-75482143D01*
X89975377Y-75373373D01*
X90035165Y-75242457D01*
X90035165Y-75242455D01*
X90035166Y-75242454D01*
X90055647Y-75100002D01*
X90055647Y-75099997D01*
X90035166Y-74957545D01*
X90030751Y-74947879D01*
X89975377Y-74826627D01*
X89912468Y-74754025D01*
X89881127Y-74717855D01*
X89881125Y-74717853D01*
X89823009Y-74680505D01*
X89801620Y-74649700D01*
X89800500Y-74639284D01*
X89800500Y-71446746D01*
X89814852Y-71412098D01*
X89835696Y-71399731D01*
X89915265Y-71376368D01*
X89915265Y-71376367D01*
X89915268Y-71376367D01*
X90036343Y-71298557D01*
X90130592Y-71189787D01*
X90190380Y-71058871D01*
X90190380Y-71058869D01*
X90190381Y-71058868D01*
X90210862Y-70916416D01*
X90210862Y-70916411D01*
X90190381Y-70773959D01*
X90185966Y-70764293D01*
X90130592Y-70643041D01*
X90036343Y-70534271D01*
X89915268Y-70456461D01*
X89915265Y-70456460D01*
X89777180Y-70415914D01*
X89777176Y-70415914D01*
X89633254Y-70415914D01*
X89633249Y-70415914D01*
X89495164Y-70456460D01*
X89374086Y-70534271D01*
X89279840Y-70643037D01*
X89279839Y-70643039D01*
X89220048Y-70773959D01*
X89199568Y-70916411D01*
X89199568Y-70916415D01*
X89213613Y-71014107D01*
X89212442Y-71033762D01*
X89199500Y-71082063D01*
X89199500Y-74721937D01*
X89187531Y-74754025D01*
X89124627Y-74826623D01*
X89124624Y-74826626D01*
X89124623Y-74826626D01*
X89064833Y-74957545D01*
X89044353Y-75099997D01*
X55150500Y-75099997D01*
X55150500Y-72900000D01*
X67315111Y-72900000D01*
X67334631Y-73123121D01*
X67334632Y-73123127D01*
X67392596Y-73339450D01*
X67392598Y-73339455D01*
X67487251Y-73542443D01*
X67487258Y-73542455D01*
X67615713Y-73725905D01*
X67615719Y-73725912D01*
X67774087Y-73884280D01*
X67774094Y-73884286D01*
X67957544Y-74012741D01*
X67957556Y-74012748D01*
X68031437Y-74047199D01*
X68160542Y-74107401D01*
X68160548Y-74107402D01*
X68160549Y-74107403D01*
X68376872Y-74165367D01*
X68376876Y-74165367D01*
X68376881Y-74165369D01*
X68600000Y-74184889D01*
X68823119Y-74165369D01*
X68823125Y-74165367D01*
X68823127Y-74165367D01*
X68931288Y-74136385D01*
X69039458Y-74107401D01*
X69242445Y-74012747D01*
X69242446Y-74012746D01*
X69242455Y-74012741D01*
X69425905Y-73884286D01*
X69425911Y-73884282D01*
X69584282Y-73725911D01*
X69605770Y-73695222D01*
X69712741Y-73542455D01*
X69712748Y-73542443D01*
X69717098Y-73533114D01*
X69807401Y-73339458D01*
X69865369Y-73123119D01*
X69884889Y-72900000D01*
X69865369Y-72676881D01*
X69807401Y-72460542D01*
X69747198Y-72331438D01*
X69712748Y-72257557D01*
X69712741Y-72257545D01*
X69584286Y-72074094D01*
X69584280Y-72074087D01*
X69425912Y-71915719D01*
X69425905Y-71915713D01*
X69242455Y-71787258D01*
X69242443Y-71787251D01*
X69094679Y-71718348D01*
X69039458Y-71692599D01*
X69039455Y-71692598D01*
X69039450Y-71692596D01*
X68823127Y-71634632D01*
X68823121Y-71634631D01*
X68600000Y-71615111D01*
X68376878Y-71634631D01*
X68376872Y-71634632D01*
X68160549Y-71692596D01*
X68160544Y-71692598D01*
X67957557Y-71787251D01*
X67957545Y-71787258D01*
X67774094Y-71915713D01*
X67774087Y-71915719D01*
X67615719Y-72074087D01*
X67615713Y-72074094D01*
X67487258Y-72257545D01*
X67487251Y-72257557D01*
X67392598Y-72460544D01*
X67392596Y-72460549D01*
X67334632Y-72676872D01*
X67334631Y-72676878D01*
X67315111Y-72900000D01*
X55150500Y-72900000D01*
X55150500Y-68150000D01*
X67315111Y-68150000D01*
X67334631Y-68373121D01*
X67334632Y-68373127D01*
X67392596Y-68589450D01*
X67392598Y-68589455D01*
X67487251Y-68792443D01*
X67487258Y-68792455D01*
X67615713Y-68975905D01*
X67615719Y-68975912D01*
X67774087Y-69134280D01*
X67774094Y-69134286D01*
X67957544Y-69262741D01*
X67957556Y-69262748D01*
X68031437Y-69297199D01*
X68160542Y-69357401D01*
X68160548Y-69357402D01*
X68160549Y-69357403D01*
X68376872Y-69415367D01*
X68376876Y-69415367D01*
X68376881Y-69415369D01*
X68600000Y-69434889D01*
X68823119Y-69415369D01*
X68823125Y-69415367D01*
X68823127Y-69415367D01*
X68931288Y-69386385D01*
X69039458Y-69357401D01*
X69242445Y-69262747D01*
X69242446Y-69262746D01*
X69242455Y-69262741D01*
X69425905Y-69134286D01*
X69425911Y-69134282D01*
X69584282Y-68975911D01*
X69661365Y-68865826D01*
X69712741Y-68792455D01*
X69712748Y-68792443D01*
X69739919Y-68734174D01*
X69807401Y-68589458D01*
X69865369Y-68373119D01*
X69884889Y-68150000D01*
X69865369Y-67926881D01*
X69858746Y-67902165D01*
X115100000Y-67902165D01*
X115100000Y-68550000D01*
X116016988Y-68550000D01*
X115984075Y-68607007D01*
X115950000Y-68734174D01*
X115950000Y-68865826D01*
X115984075Y-68992993D01*
X116016988Y-69050000D01*
X115100000Y-69050000D01*
X115100000Y-69697834D01*
X115106401Y-69757372D01*
X115106401Y-69757373D01*
X115156648Y-69892091D01*
X115242811Y-70007188D01*
X115357908Y-70093351D01*
X115492626Y-70143598D01*
X115552166Y-70150000D01*
X116200000Y-70150000D01*
X116200000Y-69233012D01*
X116257007Y-69265925D01*
X116384174Y-69300000D01*
X116515826Y-69300000D01*
X116642993Y-69265925D01*
X116700000Y-69233012D01*
X116700000Y-70150000D01*
X117347834Y-70150000D01*
X117407372Y-70143598D01*
X117407373Y-70143598D01*
X117542091Y-70093351D01*
X117657188Y-70007188D01*
X117743351Y-69892091D01*
X117793598Y-69757373D01*
X117793598Y-69757372D01*
X117800000Y-69697834D01*
X117800000Y-69050000D01*
X116883012Y-69050000D01*
X116915925Y-68992993D01*
X116950000Y-68865826D01*
X116950000Y-68734174D01*
X116915925Y-68607007D01*
X116883012Y-68550000D01*
X117800000Y-68550000D01*
X117800000Y-67902165D01*
X117793598Y-67842627D01*
X117793598Y-67842626D01*
X117743351Y-67707908D01*
X117657188Y-67592811D01*
X117542091Y-67506648D01*
X117407373Y-67456401D01*
X117347834Y-67450000D01*
X116700000Y-67450000D01*
X116700000Y-68366988D01*
X116642993Y-68334075D01*
X116515826Y-68300000D01*
X116384174Y-68300000D01*
X116257007Y-68334075D01*
X116200000Y-68366988D01*
X116200000Y-67450000D01*
X115552166Y-67450000D01*
X115492627Y-67456401D01*
X115492626Y-67456401D01*
X115357908Y-67506648D01*
X115242811Y-67592811D01*
X115156648Y-67707908D01*
X115106401Y-67842626D01*
X115106401Y-67842627D01*
X115100000Y-67902165D01*
X69858746Y-67902165D01*
X69807403Y-67710549D01*
X69807402Y-67710548D01*
X69807401Y-67710542D01*
X69747198Y-67581438D01*
X69712748Y-67507557D01*
X69712741Y-67507545D01*
X69584286Y-67324094D01*
X69584280Y-67324087D01*
X69425912Y-67165719D01*
X69425905Y-67165713D01*
X69242455Y-67037258D01*
X69242443Y-67037251D01*
X69094679Y-66968348D01*
X69039458Y-66942599D01*
X69039455Y-66942598D01*
X69039450Y-66942596D01*
X68823127Y-66884632D01*
X68823121Y-66884631D01*
X68600000Y-66865111D01*
X68376878Y-66884631D01*
X68376872Y-66884632D01*
X68160549Y-66942596D01*
X68160544Y-66942598D01*
X67957557Y-67037251D01*
X67957545Y-67037258D01*
X67774094Y-67165713D01*
X67774087Y-67165719D01*
X67615719Y-67324087D01*
X67615713Y-67324094D01*
X67487258Y-67507545D01*
X67487251Y-67507557D01*
X67392598Y-67710544D01*
X67392596Y-67710549D01*
X67334632Y-67926872D01*
X67334631Y-67926878D01*
X67315111Y-68150000D01*
X55150500Y-68150000D01*
X55150500Y-66260000D01*
X115394417Y-66260000D01*
X115414700Y-66465934D01*
X115474768Y-66663954D01*
X115572315Y-66846450D01*
X115703590Y-67006410D01*
X115863550Y-67137685D01*
X116046046Y-67235232D01*
X116244066Y-67295300D01*
X116450000Y-67315583D01*
X116655934Y-67295300D01*
X116853954Y-67235232D01*
X117036450Y-67137685D01*
X117196410Y-67006410D01*
X117327685Y-66846450D01*
X117425232Y-66663954D01*
X117485300Y-66465934D01*
X117505583Y-66260000D01*
X117485300Y-66054066D01*
X117425232Y-65856046D01*
X117327685Y-65673550D01*
X117196410Y-65513590D01*
X117036450Y-65382315D01*
X116853954Y-65284768D01*
X116655934Y-65224700D01*
X116450000Y-65204417D01*
X116244065Y-65224700D01*
X116244064Y-65224700D01*
X116046043Y-65284769D01*
X115863548Y-65382316D01*
X115703590Y-65513590D01*
X115572316Y-65673548D01*
X115474769Y-65856043D01*
X115414700Y-66054064D01*
X115414700Y-66054065D01*
X115414700Y-66054066D01*
X115394417Y-66260000D01*
X55150500Y-66260000D01*
X55150500Y-63399999D01*
X67315111Y-63399999D01*
X67334631Y-63623120D01*
X67334632Y-63623126D01*
X67392596Y-63839449D01*
X67392598Y-63839454D01*
X67487251Y-64042442D01*
X67487258Y-64042454D01*
X67615713Y-64225904D01*
X67615719Y-64225911D01*
X67774087Y-64384279D01*
X67774094Y-64384285D01*
X67957544Y-64512740D01*
X67957556Y-64512747D01*
X68003156Y-64534010D01*
X68160542Y-64607400D01*
X68160548Y-64607401D01*
X68160549Y-64607402D01*
X68376872Y-64665366D01*
X68376876Y-64665366D01*
X68376881Y-64665368D01*
X68600000Y-64684888D01*
X68823119Y-64665368D01*
X68823125Y-64665366D01*
X68823127Y-64665366D01*
X69028120Y-64610438D01*
X69039458Y-64607400D01*
X69242445Y-64512746D01*
X69242446Y-64512745D01*
X69242455Y-64512740D01*
X69425905Y-64384285D01*
X69425911Y-64384281D01*
X69584282Y-64225910D01*
X69642371Y-64142951D01*
X69712741Y-64042454D01*
X69712748Y-64042442D01*
X69717098Y-64033113D01*
X69807401Y-63839457D01*
X69865369Y-63623118D01*
X69884889Y-63399999D01*
X69865369Y-63176880D01*
X69853758Y-63133548D01*
X69807403Y-62960548D01*
X69807402Y-62960547D01*
X69807401Y-62960541D01*
X69747198Y-62831437D01*
X69712748Y-62757556D01*
X69712741Y-62757544D01*
X69584286Y-62574093D01*
X69584280Y-62574086D01*
X69425912Y-62415718D01*
X69425905Y-62415712D01*
X69242455Y-62287257D01*
X69242443Y-62287250D01*
X69088141Y-62215299D01*
X69039458Y-62192598D01*
X69039455Y-62192597D01*
X69039450Y-62192595D01*
X68823127Y-62134631D01*
X68823121Y-62134630D01*
X68600000Y-62115110D01*
X68376878Y-62134630D01*
X68376872Y-62134631D01*
X68160549Y-62192595D01*
X68160544Y-62192597D01*
X67957557Y-62287250D01*
X67957545Y-62287257D01*
X67774094Y-62415712D01*
X67774087Y-62415718D01*
X67615719Y-62574086D01*
X67615713Y-62574093D01*
X67487258Y-62757544D01*
X67487251Y-62757556D01*
X67392598Y-62960543D01*
X67392596Y-62960548D01*
X67334632Y-63176871D01*
X67334631Y-63176877D01*
X67315111Y-63399999D01*
X55150500Y-63399999D01*
X55150500Y-61919052D01*
X77438300Y-61919052D01*
X77438300Y-63380948D01*
X77449933Y-63439431D01*
X77467682Y-63465995D01*
X77494247Y-63505752D01*
X77520812Y-63523501D01*
X77560569Y-63550067D01*
X77619052Y-63561700D01*
X77619055Y-63561700D01*
X79080945Y-63561700D01*
X79080948Y-63561700D01*
X79139431Y-63550067D01*
X79205752Y-63505752D01*
X79250067Y-63439431D01*
X79261700Y-63380948D01*
X79261700Y-61919052D01*
X79250067Y-61860569D01*
X79223501Y-61820812D01*
X79205752Y-61794247D01*
X79165995Y-61767682D01*
X79139431Y-61749933D01*
X79080948Y-61738300D01*
X77619052Y-61738300D01*
X77560569Y-61749933D01*
X77494247Y-61794247D01*
X77449933Y-61860569D01*
X77438300Y-61919052D01*
X55150500Y-61919052D01*
X55150500Y-61180000D01*
X115394417Y-61180000D01*
X115414700Y-61385934D01*
X115474768Y-61583954D01*
X115572315Y-61766450D01*
X115703590Y-61926410D01*
X115863550Y-62057685D01*
X116046046Y-62155232D01*
X116244066Y-62215300D01*
X116450000Y-62235583D01*
X116655934Y-62215300D01*
X116853954Y-62155232D01*
X117036450Y-62057685D01*
X117196410Y-61926410D01*
X117327685Y-61766450D01*
X117425232Y-61583954D01*
X117485300Y-61385934D01*
X117505583Y-61180000D01*
X117485300Y-60974066D01*
X117425232Y-60776046D01*
X117327685Y-60593550D01*
X117196410Y-60433590D01*
X117036450Y-60302315D01*
X116853954Y-60204768D01*
X116655934Y-60144700D01*
X116450000Y-60124417D01*
X116244065Y-60144700D01*
X116244064Y-60144700D01*
X116046043Y-60204769D01*
X115863548Y-60302316D01*
X115703590Y-60433590D01*
X115572316Y-60593548D01*
X115474769Y-60776043D01*
X115414700Y-60974064D01*
X115414700Y-60974065D01*
X115414700Y-60974066D01*
X115394417Y-61180000D01*
X55150500Y-61180000D01*
X55150500Y-57646200D01*
X77134173Y-57646200D01*
X77152644Y-57857328D01*
X77152645Y-57857334D01*
X77207493Y-58062029D01*
X77207495Y-58062034D01*
X77297061Y-58254112D01*
X77297069Y-58254124D01*
X77334731Y-58307912D01*
X77334733Y-58307912D01*
X77901982Y-57740662D01*
X77923958Y-57822673D01*
X77984149Y-57926927D01*
X78069273Y-58012051D01*
X78173527Y-58072242D01*
X78255535Y-58094216D01*
X77688286Y-58661464D01*
X77688286Y-58661467D01*
X77742075Y-58699131D01*
X77742087Y-58699138D01*
X77934165Y-58788704D01*
X77934170Y-58788706D01*
X78138865Y-58843554D01*
X78138871Y-58843555D01*
X78350000Y-58862026D01*
X78561128Y-58843555D01*
X78561134Y-58843554D01*
X78765829Y-58788706D01*
X78765834Y-58788704D01*
X78957905Y-58699140D01*
X78957921Y-58699131D01*
X79011712Y-58661467D01*
X79011712Y-58661464D01*
X78444463Y-58094216D01*
X78526473Y-58072242D01*
X78630727Y-58012051D01*
X78715851Y-57926927D01*
X78776042Y-57822673D01*
X78798016Y-57740663D01*
X79365264Y-58307912D01*
X79365267Y-58307912D01*
X79402931Y-58254121D01*
X79402940Y-58254105D01*
X79492504Y-58062034D01*
X79492506Y-58062029D01*
X79547354Y-57857334D01*
X79547355Y-57857328D01*
X79565826Y-57646200D01*
X79547355Y-57435071D01*
X79547354Y-57435065D01*
X79492506Y-57230370D01*
X79492505Y-57230365D01*
X79402938Y-57038290D01*
X79402937Y-57038288D01*
X79365265Y-56984486D01*
X78798016Y-57551735D01*
X78776042Y-57469727D01*
X78715851Y-57365473D01*
X78630727Y-57280349D01*
X78526473Y-57220158D01*
X78444462Y-57198182D01*
X79011712Y-56630933D01*
X79011712Y-56630931D01*
X78957924Y-56593269D01*
X78957912Y-56593261D01*
X78765834Y-56503695D01*
X78765829Y-56503693D01*
X78561134Y-56448845D01*
X78561128Y-56448844D01*
X78350000Y-56430373D01*
X78138871Y-56448844D01*
X78138865Y-56448845D01*
X77934170Y-56503693D01*
X77934165Y-56503694D01*
X77742090Y-56593261D01*
X77742082Y-56593265D01*
X77688286Y-56630931D01*
X77688286Y-56630933D01*
X78255536Y-57198183D01*
X78173527Y-57220158D01*
X78069273Y-57280349D01*
X77984149Y-57365473D01*
X77923958Y-57469727D01*
X77901983Y-57551736D01*
X77334733Y-56984486D01*
X77334731Y-56984486D01*
X77297065Y-57038282D01*
X77297061Y-57038290D01*
X77207494Y-57230365D01*
X77207493Y-57230370D01*
X77152645Y-57435065D01*
X77152644Y-57435071D01*
X77134173Y-57646200D01*
X55150500Y-57646200D01*
X55150500Y-54899500D01*
X55164852Y-54864852D01*
X55199500Y-54850500D01*
X121200500Y-54850500D01*
X121235148Y-54864852D01*
G37*
%TD.AperFunction*%
%TD*%
M02*
