M48
; DRILL file {KiCad 8.0.3-8.0.3-0~ubuntu24.04.1} date 2024-07-18T18:47:35-0400
; FORMAT={-:-/ absolute / inch / decimal}
; #@! TF.CreationDate,2024-07-18T18:47:35-04:00
; #@! TF.GenerationSoftware,Kicad,Pcbnew,8.0.3-8.0.3-0~ubuntu24.04.1
; #@! TF.FileFunction,Plated,1,4,PTH
FMAT,2
INCH
; #@! TA.AperFunction,Plated,PTH,ViaDrill
T1C0.0118
; #@! TA.AperFunction,Plated,PTH,ComponentDrill
T2C0.0315
; #@! TA.AperFunction,Plated,PTH,ComponentDrill
T3C0.0360
; #@! TA.AperFunction,Plated,PTH,ComponentDrill
T4C0.0394
; #@! TA.AperFunction,Plated,PTH,ComponentDrill
T5C0.0433
; #@! TA.AperFunction,Plated,PTH,ComponentDrill
T6C0.0650
%
G90
G05
T1
X3.0217Y-3.1201
X3.0846Y-3.1811
X3.1378Y-3.6614
X3.1437Y-3.1339
X3.1516Y-2.6142
X3.2441Y-2.6083
X3.2697Y-3.5925
X3.2854Y-2.6496
X3.3465Y-2.6496
X3.3543Y-2.8701
X3.378Y-3.6949
X3.4154Y-2.8819
X3.4587Y-3.2402
X3.4843Y-2.8819
X3.4921Y-2.6122
X3.5256Y-2.9567
X3.5317Y-2.792
X3.5335Y-3.5354
X3.6535Y-2.8091
X3.6535Y-3.5236
X3.6555Y-3.1693
X3.6988Y-2.811
X3.7362Y-3.7146
X3.7382Y-3.4518
X3.7717Y-3.1634
X3.8386Y-3.3711
X3.8386Y-3.4321
X3.8386Y-3.4636
X3.8406Y-3.4006
X3.8701Y-3.3691
X3.8701Y-3.4006
X3.8701Y-3.4321
X3.872Y-3.4636
X3.8878Y-3.6083
X3.9016Y-3.3691
X3.9016Y-3.4006
X3.9016Y-3.4321
X3.9016Y-3.4636
X3.9311Y-3.6043
X3.9311Y-3.3691
X3.9331Y-3.4006
X3.9331Y-3.4321
X3.9331Y-3.4636
X3.935Y-3.7264
X3.9783Y-3.1693
X4.0231Y-3.0015
X4.0295Y-3.7126
X4.0866Y-3.7165
X4.1516Y-3.7461
X4.1614Y-2.6378
X4.1634Y-2.7264
X4.1654Y-2.6772
X4.1673Y-2.7677
X4.1752Y-2.5984
X4.1791Y-3.7205
X4.2008Y-2.8091
X4.2028Y-2.9035
X4.2067Y-2.8602
X4.2362Y-3.3346
X4.2382Y-3.2736
X4.2815Y-3.6614
X4.3898Y-3.2244
X4.6043Y-3.3524
X4.6299Y-3.2638
X4.6496Y-3.4055
X4.6516Y-3.4941
X4.6614Y-3.2402
X4.6614Y-3.3012
X4.7087Y-2.6083
T3
X3.0846Y-2.2695
X3.0846Y-2.4665
T4
X3.0161Y-3.878
X3.1161Y-3.878
X3.2161Y-3.878
X3.3161Y-3.878
X3.4161Y-3.878
X4.5846Y-2.4087
X4.5846Y-2.5087
X4.5846Y-2.6087
X4.5846Y-2.7087
T5
X4.4256Y-3.8094
X4.5256Y-3.8094
T6
X2.7008Y-2.4961
X2.7008Y-2.6831
X2.7008Y-2.8701
T2
G00X2.498Y-3.3749
M15
G01X2.498Y-3.4615
M16
G05
G00X2.5688Y-3.6071
M15
G01X2.6554Y-3.6071
M16
G05
G00X2.7342Y-3.3749
M15
G01X2.7342Y-3.4615
M16
G05
M30
