%TF.GenerationSoftware,KiCad,Pcbnew,8.0.3-8.0.3-0~ubuntu24.04.1*%
%TF.CreationDate,2024-07-18T18:47:24-04:00*%
%TF.ProjectId,Power_Supply_Breakout,506f7765-725f-4537-9570-706c795f4272,rev?*%
%TF.SameCoordinates,Original*%
%TF.FileFunction,Copper,L1,Top*%
%TF.FilePolarity,Positive*%
%FSLAX46Y46*%
G04 Gerber Fmt 4.6, Leading zero omitted, Abs format (unit mm)*
G04 Created by KiCad (PCBNEW 8.0.3-8.0.3-0~ubuntu24.04.1) date 2024-07-18 18:47:24*
%MOMM*%
%LPD*%
G01*
G04 APERTURE LIST*
G04 Aperture macros list*
%AMRoundRect*
0 Rectangle with rounded corners*
0 $1 Rounding radius*
0 $2 $3 $4 $5 $6 $7 $8 $9 X,Y pos of 4 corners*
0 Add a 4 corners polygon primitive as box body*
4,1,4,$2,$3,$4,$5,$6,$7,$8,$9,$2,$3,0*
0 Add four circle primitives for the rounded corners*
1,1,$1+$1,$2,$3*
1,1,$1+$1,$4,$5*
1,1,$1+$1,$6,$7*
1,1,$1+$1,$8,$9*
0 Add four rect primitives between the rounded corners*
20,1,$1+$1,$2,$3,$4,$5,0*
20,1,$1+$1,$4,$5,$6,$7,0*
20,1,$1+$1,$6,$7,$8,$9,0*
20,1,$1+$1,$8,$9,$2,$3,0*%
G04 Aperture macros list end*
%TA.AperFunction,SMDPad,CuDef*%
%ADD10RoundRect,0.250000X-0.450000X0.350000X-0.450000X-0.350000X0.450000X-0.350000X0.450000X0.350000X0*%
%TD*%
%TA.AperFunction,SMDPad,CuDef*%
%ADD11RoundRect,0.250000X-0.475000X0.337500X-0.475000X-0.337500X0.475000X-0.337500X0.475000X0.337500X0*%
%TD*%
%TA.AperFunction,SMDPad,CuDef*%
%ADD12RoundRect,0.250000X0.475000X-0.337500X0.475000X0.337500X-0.475000X0.337500X-0.475000X-0.337500X0*%
%TD*%
%TA.AperFunction,SMDPad,CuDef*%
%ADD13RoundRect,0.250000X-0.350000X-0.450000X0.350000X-0.450000X0.350000X0.450000X-0.350000X0.450000X0*%
%TD*%
%TA.AperFunction,SMDPad,CuDef*%
%ADD14RoundRect,0.243750X-0.456250X0.243750X-0.456250X-0.243750X0.456250X-0.243750X0.456250X0.243750X0*%
%TD*%
%TA.AperFunction,SMDPad,CuDef*%
%ADD15RoundRect,0.250000X-0.337500X-0.475000X0.337500X-0.475000X0.337500X0.475000X-0.337500X0.475000X0*%
%TD*%
%TA.AperFunction,SMDPad,CuDef*%
%ADD16RoundRect,0.250000X0.337500X0.475000X-0.337500X0.475000X-0.337500X-0.475000X0.337500X-0.475000X0*%
%TD*%
%TA.AperFunction,SMDPad,CuDef*%
%ADD17R,5.700000X1.600000*%
%TD*%
%TA.AperFunction,ComponentPad*%
%ADD18O,1.800000X3.600000*%
%TD*%
%TA.AperFunction,ComponentPad*%
%ADD19O,3.600000X1.800000*%
%TD*%
%TA.AperFunction,SMDPad,CuDef*%
%ADD20RoundRect,0.250000X0.450000X-0.350000X0.450000X0.350000X-0.450000X0.350000X-0.450000X-0.350000X0*%
%TD*%
%TA.AperFunction,SMDPad,CuDef*%
%ADD21RoundRect,0.243750X0.456250X-0.243750X0.456250X0.243750X-0.456250X0.243750X-0.456250X-0.243750X0*%
%TD*%
%TA.AperFunction,SMDPad,CuDef*%
%ADD22RoundRect,0.243750X0.243750X0.456250X-0.243750X0.456250X-0.243750X-0.456250X0.243750X-0.456250X0*%
%TD*%
%TA.AperFunction,SMDPad,CuDef*%
%ADD23R,0.330200X1.219200*%
%TD*%
%TA.AperFunction,SMDPad,CuDef*%
%ADD24R,1.219200X0.330200*%
%TD*%
%TA.AperFunction,SMDPad,CuDef*%
%ADD25R,3.251200X3.251200*%
%TD*%
%TA.AperFunction,ComponentPad*%
%ADD26R,1.422400X1.422400*%
%TD*%
%TA.AperFunction,ComponentPad*%
%ADD27C,1.422400*%
%TD*%
%TA.AperFunction,SMDPad,CuDef*%
%ADD28R,0.431800X1.206500*%
%TD*%
%TA.AperFunction,SMDPad,CuDef*%
%ADD29R,0.609600X1.625600*%
%TD*%
%TA.AperFunction,SMDPad,CuDef*%
%ADD30R,1.625600X0.558800*%
%TD*%
%TA.AperFunction,ComponentPad*%
%ADD31C,2.159000*%
%TD*%
%TA.AperFunction,ComponentPad*%
%ADD32R,1.700000X1.700000*%
%TD*%
%TA.AperFunction,ComponentPad*%
%ADD33O,1.700000X1.700000*%
%TD*%
%TA.AperFunction,SMDPad,CuDef*%
%ADD34RoundRect,0.250001X-0.624999X0.462499X-0.624999X-0.462499X0.624999X-0.462499X0.624999X0.462499X0*%
%TD*%
%TA.AperFunction,SMDPad,CuDef*%
%ADD35RoundRect,0.250000X-0.412500X-0.650000X0.412500X-0.650000X0.412500X0.650000X-0.412500X0.650000X0*%
%TD*%
%TA.AperFunction,SMDPad,CuDef*%
%ADD36RoundRect,0.250000X0.350000X0.450000X-0.350000X0.450000X-0.350000X-0.450000X0.350000X-0.450000X0*%
%TD*%
%TA.AperFunction,ComponentPad*%
%ADD37R,1.650000X1.650000*%
%TD*%
%TA.AperFunction,ComponentPad*%
%ADD38C,1.650000*%
%TD*%
%TA.AperFunction,SMDPad,CuDef*%
%ADD39R,0.812800X0.228600*%
%TD*%
%TA.AperFunction,SMDPad,CuDef*%
%ADD40RoundRect,0.250000X0.650000X-0.412500X0.650000X0.412500X-0.650000X0.412500X-0.650000X-0.412500X0*%
%TD*%
%TA.AperFunction,ViaPad*%
%ADD41C,0.600000*%
%TD*%
%TA.AperFunction,Conductor*%
%ADD42C,1.000000*%
%TD*%
%TA.AperFunction,Conductor*%
%ADD43C,0.500000*%
%TD*%
%TA.AperFunction,Conductor*%
%ADD44C,0.200000*%
%TD*%
G04 APERTURE END LIST*
D10*
%TO.P,R10,1*%
%TO.N,Net-(U1-ILIM)*%
X97000000Y-92300000D03*
%TO.P,R10,2*%
%TO.N,GND*%
X97000000Y-94300000D03*
%TD*%
D11*
%TO.P,C4,1*%
%TO.N,Net-(U5-BST)*%
X91050000Y-71812500D03*
%TO.P,C4,2*%
%TO.N,Net-(U5-SW)*%
X91050000Y-73887500D03*
%TD*%
D12*
%TO.P,C9,1*%
%TO.N,+3V3*%
X105250000Y-77575000D03*
%TO.P,C9,2*%
%TO.N,GND*%
X105250000Y-75500000D03*
%TD*%
D13*
%TO.P,R4,1*%
%TO.N,Net-(U5-RT)*%
X86300000Y-68100000D03*
%TO.P,R4,2*%
%TO.N,GND*%
X88300000Y-68100000D03*
%TD*%
D10*
%TO.P,R7,1*%
%TO.N,Net-(D2-K)*%
X78250000Y-77400000D03*
%TO.P,R7,2*%
%TO.N,GND*%
X78250000Y-79400000D03*
%TD*%
%TO.P,R1,1*%
%TO.N,Net-(D1-K)*%
X104400000Y-63800000D03*
%TO.P,R1,2*%
%TO.N,GND*%
X104400000Y-65800000D03*
%TD*%
D14*
%TO.P,D1,1,K*%
%TO.N,Net-(D1-K)*%
X102050000Y-64000000D03*
%TO.P,D1,2,A*%
%TO.N,+3V3*%
X102050000Y-65875000D03*
%TD*%
D15*
%TO.P,C5,1*%
%TO.N,+3V3*%
X102112500Y-70050000D03*
%TO.P,C5,2*%
%TO.N,GND*%
X104187500Y-70050000D03*
%TD*%
D12*
%TO.P,C7,1*%
%TO.N,VCCQ*%
X114200000Y-77475000D03*
%TO.P,C7,2*%
%TO.N,GND*%
X114200000Y-75400000D03*
%TD*%
%TO.P,C3,1*%
%TO.N,+24V*%
X83800000Y-70987500D03*
%TO.P,C3,2*%
%TO.N,GND*%
X83800000Y-68912500D03*
%TD*%
D16*
%TO.P,C11,1*%
%TO.N,VCCQ*%
X116587500Y-79550000D03*
%TO.P,C11,2*%
%TO.N,GND*%
X114512500Y-79550000D03*
%TD*%
D17*
%TO.P,L1,1,1*%
%TO.N,Net-(U5-SW)*%
X97600000Y-72862500D03*
%TO.P,L1,2,2*%
%TO.N,+3V3*%
X97600000Y-68162500D03*
%TD*%
D18*
%TO.P,J1,1*%
%TO.N,Net-(SW1-B)*%
X69448000Y-86821550D03*
%TO.P,J1,2*%
%TO.N,GND*%
X63448000Y-86821550D03*
D19*
%TO.P,J1,3*%
X66348000Y-91621550D03*
%TD*%
D12*
%TO.P,C8,1*%
%TO.N,VCCQ*%
X116300000Y-77475000D03*
%TO.P,C8,2*%
%TO.N,GND*%
X116300000Y-75400000D03*
%TD*%
D20*
%TO.P,R6,1*%
%TO.N,+3V3*%
X111100000Y-68300000D03*
%TO.P,R6,2*%
%TO.N,/SCL*%
X111100000Y-66300000D03*
%TD*%
D21*
%TO.P,D4,1,K*%
%TO.N,TFLAG*%
X87900000Y-89600000D03*
%TO.P,D4,2,A*%
%TO.N,Net-(D4-A)*%
X87900000Y-87725000D03*
%TD*%
D10*
%TO.P,R13,1*%
%TO.N,+3V3*%
X82005000Y-83842500D03*
%TO.P,R13,2*%
%TO.N,Net-(D5-A)*%
X82005000Y-85842500D03*
%TD*%
D22*
%TO.P,D3,1,K*%
%TO.N,Net-(D3-K)*%
X87737500Y-74500000D03*
%TO.P,D3,2,A*%
%TO.N,Net-(D3-A)*%
X85862500Y-74500000D03*
%TD*%
D23*
%TO.P,U1,1,V+*%
%TO.N,+24V*%
X100000001Y-84400200D03*
%TO.P,U1,2,NC*%
%TO.N,unconnected-(U1-NC-Pad2)*%
X99350000Y-84400200D03*
%TO.P,U1,3,NC*%
%TO.N,unconnected-(U1-NC-Pad3)*%
X98700001Y-84400200D03*
%TO.P,U1,4,NC*%
%TO.N,unconnected-(U1-NC-Pad4)*%
X98050002Y-84400200D03*
%TO.P,U1,5,NC*%
%TO.N,unconnected-(U1-NC-Pad5)*%
X97400001Y-84400200D03*
D24*
%TO.P,U1,6,NC*%
%TO.N,unconnected-(U1-NC-Pad6)*%
X96325101Y-85475100D03*
%TO.P,U1,7,'-IN*%
%TO.N,Net-(U1-'-IN)*%
X96325101Y-86125101D03*
%TO.P,U1,8,GAIN_SET*%
%TO.N,Net-(U1-GAIN_SET)*%
X96325101Y-86775100D03*
%TO.P,U1,9,'+IN*%
%TO.N,Net-(U1-'+IN)*%
X96325101Y-87425099D03*
%TO.P,U1,10,NC*%
%TO.N,unconnected-(U1-NC-Pad10)*%
X96325101Y-88075100D03*
D23*
%TO.P,U1,11,EN*%
%TO.N,+24V*%
X97400001Y-89150000D03*
%TO.P,U1,12,ILIM*%
%TO.N,Net-(U1-ILIM)*%
X98050002Y-89150000D03*
%TO.P,U1,13,IFLAG*%
%TO.N,IFLAG*%
X98700001Y-89150000D03*
%TO.P,U1,14,TFLAG*%
%TO.N,TFLAG*%
X99350000Y-89150000D03*
%TO.P,U1,15,IQSET*%
%TO.N,GND*%
X100000001Y-89150000D03*
D24*
%TO.P,U1,16,GND*%
X101074901Y-88075100D03*
%TO.P,U1,17,GND*%
X101074901Y-87425099D03*
%TO.P,U1,18,VOUT*%
%TO.N,/OP_OUTPUT*%
X101074901Y-86775100D03*
%TO.P,U1,19,VOUT*%
X101074901Y-86125101D03*
%TO.P,U1,20,V+*%
%TO.N,+24V*%
X101074901Y-85475100D03*
D25*
%TO.P,U1,21,EPAD*%
%TO.N,GND*%
X98700001Y-86775100D03*
%TD*%
D10*
%TO.P,R14,1*%
%TO.N,+3V3*%
X76395000Y-83905000D03*
%TO.P,R14,2*%
%TO.N,Net-(D6-A)*%
X76395000Y-85905000D03*
%TD*%
D26*
%TO.P,C1,1*%
%TO.N,/24V_INPUT*%
X78350000Y-62650000D03*
D27*
%TO.P,C1,2*%
%TO.N,GND*%
X78350000Y-57646200D03*
%TD*%
D21*
%TO.P,D5,1,K*%
%TO.N,IFLAG*%
X81900000Y-89600000D03*
%TO.P,D5,2,A*%
%TO.N,Net-(D5-A)*%
X81900000Y-87725000D03*
%TD*%
D28*
%TO.P,U4,1,IN+*%
%TO.N,/OUTPUT*%
X107449987Y-90075100D03*
%TO.P,U4,2,IN-*%
%TO.N,/OP_OUTPUT*%
X106800001Y-90075100D03*
%TO.P,U4,3,GND*%
%TO.N,GND*%
X106150015Y-90075100D03*
%TO.P,U4,4,VS*%
%TO.N,+3V3*%
X105500029Y-90075100D03*
%TO.P,U4,5,SCL*%
%TO.N,/SCL*%
X105500029Y-92932600D03*
%TO.P,U4,6,SDA*%
%TO.N,/SDA*%
X106150015Y-92932600D03*
%TO.P,U4,7,A0*%
%TO.N,GND*%
X106800001Y-92932600D03*
%TO.P,U4,8,ALERT*%
%TO.N,ALERT*%
X107449987Y-92932600D03*
%TD*%
D10*
%TO.P,R5,1*%
%TO.N,+3V3*%
X111100000Y-61450000D03*
%TO.P,R5,2*%
%TO.N,/SDA*%
X111100000Y-63450000D03*
%TD*%
D11*
%TO.P,C13,1*%
%TO.N,+3V3*%
X103200001Y-90387600D03*
%TO.P,C13,2*%
%TO.N,GND*%
X103200001Y-92462600D03*
%TD*%
D29*
%TO.P,U2,1,VIN*%
%TO.N,+3V3*%
X109999998Y-77137500D03*
%TO.P,U2,2,VOUT*%
%TO.N,VCCQ*%
X111900000Y-77137500D03*
%TO.P,U2,3,GND*%
%TO.N,GND*%
X110949999Y-75137250D03*
%TD*%
D15*
%TO.P,C6,1*%
%TO.N,+3V3*%
X113412500Y-86350000D03*
%TO.P,C6,2*%
%TO.N,GND*%
X115487500Y-86350000D03*
%TD*%
D21*
%TO.P,D6,1,K*%
%TO.N,ALERT*%
X76450000Y-89650000D03*
%TO.P,D6,2,A*%
%TO.N,Net-(D6-A)*%
X76450000Y-87775000D03*
%TD*%
D30*
%TO.P,U3,1,VOUT*%
%TO.N,Net-(U1-'+IN)*%
X113600000Y-81900000D03*
%TO.P,U3,2,VSS*%
%TO.N,GND*%
X113600000Y-82850001D03*
%TO.P,U3,3,VDD*%
%TO.N,+3V3*%
X113600000Y-83800002D03*
%TO.P,U3,4,SDA*%
%TO.N,/SDA*%
X116292400Y-83800002D03*
%TO.P,U3,5,SCL*%
%TO.N,/SCL*%
X116292400Y-82850001D03*
%TO.P,U3,6,VREF*%
%TO.N,VCCQ*%
X116292400Y-81900000D03*
%TD*%
D15*
%TO.P,C12,1*%
%TO.N,+24V*%
X104025000Y-84650000D03*
%TO.P,C12,2*%
%TO.N,GND*%
X106100000Y-84650000D03*
%TD*%
D13*
%TO.P,R8,1*%
%TO.N,+24V*%
X80900000Y-74550000D03*
%TO.P,R8,2*%
%TO.N,Net-(D3-A)*%
X82900000Y-74550000D03*
%TD*%
D31*
%TO.P,SW1,1,A*%
%TO.N,/24V_INPUT*%
X68600000Y-63399999D03*
%TO.P,SW1,2,B*%
%TO.N,Net-(SW1-B)*%
X68600000Y-68150000D03*
%TO.P,SW1,3,C*%
%TO.N,unconnected-(SW1-C-Pad3)*%
X68600000Y-72900000D03*
%TD*%
D32*
%TO.P,J2,1,Pin_1*%
%TO.N,GND*%
X116450000Y-68800000D03*
D33*
%TO.P,J2,2,Pin_2*%
%TO.N,/SCL*%
X116450000Y-66260000D03*
%TO.P,J2,3,Pin_3*%
%TO.N,/SDA*%
X116450000Y-63720000D03*
%TO.P,J2,4,Pin_4*%
%TO.N,+3V3*%
X116450000Y-61180000D03*
%TD*%
D34*
%TO.P,F1,1*%
%TO.N,/24V_INPUT*%
X78300000Y-68312500D03*
%TO.P,F1,2*%
%TO.N,+24V*%
X78300000Y-71287500D03*
%TD*%
D35*
%TO.P,C16,1*%
%TO.N,+3V3*%
X113537500Y-88650000D03*
%TO.P,C16,2*%
%TO.N,GND*%
X116662500Y-88650000D03*
%TD*%
D36*
%TO.P,R2,1*%
%TO.N,+3V3*%
X93200000Y-67600000D03*
%TO.P,R2,2*%
%TO.N,Net-(U5-FB)*%
X91200000Y-67600000D03*
%TD*%
D32*
%TO.P,J4,1,Pin_1*%
%TO.N,+3V3*%
X76610000Y-98500000D03*
D33*
%TO.P,J4,2,Pin_2*%
%TO.N,ALERT*%
X79150000Y-98500000D03*
%TO.P,J4,3,Pin_3*%
%TO.N,IFLAG*%
X81690000Y-98500000D03*
%TO.P,J4,4,Pin_4*%
%TO.N,TFLAG*%
X84230000Y-98500000D03*
%TO.P,J4,5,Pin_5*%
%TO.N,GND*%
X86770000Y-98500000D03*
%TD*%
D10*
%TO.P,R11,1*%
%TO.N,+3V3*%
X87900000Y-83862500D03*
%TO.P,R11,2*%
%TO.N,Net-(D4-A)*%
X87900000Y-85862500D03*
%TD*%
D12*
%TO.P,C10,1*%
%TO.N,+3V3*%
X107650000Y-77625000D03*
%TO.P,C10,2*%
%TO.N,GND*%
X107650000Y-75550000D03*
%TD*%
D13*
%TO.P,R12,1*%
%TO.N,/OP_OUTPUT*%
X105575008Y-87403850D03*
%TO.P,R12,2*%
%TO.N,/OUTPUT*%
X107575008Y-87403850D03*
%TD*%
D37*
%TO.P,J3,1,Pin_1*%
%TO.N,/OUTPUT*%
X112410000Y-96760000D03*
D38*
%TO.P,J3,2,Pin_2*%
%TO.N,GND*%
X114950000Y-96760000D03*
%TD*%
D35*
%TO.P,C14,1*%
%TO.N,+3V3*%
X102187500Y-72600000D03*
%TO.P,C14,2*%
%TO.N,GND*%
X105312500Y-72600000D03*
%TD*%
D15*
%TO.P,C2,1*%
%TO.N,+3V3*%
X102112500Y-67950000D03*
%TO.P,C2,2*%
%TO.N,GND*%
X104187500Y-67950000D03*
%TD*%
D39*
%TO.P,U5,1,RT*%
%TO.N,Net-(U5-RT)*%
X86548200Y-70399622D03*
%TO.P,U5,2,EN*%
%TO.N,+24V*%
X86548200Y-70899748D03*
%TO.P,U5,3,VIN*%
X86548200Y-71399874D03*
%TO.P,U5,4,GND*%
%TO.N,GND*%
X86548200Y-71900000D03*
%TO.P,U5,5,SW*%
%TO.N,Net-(U5-SW)*%
X88250000Y-71900000D03*
%TO.P,U5,6,BST*%
%TO.N,Net-(U5-BST)*%
X88250000Y-71399874D03*
%TO.P,U5,7,PG*%
%TO.N,Net-(D3-K)*%
X88250000Y-70899748D03*
%TO.P,U5,8,FB*%
%TO.N,Net-(U5-FB)*%
X88250000Y-70399622D03*
%TD*%
D36*
%TO.P,R3,1*%
%TO.N,GND*%
X93200000Y-69700000D03*
%TO.P,R3,2*%
%TO.N,Net-(U5-FB)*%
X91200000Y-69700000D03*
%TD*%
D21*
%TO.P,D2,1,K*%
%TO.N,Net-(D2-K)*%
X78250000Y-75450000D03*
%TO.P,D2,2,A*%
%TO.N,+24V*%
X78250000Y-73575000D03*
%TD*%
D10*
%TO.P,R9,1*%
%TO.N,Net-(U1-'-IN)*%
X93550001Y-85875100D03*
%TO.P,R9,2*%
%TO.N,Net-(U1-GAIN_SET)*%
X93550001Y-87875100D03*
%TD*%
D40*
%TO.P,C15,1*%
%TO.N,+24V*%
X81150000Y-71162500D03*
%TO.P,C15,2*%
%TO.N,GND*%
X81150000Y-68037500D03*
%TD*%
D41*
%TO.N,GND*%
X99950000Y-94650000D03*
X98300001Y-85575100D03*
X106050000Y-66000000D03*
X105850000Y-70300000D03*
X101050000Y-80500000D03*
X106850000Y-72650000D03*
X79850000Y-79600000D03*
X105750000Y-69250000D03*
X99850001Y-85575100D03*
X93950000Y-71400000D03*
X97500001Y-87975100D03*
X85000000Y-67300000D03*
X105700000Y-67000000D03*
X88700000Y-66350000D03*
X99100001Y-87175100D03*
X99900001Y-87175100D03*
X97500001Y-85625100D03*
X97550001Y-86375100D03*
X86750000Y-73200000D03*
X102350000Y-94300000D03*
X88500000Y-73200000D03*
X118100000Y-86500000D03*
X107600000Y-84700000D03*
X106750000Y-73750000D03*
X99100001Y-86375100D03*
X92850000Y-80500000D03*
X95800000Y-80350000D03*
X106700000Y-71350000D03*
X98350001Y-87975100D03*
X92800000Y-71350000D03*
X99100001Y-87975100D03*
X98300001Y-87175100D03*
X85200000Y-72900000D03*
X105800000Y-68000000D03*
X99100001Y-85575100D03*
X107650000Y-83150000D03*
X99900001Y-86375100D03*
X76750000Y-79250000D03*
X78350000Y-80800000D03*
X94900000Y-94350000D03*
X80050000Y-66400000D03*
X116950000Y-85150000D03*
X98300001Y-86375100D03*
X97500001Y-87175100D03*
X83450000Y-67300000D03*
X92800000Y-89500000D03*
X103800000Y-94400000D03*
X82400000Y-66250000D03*
X99900001Y-87975100D03*
X118150000Y-88750000D03*
%TO.N,+3V3*%
X85800000Y-93850000D03*
X87850000Y-82300000D03*
X102187500Y-76237500D03*
%TO.N,Net-(D3-K)*%
X89550000Y-75100000D03*
X89705215Y-70916414D03*
%TO.N,TFLAG*%
X99850000Y-91550000D03*
X89750000Y-89800000D03*
%TO.N,IFLAG*%
X98750000Y-91650000D03*
X83050000Y-91250000D03*
%TO.N,/SDA*%
X118400000Y-82300000D03*
X118400000Y-83850000D03*
X106150000Y-94500000D03*
%TO.N,/SCL*%
X119600000Y-66250000D03*
X105450000Y-95150000D03*
X117600000Y-82900000D03*
%TO.N,Net-(U1-'+IN)*%
X94950001Y-87675100D03*
X111500000Y-81900000D03*
%TO.N,ALERT*%
X108750000Y-93000000D03*
X79700000Y-93000000D03*
%TD*%
D42*
%TO.N,/24V_INPUT*%
X72850000Y-62600000D02*
X72900000Y-62650000D01*
X78350000Y-62650000D02*
X78350000Y-68262500D01*
X72050001Y-63399999D02*
X72850000Y-62600000D01*
X72900000Y-62650000D02*
X78350000Y-62650000D01*
X68600000Y-63399999D02*
X72050001Y-63399999D01*
X78350000Y-68262500D02*
X78300000Y-68312500D01*
D43*
%TO.N,+3V3*%
X120000000Y-90650000D02*
X120000000Y-72750000D01*
D44*
X94100000Y-95900000D02*
X92050000Y-93850000D01*
X101250000Y-95000000D02*
X100350000Y-95900000D01*
X102012400Y-90387600D02*
X101250000Y-91150000D01*
D42*
X97237500Y-67800000D02*
X93400000Y-67800000D01*
D43*
X87900000Y-83862500D02*
X87900000Y-82350000D01*
X107600000Y-77575000D02*
X107650000Y-77625000D01*
D44*
X92050000Y-93850000D02*
X85800000Y-93850000D01*
D43*
X111100000Y-69950000D02*
X109999998Y-71050002D01*
X109512498Y-77625000D02*
X109999998Y-77137500D01*
D44*
X105187529Y-90387600D02*
X105500029Y-90075100D01*
D43*
X113537500Y-89837500D02*
X114850000Y-91150000D01*
D44*
X101250000Y-91150000D02*
X101250000Y-95000000D01*
X74245000Y-83905000D02*
X76395000Y-83905000D01*
X103200001Y-90387600D02*
X102012400Y-90387600D01*
X73650000Y-97050000D02*
X73650000Y-84500000D01*
D43*
X114250000Y-71500000D02*
X113050000Y-70300000D01*
X82005000Y-83842500D02*
X87880000Y-83842500D01*
D44*
X94550000Y-95900000D02*
X94100000Y-95900000D01*
D43*
X87880000Y-83842500D02*
X87900000Y-83862500D01*
X76395000Y-83905000D02*
X81942500Y-83905000D01*
X113412500Y-83987502D02*
X113600000Y-83800002D01*
D44*
X73650000Y-84500000D02*
X74245000Y-83905000D01*
D43*
X105250000Y-77575000D02*
X103525000Y-77575000D01*
X107650000Y-77625000D02*
X109512498Y-77625000D01*
D44*
X103200001Y-90387600D02*
X105187529Y-90387600D01*
D42*
X97812500Y-67950000D02*
X97600000Y-68162500D01*
D43*
X113050000Y-68850000D02*
X112500000Y-68300000D01*
D42*
X102112500Y-67950000D02*
X102112500Y-65937500D01*
D43*
X111100000Y-61450000D02*
X116180000Y-61450000D01*
X120000000Y-72750000D02*
X118750000Y-71500000D01*
X111100000Y-68300000D02*
X111100000Y-69950000D01*
D42*
X102187500Y-72600000D02*
X102187500Y-70125000D01*
D44*
X75100000Y-98500000D02*
X73650000Y-97050000D01*
D43*
X87900000Y-82350000D02*
X87850000Y-82300000D01*
X113050000Y-70300000D02*
X113050000Y-68850000D01*
X105250000Y-77575000D02*
X107600000Y-77575000D01*
D42*
X102187500Y-70125000D02*
X102112500Y-70050000D01*
D44*
X100350000Y-95900000D02*
X94550000Y-95900000D01*
D43*
X119500000Y-91150000D02*
X120000000Y-90650000D01*
X116180000Y-61450000D02*
X116450000Y-61180000D01*
X118750000Y-71500000D02*
X114250000Y-71500000D01*
X113537500Y-88650000D02*
X113537500Y-86475000D01*
D42*
X102112500Y-70050000D02*
X102112500Y-67950000D01*
D44*
X76610000Y-98500000D02*
X75100000Y-98500000D01*
D43*
X109200000Y-62150000D02*
X109200000Y-68150000D01*
D42*
X102112500Y-65937500D02*
X102050000Y-65875000D01*
D43*
X109999998Y-71050002D02*
X109999998Y-77137500D01*
X109200000Y-68150000D02*
X109350000Y-68300000D01*
X112500000Y-68300000D02*
X111100000Y-68300000D01*
X109350000Y-68300000D02*
X111100000Y-68300000D01*
X114850000Y-91150000D02*
X119500000Y-91150000D01*
X113537500Y-88650000D02*
X113537500Y-89837500D01*
X102187500Y-76237500D02*
X102187500Y-72600000D01*
X109900000Y-61450000D02*
X109200000Y-62150000D01*
X113412500Y-86350000D02*
X113412500Y-83987502D01*
D42*
X102112500Y-67950000D02*
X97812500Y-67950000D01*
X97600000Y-68162500D02*
X97237500Y-67800000D01*
D43*
X103525000Y-77575000D02*
X102187500Y-76237500D01*
X113537500Y-86475000D02*
X113412500Y-86350000D01*
X111100000Y-61450000D02*
X109900000Y-61450000D01*
D42*
X93400000Y-67800000D02*
X93200000Y-67600000D01*
D43*
X81942500Y-83905000D02*
X82005000Y-83842500D01*
D44*
%TO.N,+24V*%
X92100000Y-90450000D02*
X91250000Y-89600000D01*
D42*
X103962501Y-84825100D02*
X103962501Y-80962501D01*
D44*
X91250000Y-89600000D02*
X91250000Y-78900000D01*
D42*
X82900000Y-78900000D02*
X80900000Y-76900000D01*
X91250000Y-78900000D02*
X82900000Y-78900000D01*
X103962501Y-80962501D02*
X101900000Y-78900000D01*
X80900000Y-76900000D02*
X80900000Y-74550000D01*
D44*
X97050000Y-90450000D02*
X92100000Y-90450000D01*
X97400001Y-90099999D02*
X97050000Y-90450000D01*
D42*
X101900000Y-78900000D02*
X91250000Y-78900000D01*
D44*
X97400001Y-89150000D02*
X97400001Y-90099999D01*
%TO.N,Net-(U5-BST)*%
X88250000Y-71399874D02*
X89349874Y-71399874D01*
X89349874Y-71399874D02*
X89762500Y-71812500D01*
X89762500Y-71812500D02*
X91050000Y-71812500D01*
%TO.N,Net-(U5-SW)*%
X89400000Y-73500000D02*
X89787500Y-73887500D01*
X89000000Y-71900000D02*
X89400000Y-72300000D01*
X89400000Y-72300000D02*
X89400000Y-73500000D01*
X88250000Y-71900000D02*
X89000000Y-71900000D01*
D43*
X93237500Y-72862500D02*
X97600000Y-72862500D01*
X91050000Y-73887500D02*
X92212500Y-73887500D01*
X92212500Y-73887500D02*
X93237500Y-72862500D01*
D44*
X89787500Y-73887500D02*
X91050000Y-73887500D01*
D43*
%TO.N,Net-(D1-K)*%
X104200000Y-64000000D02*
X104400000Y-63800000D01*
X102050000Y-64000000D02*
X104200000Y-64000000D01*
D42*
%TO.N,Net-(D2-K)*%
X78250000Y-77400000D02*
X78250000Y-75450000D01*
D44*
%TO.N,Net-(D3-K)*%
X88266666Y-70916414D02*
X88250000Y-70899748D01*
X89705215Y-70916414D02*
X88266666Y-70916414D01*
X88500000Y-74500000D02*
X89100000Y-75100000D01*
X87737500Y-74500000D02*
X88500000Y-74500000D01*
X89100000Y-75100000D02*
X89550000Y-75100000D01*
D42*
%TO.N,Net-(D3-A)*%
X82950000Y-74500000D02*
X82900000Y-74550000D01*
X85862500Y-74500000D02*
X82950000Y-74500000D01*
%TO.N,Net-(SW1-B)*%
X73150000Y-79450000D02*
X73150000Y-70450000D01*
X69448000Y-83152000D02*
X73150000Y-79450000D01*
X69448000Y-86821550D02*
X69448000Y-83152000D01*
X73150000Y-70450000D02*
X70850000Y-68150000D01*
X70850000Y-68150000D02*
X68600000Y-68150000D01*
D44*
%TO.N,Net-(U5-FB)*%
X91200000Y-69700000D02*
X91200000Y-67600000D01*
X89400378Y-70399622D02*
X90100000Y-69700000D01*
X88250000Y-70399622D02*
X89400378Y-70399622D01*
X90100000Y-69700000D02*
X91200000Y-69700000D01*
%TO.N,Net-(U5-RT)*%
X86548200Y-70399622D02*
X86548200Y-68348200D01*
X86548200Y-68348200D02*
X86300000Y-68100000D01*
D43*
%TO.N,VCCQ*%
X116587500Y-81604900D02*
X116292400Y-81900000D01*
X114175000Y-77450000D02*
X114200000Y-77475000D01*
X116587500Y-79550000D02*
X116587500Y-81604900D01*
X111900000Y-77137500D02*
X112212500Y-77450000D01*
X112212500Y-77450000D02*
X114175000Y-77450000D01*
X114200000Y-77475000D02*
X116300000Y-77475000D01*
X116300000Y-79262500D02*
X116587500Y-79550000D01*
X116300000Y-77475000D02*
X116300000Y-79262500D01*
%TO.N,Net-(D4-A)*%
X87900000Y-87725000D02*
X87900000Y-85862500D01*
D44*
%TO.N,TFLAG*%
X88100000Y-89800000D02*
X87900000Y-89600000D01*
X87900000Y-89600000D02*
X85250000Y-89600000D01*
X99850000Y-91550000D02*
X99350000Y-91050000D01*
X99350000Y-91050000D02*
X99350000Y-89150000D01*
X84230000Y-90620000D02*
X84230000Y-98500000D01*
X89750000Y-89800000D02*
X88100000Y-89800000D01*
X85250000Y-89600000D02*
X84230000Y-90620000D01*
D43*
%TO.N,Net-(D5-A)*%
X81900000Y-87725000D02*
X81900000Y-85947500D01*
X81900000Y-85947500D02*
X82005000Y-85842500D01*
D44*
%TO.N,IFLAG*%
X83050000Y-90750000D02*
X81900000Y-89600000D01*
X81900000Y-89600000D02*
X81900000Y-98290000D01*
X81900000Y-98290000D02*
X81690000Y-98500000D01*
X83050000Y-91250000D02*
X83050000Y-90750000D01*
X98700001Y-91600001D02*
X98750000Y-91650000D01*
X98700001Y-89150000D02*
X98700001Y-91600001D01*
%TO.N,/SDA*%
X111370000Y-63720000D02*
X111100000Y-63450000D01*
X106150000Y-94500000D02*
X106150000Y-92932615D01*
X116450000Y-63720000D02*
X111370000Y-63720000D01*
X106150000Y-92932615D02*
X106150015Y-92932600D01*
X118400000Y-83850000D02*
X118400000Y-82300000D01*
X118350002Y-83800002D02*
X118400000Y-83850000D01*
X116292400Y-83800002D02*
X118350002Y-83800002D01*
%TO.N,/SCL*%
X117600000Y-82900000D02*
X116342399Y-82900000D01*
X119590000Y-66260000D02*
X116450000Y-66260000D01*
X116450000Y-66260000D02*
X111140000Y-66260000D01*
X105500029Y-95099971D02*
X105500029Y-92932600D01*
X116342399Y-82900000D02*
X116292400Y-82850001D01*
X105450000Y-95150000D02*
X105500029Y-95099971D01*
X119600000Y-66250000D02*
X119590000Y-66260000D01*
X111140000Y-66260000D02*
X111100000Y-66300000D01*
%TO.N,Net-(U1-GAIN_SET)*%
X95000001Y-86775100D02*
X96325101Y-86775100D01*
X93550001Y-87875100D02*
X93900001Y-87875100D01*
X93900001Y-87875100D02*
X95000001Y-86775100D01*
%TO.N,Net-(U1-'-IN)*%
X93800002Y-86125101D02*
X96325101Y-86125101D01*
X93550001Y-85875100D02*
X93800002Y-86125101D01*
%TO.N,Net-(U1-ILIM)*%
X97000000Y-92300000D02*
X98050000Y-91250000D01*
X98050000Y-91250000D02*
X98050000Y-89150002D01*
X98050000Y-89150002D02*
X98050002Y-89150000D01*
%TO.N,/OP_OUTPUT*%
X106800001Y-88925100D02*
X106800001Y-90075100D01*
X105575008Y-87700107D02*
X106800001Y-88925100D01*
X105575008Y-87403850D02*
X105575008Y-87700107D01*
D42*
%TO.N,/OUTPUT*%
X110500000Y-88500000D02*
X109403850Y-87403850D01*
X110500000Y-91350000D02*
X110500000Y-88500000D01*
X112410000Y-96760000D02*
X112410000Y-93260000D01*
D44*
X107575008Y-87403850D02*
X107449987Y-87528871D01*
D42*
X109403850Y-87403850D02*
X107575008Y-87403850D01*
D44*
X107449987Y-87528871D02*
X107449987Y-90075100D01*
D42*
X112410000Y-93260000D02*
X110500000Y-91350000D01*
D44*
%TO.N,Net-(U1-'+IN)*%
X96325101Y-87425099D02*
X95200002Y-87425099D01*
X95200002Y-87425099D02*
X94950001Y-87675100D01*
X111500000Y-81900000D02*
X113600000Y-81900000D01*
%TO.N,ALERT*%
X79150000Y-93550000D02*
X79150000Y-98500000D01*
X79700000Y-93000000D02*
X79150000Y-93550000D01*
X108682600Y-92932600D02*
X108750000Y-93000000D01*
X76450000Y-89650000D02*
X79700000Y-92900000D01*
X79700000Y-92900000D02*
X79700000Y-93000000D01*
X107449987Y-92932600D02*
X108682600Y-92932600D01*
D43*
%TO.N,Net-(D6-A)*%
X76450000Y-85960000D02*
X76395000Y-85905000D01*
X76450000Y-87775000D02*
X76450000Y-85960000D01*
%TD*%
%TA.AperFunction,Conductor*%
%TO.N,/OP_OUTPUT*%
G36*
X106336660Y-85939452D02*
G01*
X106351000Y-85973077D01*
X106358628Y-86339201D01*
X106398990Y-88276617D01*
X106385363Y-88311557D01*
X106351531Y-88326614D01*
X104801253Y-88375060D01*
X104798743Y-88375074D01*
X102348021Y-88326060D01*
X102313667Y-88311018D01*
X102300001Y-88277070D01*
X102300001Y-86975100D01*
X101733501Y-86975100D01*
X101698853Y-86960748D01*
X101685793Y-86929220D01*
X104975008Y-86929220D01*
X104975008Y-87878479D01*
X104989511Y-87951392D01*
X105044767Y-88034090D01*
X105127465Y-88089346D01*
X105200378Y-88103849D01*
X105200384Y-88103850D01*
X105949632Y-88103850D01*
X105949637Y-88103849D01*
X106022550Y-88089346D01*
X106105248Y-88034090D01*
X106160504Y-87951392D01*
X106175007Y-87878479D01*
X106175008Y-87878474D01*
X106175008Y-86929226D01*
X106175007Y-86929220D01*
X106160504Y-86856307D01*
X106105248Y-86773609D01*
X106022550Y-86718353D01*
X105949637Y-86703850D01*
X105200378Y-86703850D01*
X105127465Y-86718353D01*
X105044767Y-86773609D01*
X104989511Y-86856307D01*
X104975008Y-86929220D01*
X101685793Y-86929220D01*
X101684501Y-86926100D01*
X101684501Y-86610000D01*
X100575101Y-86610000D01*
X100540453Y-86595648D01*
X100526101Y-86561000D01*
X100526101Y-86339201D01*
X100540453Y-86304553D01*
X100575101Y-86290201D01*
X101684501Y-86290201D01*
X101684501Y-85974100D01*
X101698853Y-85939452D01*
X101733501Y-85925100D01*
X106302012Y-85925100D01*
X106336660Y-85939452D01*
G37*
%TD.AperFunction*%
%TD*%
%TA.AperFunction,Conductor*%
%TO.N,+24V*%
G36*
X81636140Y-70164352D02*
G01*
X81637152Y-70166761D01*
X81650300Y-70179865D01*
X81650301Y-70179867D01*
X81653535Y-70500000D01*
X80475370Y-70500000D01*
X80402457Y-70514503D01*
X80319759Y-70569759D01*
X80264503Y-70652457D01*
X80250000Y-70725370D01*
X80250000Y-71599629D01*
X80264503Y-71672542D01*
X80319759Y-71755240D01*
X80402457Y-71810496D01*
X80475370Y-71824999D01*
X80475376Y-71825000D01*
X81666919Y-71825000D01*
X81669700Y-72100356D01*
X81669700Y-72100357D01*
X81699998Y-75099802D01*
X81700000Y-75100297D01*
X81700000Y-75401000D01*
X81685648Y-75435648D01*
X81651000Y-75450000D01*
X80099000Y-75450000D01*
X80064352Y-75435648D01*
X80050000Y-75401000D01*
X80050000Y-74350000D01*
X80049999Y-74349999D01*
X77346963Y-74300853D01*
X77312582Y-74285874D01*
X77298868Y-74253041D01*
X77294587Y-74075370D01*
X80300000Y-74075370D01*
X80300000Y-75024629D01*
X80314503Y-75097542D01*
X80369759Y-75180240D01*
X80452457Y-75235496D01*
X80525370Y-75249999D01*
X80525376Y-75250000D01*
X81274624Y-75250000D01*
X81274629Y-75249999D01*
X81347542Y-75235496D01*
X81430240Y-75180240D01*
X81485496Y-75097542D01*
X81499999Y-75024629D01*
X81500000Y-75024624D01*
X81500000Y-74075376D01*
X81499999Y-74075370D01*
X81485496Y-74002457D01*
X81430240Y-73919759D01*
X81347542Y-73864503D01*
X81274629Y-73850000D01*
X80525370Y-73850000D01*
X80452457Y-73864503D01*
X80369759Y-73919759D01*
X80314503Y-74002457D01*
X80300000Y-74075370D01*
X77294587Y-74075370D01*
X77290837Y-73919759D01*
X77276078Y-73307239D01*
X77550000Y-73307239D01*
X77550000Y-73842750D01*
X77564143Y-73913856D01*
X77564144Y-73913858D01*
X77618015Y-73994484D01*
X77698644Y-74048357D01*
X77769742Y-74062499D01*
X78730250Y-74062499D01*
X78801356Y-74048356D01*
X78801358Y-74048355D01*
X78881984Y-73994484D01*
X78935857Y-73913855D01*
X78935857Y-73913854D01*
X78949999Y-73842760D01*
X78949999Y-73307249D01*
X78935856Y-73236143D01*
X78935855Y-73236141D01*
X78881984Y-73155515D01*
X78801355Y-73101642D01*
X78730257Y-73087500D01*
X77769749Y-73087500D01*
X77698643Y-73101643D01*
X77698641Y-73101644D01*
X77618015Y-73155515D01*
X77564142Y-73236144D01*
X77564142Y-73236145D01*
X77550000Y-73307239D01*
X77276078Y-73307239D01*
X77215672Y-70800380D01*
X77425000Y-70800380D01*
X77425000Y-71774619D01*
X77439505Y-71847545D01*
X77494759Y-71930240D01*
X77577454Y-71985494D01*
X77650380Y-71999999D01*
X78949619Y-71999999D01*
X79022545Y-71985494D01*
X79105240Y-71930240D01*
X79160494Y-71847545D01*
X79174999Y-71774619D01*
X79174999Y-70800380D01*
X79160494Y-70727454D01*
X79105240Y-70644759D01*
X79022545Y-70589505D01*
X78949619Y-70575000D01*
X77650380Y-70575000D01*
X77577454Y-70589505D01*
X77494759Y-70644759D01*
X77439505Y-70727454D01*
X77425000Y-70800380D01*
X77215672Y-70800380D01*
X77201209Y-70200179D01*
X77214722Y-70165196D01*
X77249015Y-70150014D01*
X77250195Y-70150000D01*
X81601492Y-70150000D01*
X81636140Y-70164352D01*
G37*
%TD.AperFunction*%
%TD*%
%TA.AperFunction,Conductor*%
%TO.N,+24V*%
G36*
X84641072Y-70199940D02*
G01*
X84658333Y-70203205D01*
X85950000Y-70700000D01*
X86047089Y-70700000D01*
X86058741Y-70702318D01*
X86058835Y-70701847D01*
X86063568Y-70702788D01*
X86063569Y-70702789D01*
X86107855Y-70711598D01*
X86139037Y-70732433D01*
X86146354Y-70769215D01*
X86141800Y-70777735D01*
X86141800Y-71014048D01*
X86951000Y-71014048D01*
X86985648Y-71028400D01*
X87000000Y-71063048D01*
X87000000Y-71236574D01*
X86985648Y-71271222D01*
X86951000Y-71285574D01*
X86141800Y-71285574D01*
X86141800Y-71526699D01*
X86147295Y-71539965D01*
X86132943Y-71574613D01*
X86107855Y-71588023D01*
X86058837Y-71597774D01*
X86058781Y-71597492D01*
X86046177Y-71600000D01*
X85900000Y-71600000D01*
X81669700Y-72100357D01*
X81669700Y-72100358D01*
X81250000Y-72150000D01*
X77250000Y-72150000D01*
X77216259Y-70800380D01*
X77425000Y-70800380D01*
X77425000Y-71774619D01*
X77439505Y-71847545D01*
X77494759Y-71930240D01*
X77577454Y-71985494D01*
X77650380Y-71999999D01*
X78949619Y-71999999D01*
X79022545Y-71985494D01*
X79105240Y-71930240D01*
X79160494Y-71847545D01*
X79174999Y-71774619D01*
X79174999Y-70800380D01*
X79160494Y-70727454D01*
X79159102Y-70725370D01*
X80250000Y-70725370D01*
X80250000Y-71599629D01*
X80264503Y-71672542D01*
X80319759Y-71755240D01*
X80402457Y-71810496D01*
X80475370Y-71824999D01*
X80475376Y-71825000D01*
X81824624Y-71825000D01*
X81824629Y-71824999D01*
X81897542Y-71810496D01*
X81980240Y-71755240D01*
X82035496Y-71672542D01*
X82049999Y-71599629D01*
X82050000Y-71599624D01*
X82050000Y-70725376D01*
X82049999Y-70725370D01*
X82035496Y-70652457D01*
X82017397Y-70625370D01*
X83075000Y-70625370D01*
X83075000Y-71349629D01*
X83089503Y-71422542D01*
X83144759Y-71505240D01*
X83227457Y-71560496D01*
X83300370Y-71574999D01*
X83300376Y-71575000D01*
X84299624Y-71575000D01*
X84299629Y-71574999D01*
X84372542Y-71560496D01*
X84455240Y-71505240D01*
X84510496Y-71422542D01*
X84524999Y-71349629D01*
X84525000Y-71349624D01*
X84525000Y-70625376D01*
X84524999Y-70625370D01*
X84510496Y-70552457D01*
X84455240Y-70469759D01*
X84372542Y-70414503D01*
X84299629Y-70400000D01*
X83300370Y-70400000D01*
X83227457Y-70414503D01*
X83144759Y-70469759D01*
X83089503Y-70552457D01*
X83075000Y-70625370D01*
X82017397Y-70625370D01*
X81980240Y-70569759D01*
X81897542Y-70514503D01*
X81824629Y-70500000D01*
X80475370Y-70500000D01*
X80402457Y-70514503D01*
X80319759Y-70569759D01*
X80264503Y-70652457D01*
X80250000Y-70725370D01*
X79159102Y-70725370D01*
X79105240Y-70644759D01*
X79022545Y-70589505D01*
X78949619Y-70575000D01*
X77650380Y-70575000D01*
X77577454Y-70589505D01*
X77494759Y-70644759D01*
X77439505Y-70727454D01*
X77425000Y-70800380D01*
X77216259Y-70800380D01*
X77201251Y-70200069D01*
X77214722Y-70165196D01*
X77248314Y-70150324D01*
X84641072Y-70199940D01*
G37*
%TD.AperFunction*%
%TD*%
%TA.AperFunction,Conductor*%
%TO.N,+24V*%
G36*
X104453274Y-83574061D02*
G01*
X104487593Y-83589179D01*
X104501169Y-83621825D01*
X104507824Y-83888081D01*
X104494342Y-83923077D01*
X104460063Y-83938290D01*
X104449280Y-83937363D01*
X104387129Y-83925000D01*
X103662870Y-83925000D01*
X103589957Y-83939503D01*
X103507259Y-83994759D01*
X103452003Y-84077457D01*
X103437500Y-84150370D01*
X103437500Y-85149629D01*
X103452003Y-85222542D01*
X103507259Y-85305240D01*
X103589957Y-85360496D01*
X103662870Y-85374999D01*
X103662876Y-85375000D01*
X104387124Y-85375000D01*
X104387129Y-85374999D01*
X104460043Y-85360496D01*
X104469260Y-85354337D01*
X104506042Y-85347019D01*
X104537225Y-85367854D01*
X104545469Y-85393853D01*
X104548760Y-85525484D01*
X104535278Y-85560480D01*
X104501000Y-85575694D01*
X104500373Y-85575705D01*
X101734099Y-85609440D01*
X101699278Y-85595512D01*
X101684505Y-85561042D01*
X101684501Y-85560444D01*
X101684501Y-85310000D01*
X100575101Y-85310000D01*
X100540453Y-85295648D01*
X100526101Y-85261000D01*
X100526101Y-85129755D01*
X100526101Y-85129752D01*
X100514468Y-85071269D01*
X100487902Y-85031512D01*
X100470153Y-85004947D01*
X100430396Y-84978382D01*
X100403832Y-84960633D01*
X100345349Y-84949000D01*
X100345346Y-84949000D01*
X100214101Y-84949000D01*
X100179453Y-84934648D01*
X100165101Y-84900000D01*
X100165101Y-83790600D01*
X99899001Y-83790600D01*
X99864353Y-83776248D01*
X99850001Y-83741600D01*
X99850001Y-83623089D01*
X99864353Y-83588441D01*
X99897978Y-83574100D01*
X102248944Y-83525122D01*
X102251035Y-83525122D01*
X104453274Y-83574061D01*
G37*
%TD.AperFunction*%
%TD*%
%TA.AperFunction,Conductor*%
%TO.N,GND*%
G36*
X101624195Y-79614852D02*
G01*
X103247649Y-81238306D01*
X103262001Y-81272954D01*
X103262001Y-83291935D01*
X103247649Y-83326583D01*
X103213001Y-83340935D01*
X103211912Y-83340923D01*
X102255596Y-83319672D01*
X102251237Y-83319624D01*
X102251035Y-83319622D01*
X102248944Y-83319622D01*
X102248910Y-83319622D01*
X102244659Y-83319666D01*
X99893710Y-83368643D01*
X99893694Y-83368645D01*
X99817359Y-83385073D01*
X99783739Y-83399411D01*
X99783732Y-83399415D01*
X99727420Y-83435209D01*
X99727418Y-83435211D01*
X99674497Y-83509795D01*
X99660145Y-83544442D01*
X99660141Y-83544456D01*
X99656178Y-83564381D01*
X99635343Y-83595563D01*
X99598560Y-83602879D01*
X99597544Y-83602571D01*
X99593331Y-83601733D01*
X99534848Y-83590100D01*
X99165152Y-83590100D01*
X99137688Y-83595563D01*
X99106667Y-83601733D01*
X99052222Y-83638112D01*
X99015440Y-83645428D01*
X98997777Y-83638112D01*
X98965709Y-83616685D01*
X98943332Y-83601733D01*
X98884849Y-83590100D01*
X98515153Y-83590100D01*
X98487689Y-83595563D01*
X98456668Y-83601733D01*
X98402223Y-83638112D01*
X98365441Y-83645428D01*
X98347778Y-83638112D01*
X98315710Y-83616685D01*
X98293333Y-83601733D01*
X98234850Y-83590100D01*
X97865154Y-83590100D01*
X97821291Y-83598824D01*
X97806670Y-83601733D01*
X97752224Y-83638113D01*
X97715441Y-83645429D01*
X97697778Y-83638113D01*
X97682999Y-83628238D01*
X97643332Y-83601733D01*
X97584849Y-83590100D01*
X97215153Y-83590100D01*
X97156670Y-83601733D01*
X97090348Y-83646047D01*
X97049851Y-83706656D01*
X97046034Y-83712369D01*
X97034401Y-83770852D01*
X97034401Y-83770855D01*
X97034401Y-84604643D01*
X97020049Y-84639291D01*
X96990640Y-84653362D01*
X96967028Y-84655901D01*
X96967027Y-84655901D01*
X96832309Y-84706148D01*
X96717212Y-84792311D01*
X96631049Y-84907408D01*
X96580802Y-85042126D01*
X96580801Y-85042128D01*
X96578264Y-85065737D01*
X96560291Y-85098653D01*
X96529545Y-85109500D01*
X95695753Y-85109500D01*
X95637270Y-85121133D01*
X95570948Y-85165447D01*
X95540979Y-85210300D01*
X95526634Y-85231769D01*
X95515001Y-85290252D01*
X95515001Y-85659948D01*
X95517120Y-85670600D01*
X95526634Y-85718431D01*
X95546644Y-85748378D01*
X95553960Y-85785161D01*
X95533125Y-85816343D01*
X95505902Y-85824601D01*
X94499501Y-85824601D01*
X94464853Y-85810249D01*
X94450501Y-85775601D01*
X94450501Y-85470843D01*
X94450500Y-85470824D01*
X94447647Y-85440401D01*
X94447647Y-85440400D01*
X94402796Y-85312223D01*
X94402792Y-85312214D01*
X94322151Y-85202949D01*
X94212886Y-85122308D01*
X94212877Y-85122304D01*
X94084699Y-85077453D01*
X94054276Y-85074600D01*
X94054267Y-85074600D01*
X93045735Y-85074600D01*
X93045725Y-85074600D01*
X93015302Y-85077453D01*
X93015301Y-85077453D01*
X92887124Y-85122304D01*
X92887115Y-85122308D01*
X92777850Y-85202949D01*
X92697209Y-85312214D01*
X92697205Y-85312223D01*
X92652354Y-85440400D01*
X92652354Y-85440401D01*
X92649501Y-85470824D01*
X92649501Y-86279375D01*
X92652354Y-86309798D01*
X92652354Y-86309799D01*
X92697205Y-86437976D01*
X92697209Y-86437985D01*
X92777850Y-86547250D01*
X92887115Y-86627891D01*
X92887118Y-86627892D01*
X92887119Y-86627893D01*
X92887121Y-86627893D01*
X92887124Y-86627895D01*
X92987449Y-86663000D01*
X93015302Y-86672746D01*
X93045735Y-86675600D01*
X93045745Y-86675600D01*
X94054257Y-86675600D01*
X94054267Y-86675600D01*
X94084700Y-86672746D01*
X94212883Y-86627893D01*
X94229956Y-86615293D01*
X94322151Y-86547250D01*
X94397243Y-86445504D01*
X94429365Y-86426148D01*
X94436668Y-86425601D01*
X94821481Y-86425601D01*
X94856129Y-86439953D01*
X94870481Y-86474601D01*
X94856129Y-86509249D01*
X94845980Y-86517037D01*
X94815493Y-86534637D01*
X94815487Y-86534642D01*
X94245720Y-87104408D01*
X94211072Y-87118760D01*
X94194888Y-87116010D01*
X94084697Y-87077453D01*
X94084699Y-87077453D01*
X94054276Y-87074600D01*
X94054267Y-87074600D01*
X93045735Y-87074600D01*
X93045725Y-87074600D01*
X93015302Y-87077453D01*
X93015301Y-87077453D01*
X92887124Y-87122304D01*
X92887115Y-87122308D01*
X92777850Y-87202949D01*
X92697209Y-87312214D01*
X92697205Y-87312223D01*
X92652354Y-87440400D01*
X92652354Y-87440401D01*
X92649501Y-87470824D01*
X92649501Y-88279375D01*
X92652354Y-88309798D01*
X92652354Y-88309799D01*
X92697205Y-88437976D01*
X92697209Y-88437985D01*
X92777850Y-88547250D01*
X92887115Y-88627891D01*
X92887118Y-88627892D01*
X92887119Y-88627893D01*
X92887121Y-88627893D01*
X92887124Y-88627895D01*
X92903400Y-88633590D01*
X93015302Y-88672746D01*
X93045735Y-88675600D01*
X93045745Y-88675600D01*
X94054257Y-88675600D01*
X94054267Y-88675600D01*
X94084700Y-88672746D01*
X94212883Y-88627893D01*
X94277003Y-88580571D01*
X94322151Y-88547250D01*
X94402792Y-88437985D01*
X94402792Y-88437984D01*
X94402794Y-88437982D01*
X94447647Y-88309799D01*
X94450501Y-88279366D01*
X94450501Y-87994305D01*
X94464853Y-87959657D01*
X94499501Y-87945305D01*
X94534149Y-87959657D01*
X94536533Y-87962217D01*
X94612063Y-88049384D01*
X94618873Y-88057243D01*
X94739948Y-88135053D01*
X94816786Y-88157614D01*
X94878035Y-88175599D01*
X94878038Y-88175599D01*
X94878040Y-88175600D01*
X94878041Y-88175600D01*
X95021961Y-88175600D01*
X95021962Y-88175600D01*
X95021964Y-88175599D01*
X95021966Y-88175599D01*
X95050720Y-88167156D01*
X95160054Y-88135053D01*
X95281129Y-88057243D01*
X95375378Y-87948473D01*
X95427573Y-87834182D01*
X95455020Y-87808628D01*
X95492499Y-87809967D01*
X95518055Y-87837415D01*
X95520203Y-87864097D01*
X95516370Y-87883366D01*
X95515001Y-87890252D01*
X95515001Y-88259948D01*
X95526634Y-88318431D01*
X95538661Y-88336430D01*
X95570948Y-88384752D01*
X95587555Y-88395848D01*
X95637270Y-88429067D01*
X95695753Y-88440700D01*
X95695756Y-88440700D01*
X96529545Y-88440700D01*
X96564193Y-88455052D01*
X96578264Y-88484463D01*
X96580801Y-88508071D01*
X96580802Y-88508073D01*
X96631049Y-88642791D01*
X96717212Y-88757888D01*
X96832309Y-88844051D01*
X96967027Y-88894298D01*
X96967029Y-88894299D01*
X96990638Y-88896837D01*
X97023554Y-88914810D01*
X97034401Y-88945556D01*
X97034401Y-89779348D01*
X97046034Y-89837831D01*
X97085443Y-89896810D01*
X97091243Y-89905490D01*
X97099501Y-89932713D01*
X97099501Y-89955232D01*
X97085149Y-89989880D01*
X96939881Y-90135148D01*
X96905233Y-90149500D01*
X92244767Y-90149500D01*
X92210119Y-90135148D01*
X91564852Y-89489881D01*
X91550500Y-89455233D01*
X91550500Y-79649500D01*
X91564852Y-79614852D01*
X91599500Y-79600500D01*
X101589547Y-79600500D01*
X101624195Y-79614852D01*
G37*
%TD.AperFunction*%
%TA.AperFunction,Conductor*%
G36*
X121235148Y-54864852D02*
G01*
X121249500Y-54899500D01*
X121249500Y-100800500D01*
X121235148Y-100835148D01*
X121200500Y-100849500D01*
X55199500Y-100849500D01*
X55164852Y-100835148D01*
X55150500Y-100800500D01*
X55150500Y-91371549D01*
X64070144Y-91371549D01*
X64070145Y-91371550D01*
X64932314Y-91371550D01*
X64927920Y-91375944D01*
X64875259Y-91467156D01*
X64848000Y-91568889D01*
X64848000Y-91674211D01*
X64875259Y-91775944D01*
X64927920Y-91867156D01*
X64932314Y-91871550D01*
X64070145Y-91871550D01*
X64082472Y-91949381D01*
X64082473Y-91949384D01*
X64150568Y-92158961D01*
X64250613Y-92355309D01*
X64380141Y-92533590D01*
X64380145Y-92533595D01*
X64535955Y-92689405D01*
X64535959Y-92689408D01*
X64714240Y-92818936D01*
X64910588Y-92918981D01*
X65120165Y-92987076D01*
X65120168Y-92987077D01*
X65337819Y-93021550D01*
X66098000Y-93021550D01*
X66098000Y-92021550D01*
X66598000Y-92021550D01*
X66598000Y-93021550D01*
X67358181Y-93021550D01*
X67575831Y-92987077D01*
X67575834Y-92987076D01*
X67785411Y-92918981D01*
X67981759Y-92818936D01*
X68160040Y-92689408D01*
X68160045Y-92689405D01*
X68315855Y-92533595D01*
X68315858Y-92533590D01*
X68445386Y-92355309D01*
X68545431Y-92158961D01*
X68613526Y-91949384D01*
X68613527Y-91949381D01*
X68625855Y-91871550D01*
X67763686Y-91871550D01*
X67768080Y-91867156D01*
X67820741Y-91775944D01*
X67848000Y-91674211D01*
X67848000Y-91568889D01*
X67820741Y-91467156D01*
X67768080Y-91375944D01*
X67763686Y-91371550D01*
X68625855Y-91371550D01*
X68625855Y-91371549D01*
X68613527Y-91293718D01*
X68613526Y-91293715D01*
X68545431Y-91084138D01*
X68445386Y-90887790D01*
X68315858Y-90709509D01*
X68315855Y-90709505D01*
X68160045Y-90553695D01*
X68160040Y-90553691D01*
X67981759Y-90424163D01*
X67785411Y-90324118D01*
X67575834Y-90256023D01*
X67575831Y-90256022D01*
X67358181Y-90221550D01*
X66598000Y-90221550D01*
X66598000Y-91221550D01*
X66098000Y-91221550D01*
X66098000Y-90221550D01*
X65337819Y-90221550D01*
X65120168Y-90256022D01*
X65120165Y-90256023D01*
X64910588Y-90324118D01*
X64714240Y-90424163D01*
X64535959Y-90553691D01*
X64380141Y-90709509D01*
X64250613Y-90887790D01*
X64150568Y-91084138D01*
X64082473Y-91293715D01*
X64082472Y-91293718D01*
X64070144Y-91371549D01*
X55150500Y-91371549D01*
X55150500Y-86715263D01*
X57697500Y-86715263D01*
X57697500Y-86927836D01*
X57730753Y-87137790D01*
X57730754Y-87137793D01*
X57796443Y-87339963D01*
X57892947Y-87529363D01*
X57892952Y-87529371D01*
X57951494Y-87609947D01*
X58003027Y-87680877D01*
X58017897Y-87701343D01*
X58017901Y-87701348D01*
X58168202Y-87851649D01*
X58168206Y-87851652D01*
X58168208Y-87851654D01*
X58245922Y-87908116D01*
X58340178Y-87976597D01*
X58340186Y-87976602D01*
X58527933Y-88072264D01*
X58529588Y-88073107D01*
X58731757Y-88138796D01*
X58941713Y-88172050D01*
X58941714Y-88172050D01*
X59154286Y-88172050D01*
X59154287Y-88172050D01*
X59364243Y-88138796D01*
X59566412Y-88073107D01*
X59755816Y-87976601D01*
X59927792Y-87851654D01*
X59927795Y-87851650D01*
X59927798Y-87851649D01*
X60078099Y-87701348D01*
X60078100Y-87701345D01*
X60078104Y-87701342D01*
X60203051Y-87529366D01*
X60299557Y-87339962D01*
X60365246Y-87137793D01*
X60398500Y-86927837D01*
X60398500Y-86715263D01*
X60365246Y-86505307D01*
X60299557Y-86303138D01*
X60203051Y-86113734D01*
X60078104Y-85941758D01*
X60078102Y-85941756D01*
X60078099Y-85941752D01*
X59947715Y-85811368D01*
X62048000Y-85811368D01*
X62048000Y-86571550D01*
X63048000Y-86571550D01*
X63048000Y-87071550D01*
X62048000Y-87071550D01*
X62048000Y-87831731D01*
X62082472Y-88049381D01*
X62082473Y-88049384D01*
X62150568Y-88258961D01*
X62250613Y-88455309D01*
X62380141Y-88633590D01*
X62380145Y-88633595D01*
X62535955Y-88789405D01*
X62535959Y-88789408D01*
X62714240Y-88918936D01*
X62910588Y-89018981D01*
X63120165Y-89087077D01*
X63197999Y-89099403D01*
X63198000Y-89099403D01*
X63198000Y-88237236D01*
X63202394Y-88241630D01*
X63293606Y-88294291D01*
X63395339Y-88321550D01*
X63500661Y-88321550D01*
X63602394Y-88294291D01*
X63693606Y-88241630D01*
X63698000Y-88237236D01*
X63698000Y-89099403D01*
X63775834Y-89087077D01*
X63985411Y-89018981D01*
X64181759Y-88918936D01*
X64360040Y-88789408D01*
X64360045Y-88789405D01*
X64515855Y-88633595D01*
X64515858Y-88633590D01*
X64645386Y-88455309D01*
X64745431Y-88258961D01*
X64813526Y-88049384D01*
X64813527Y-88049381D01*
X64848000Y-87831731D01*
X64848000Y-87071550D01*
X63848000Y-87071550D01*
X63848000Y-86571550D01*
X64848000Y-86571550D01*
X64848000Y-85811368D01*
X64813527Y-85593718D01*
X64813526Y-85593715D01*
X64745431Y-85384138D01*
X64645386Y-85187790D01*
X64515858Y-85009509D01*
X64515855Y-85009505D01*
X64360045Y-84853695D01*
X64360040Y-84853691D01*
X64181759Y-84724163D01*
X63985411Y-84624118D01*
X63775834Y-84556023D01*
X63775831Y-84556022D01*
X63698000Y-84543694D01*
X63698000Y-85405864D01*
X63693606Y-85401470D01*
X63602394Y-85348809D01*
X63500661Y-85321550D01*
X63395339Y-85321550D01*
X63293606Y-85348809D01*
X63202394Y-85401470D01*
X63198000Y-85405864D01*
X63198000Y-84543694D01*
X63197999Y-84543694D01*
X63120168Y-84556022D01*
X63120165Y-84556023D01*
X62910588Y-84624118D01*
X62714240Y-84724163D01*
X62535959Y-84853691D01*
X62380141Y-85009509D01*
X62250613Y-85187790D01*
X62150568Y-85384138D01*
X62082473Y-85593715D01*
X62082472Y-85593718D01*
X62048000Y-85811368D01*
X59947715Y-85811368D01*
X59927798Y-85791451D01*
X59927793Y-85791447D01*
X59926214Y-85790300D01*
X59850435Y-85735243D01*
X59755821Y-85666502D01*
X59755813Y-85666497D01*
X59566413Y-85569993D01*
X59364243Y-85504304D01*
X59364240Y-85504303D01*
X59185186Y-85475944D01*
X59154287Y-85471050D01*
X58941713Y-85471050D01*
X58910814Y-85475944D01*
X58731759Y-85504303D01*
X58731756Y-85504304D01*
X58529586Y-85569993D01*
X58340186Y-85666497D01*
X58340178Y-85666502D01*
X58168206Y-85791447D01*
X58017897Y-85941756D01*
X57892952Y-86113728D01*
X57892947Y-86113736D01*
X57796443Y-86303136D01*
X57730754Y-86505306D01*
X57730753Y-86505309D01*
X57697500Y-86715263D01*
X55150500Y-86715263D01*
X55150500Y-72900000D01*
X67315111Y-72900000D01*
X67334631Y-73123121D01*
X67334632Y-73123127D01*
X67392596Y-73339450D01*
X67392598Y-73339455D01*
X67392599Y-73339458D01*
X67409419Y-73375529D01*
X67487251Y-73542443D01*
X67487258Y-73542455D01*
X67615713Y-73725905D01*
X67615719Y-73725912D01*
X67774087Y-73884280D01*
X67774094Y-73884286D01*
X67957544Y-74012741D01*
X67957556Y-74012748D01*
X68028275Y-74045724D01*
X68160542Y-74107401D01*
X68160548Y-74107402D01*
X68160549Y-74107403D01*
X68376872Y-74165367D01*
X68376876Y-74165367D01*
X68376881Y-74165369D01*
X68600000Y-74184889D01*
X68823119Y-74165369D01*
X68823125Y-74165367D01*
X68823127Y-74165367D01*
X68962735Y-74127959D01*
X69039458Y-74107401D01*
X69242445Y-74012747D01*
X69242446Y-74012746D01*
X69242455Y-74012741D01*
X69395222Y-73905770D01*
X69425911Y-73884282D01*
X69584282Y-73725911D01*
X69635479Y-73652795D01*
X69712741Y-73542455D01*
X69712748Y-73542443D01*
X69717098Y-73533114D01*
X69807401Y-73339458D01*
X69858915Y-73147207D01*
X69865367Y-73123127D01*
X69865368Y-73123121D01*
X69865369Y-73123119D01*
X69884889Y-72900000D01*
X69865369Y-72676881D01*
X69844902Y-72600499D01*
X69807403Y-72460549D01*
X69807402Y-72460548D01*
X69807401Y-72460542D01*
X69745013Y-72326750D01*
X69712748Y-72257557D01*
X69712741Y-72257545D01*
X69584286Y-72074094D01*
X69584280Y-72074087D01*
X69425912Y-71915719D01*
X69425905Y-71915713D01*
X69242455Y-71787258D01*
X69242443Y-71787251D01*
X69061851Y-71703041D01*
X69039458Y-71692599D01*
X69039455Y-71692598D01*
X69039450Y-71692596D01*
X68823127Y-71634632D01*
X68823121Y-71634631D01*
X68600000Y-71615111D01*
X68376878Y-71634631D01*
X68376872Y-71634632D01*
X68160549Y-71692596D01*
X68160544Y-71692598D01*
X67957557Y-71787251D01*
X67957545Y-71787258D01*
X67774094Y-71915713D01*
X67774087Y-71915719D01*
X67615719Y-72074087D01*
X67615713Y-72074094D01*
X67487258Y-72257545D01*
X67487251Y-72257557D01*
X67392598Y-72460544D01*
X67392596Y-72460549D01*
X67334632Y-72676872D01*
X67334631Y-72676878D01*
X67315111Y-72900000D01*
X55150500Y-72900000D01*
X55150500Y-68150000D01*
X67315111Y-68150000D01*
X67334631Y-68373121D01*
X67334632Y-68373127D01*
X67392596Y-68589450D01*
X67392598Y-68589455D01*
X67392599Y-68589458D01*
X67400782Y-68607007D01*
X67487251Y-68792443D01*
X67487258Y-68792455D01*
X67615713Y-68975905D01*
X67615719Y-68975912D01*
X67774087Y-69134280D01*
X67774094Y-69134286D01*
X67957544Y-69262741D01*
X67957556Y-69262748D01*
X68031437Y-69297199D01*
X68160542Y-69357401D01*
X68160548Y-69357402D01*
X68160549Y-69357403D01*
X68376872Y-69415367D01*
X68376876Y-69415367D01*
X68376881Y-69415369D01*
X68600000Y-69434889D01*
X68823119Y-69415369D01*
X68823125Y-69415367D01*
X68823127Y-69415367D01*
X69021854Y-69362118D01*
X69039458Y-69357401D01*
X69242445Y-69262747D01*
X69242446Y-69262746D01*
X69242455Y-69262741D01*
X69401513Y-69151366D01*
X69425911Y-69134282D01*
X69584282Y-68975911D01*
X69657466Y-68871393D01*
X69689094Y-68851244D01*
X69697603Y-68850500D01*
X70539547Y-68850500D01*
X70574195Y-68864852D01*
X72435148Y-70725805D01*
X72449500Y-70760453D01*
X72449500Y-79139547D01*
X72435148Y-79174195D01*
X68903885Y-82705457D01*
X68827223Y-82820192D01*
X68774420Y-82947670D01*
X68774420Y-82947671D01*
X68774420Y-82947672D01*
X68751679Y-83062000D01*
X68751111Y-83064854D01*
X68747500Y-83083006D01*
X68747500Y-85045516D01*
X68733148Y-85080164D01*
X68731766Y-85081441D01*
X68608591Y-85204615D01*
X68506764Y-85344767D01*
X68428127Y-85499103D01*
X68374598Y-85663848D01*
X68374597Y-85663851D01*
X68347500Y-85834939D01*
X68347500Y-87808160D01*
X68374597Y-87979248D01*
X68374598Y-87979251D01*
X68428127Y-88143996D01*
X68506764Y-88298332D01*
X68506767Y-88298336D01*
X68506768Y-88298338D01*
X68608586Y-88438478D01*
X68608588Y-88438480D01*
X68608591Y-88438484D01*
X68731065Y-88560958D01*
X68731068Y-88560960D01*
X68731072Y-88560964D01*
X68871212Y-88662782D01*
X68871214Y-88662783D01*
X68871217Y-88662785D01*
X69010590Y-88733798D01*
X69025555Y-88741423D01*
X69190299Y-88794952D01*
X69361389Y-88822050D01*
X69361390Y-88822050D01*
X69534610Y-88822050D01*
X69534611Y-88822050D01*
X69705701Y-88794952D01*
X69870445Y-88741423D01*
X70024788Y-88662782D01*
X70164928Y-88560964D01*
X70287414Y-88438478D01*
X70389232Y-88298338D01*
X70467873Y-88143995D01*
X70521402Y-87979251D01*
X70548500Y-87808161D01*
X70548500Y-85834939D01*
X70521402Y-85663849D01*
X70467873Y-85499105D01*
X70456072Y-85475944D01*
X70389235Y-85344767D01*
X70389233Y-85344764D01*
X70389232Y-85344762D01*
X70287414Y-85204622D01*
X70287410Y-85204618D01*
X70287408Y-85204615D01*
X70163567Y-85080775D01*
X70164286Y-85080055D01*
X70148650Y-85049347D01*
X70148500Y-85045516D01*
X70148500Y-84460436D01*
X73349500Y-84460436D01*
X73349500Y-97089563D01*
X73369979Y-97165989D01*
X73369979Y-97165991D01*
X73393392Y-97206542D01*
X73409540Y-97234511D01*
X74915489Y-98740460D01*
X74984012Y-98780022D01*
X75044286Y-98796172D01*
X75060434Y-98800499D01*
X75060435Y-98800500D01*
X75060438Y-98800500D01*
X75510500Y-98800500D01*
X75545148Y-98814852D01*
X75559500Y-98849500D01*
X75559500Y-99369748D01*
X75571133Y-99428231D01*
X75588882Y-99454795D01*
X75615447Y-99494552D01*
X75642012Y-99512301D01*
X75681769Y-99538867D01*
X75740252Y-99550500D01*
X75740255Y-99550500D01*
X77479745Y-99550500D01*
X77479748Y-99550500D01*
X77538231Y-99538867D01*
X77604552Y-99494552D01*
X77648867Y-99428231D01*
X77660500Y-99369748D01*
X77660500Y-97630252D01*
X77648867Y-97571769D01*
X77617462Y-97524769D01*
X77604552Y-97505447D01*
X77564795Y-97478882D01*
X77538231Y-97461133D01*
X77479748Y-97449500D01*
X75740252Y-97449500D01*
X75681769Y-97461133D01*
X75615447Y-97505447D01*
X75574606Y-97566571D01*
X75571133Y-97571769D01*
X75559500Y-97630252D01*
X75559500Y-97630255D01*
X75559500Y-98150500D01*
X75545148Y-98185148D01*
X75510500Y-98199500D01*
X75244767Y-98199500D01*
X75210119Y-98185148D01*
X73964852Y-96939881D01*
X73950500Y-96905233D01*
X73950500Y-89352745D01*
X75549500Y-89352745D01*
X75549500Y-89947254D01*
X75549501Y-89947276D01*
X75551200Y-89965401D01*
X75552314Y-89977274D01*
X75585941Y-90073374D01*
X75596546Y-90103681D01*
X75676069Y-90211430D01*
X75749786Y-90265836D01*
X75783821Y-90290955D01*
X75910226Y-90335186D01*
X75940236Y-90338000D01*
X76692733Y-90338000D01*
X76727381Y-90352352D01*
X79199720Y-92824691D01*
X79214072Y-92859339D01*
X79213573Y-92866312D01*
X79194353Y-92999997D01*
X79194353Y-93000001D01*
X79201003Y-93046256D01*
X79191728Y-93082594D01*
X79187150Y-93087877D01*
X78965489Y-93309540D01*
X78909541Y-93365488D01*
X78909540Y-93365488D01*
X78869979Y-93434008D01*
X78869979Y-93434010D01*
X78849500Y-93510436D01*
X78849500Y-97457044D01*
X78835148Y-97491692D01*
X78814724Y-97503934D01*
X78746048Y-97524767D01*
X78746041Y-97524770D01*
X78563548Y-97622316D01*
X78403590Y-97753590D01*
X78272316Y-97913548D01*
X78174769Y-98096043D01*
X78114700Y-98294064D01*
X78114700Y-98294065D01*
X78114700Y-98294066D01*
X78094417Y-98500000D01*
X78114700Y-98705934D01*
X78174768Y-98903954D01*
X78272315Y-99086450D01*
X78403590Y-99246410D01*
X78563550Y-99377685D01*
X78746046Y-99475232D01*
X78944066Y-99535300D01*
X79150000Y-99555583D01*
X79355934Y-99535300D01*
X79553954Y-99475232D01*
X79736450Y-99377685D01*
X79896410Y-99246410D01*
X80027685Y-99086450D01*
X80125232Y-98903954D01*
X80185300Y-98705934D01*
X80205583Y-98500000D01*
X80634417Y-98500000D01*
X80654700Y-98705934D01*
X80714768Y-98903954D01*
X80812315Y-99086450D01*
X80943590Y-99246410D01*
X81103550Y-99377685D01*
X81286046Y-99475232D01*
X81484066Y-99535300D01*
X81690000Y-99555583D01*
X81895934Y-99535300D01*
X82093954Y-99475232D01*
X82276450Y-99377685D01*
X82436410Y-99246410D01*
X82567685Y-99086450D01*
X82665232Y-98903954D01*
X82725300Y-98705934D01*
X82745583Y-98500000D01*
X83174417Y-98500000D01*
X83194700Y-98705934D01*
X83254768Y-98903954D01*
X83352315Y-99086450D01*
X83483590Y-99246410D01*
X83643550Y-99377685D01*
X83826046Y-99475232D01*
X84024066Y-99535300D01*
X84230000Y-99555583D01*
X84435934Y-99535300D01*
X84633954Y-99475232D01*
X84816450Y-99377685D01*
X84976410Y-99246410D01*
X85107685Y-99086450D01*
X85205232Y-98903954D01*
X85265300Y-98705934D01*
X85285583Y-98500000D01*
X85265300Y-98294066D01*
X85251933Y-98249999D01*
X85439363Y-98249999D01*
X85439364Y-98250000D01*
X86336988Y-98250000D01*
X86304075Y-98307007D01*
X86270000Y-98434174D01*
X86270000Y-98565826D01*
X86304075Y-98692993D01*
X86336988Y-98750000D01*
X85439363Y-98750000D01*
X85496566Y-98963483D01*
X85496568Y-98963488D01*
X85596398Y-99177577D01*
X85596405Y-99177589D01*
X85731885Y-99371072D01*
X85731891Y-99371079D01*
X85898920Y-99538108D01*
X85898927Y-99538114D01*
X86092410Y-99673594D01*
X86092422Y-99673601D01*
X86306511Y-99773431D01*
X86306516Y-99773433D01*
X86520000Y-99830634D01*
X86520000Y-98933012D01*
X86577007Y-98965925D01*
X86704174Y-99000000D01*
X86835826Y-99000000D01*
X86962993Y-98965925D01*
X87020000Y-98933012D01*
X87020000Y-99830634D01*
X87233483Y-99773433D01*
X87233488Y-99773431D01*
X87447577Y-99673601D01*
X87447589Y-99673594D01*
X87641072Y-99538114D01*
X87641079Y-99538108D01*
X87808108Y-99371079D01*
X87808114Y-99371072D01*
X87913090Y-99221152D01*
X111609500Y-99221152D01*
X111609500Y-99378847D01*
X111640260Y-99533487D01*
X111640263Y-99533498D01*
X111700604Y-99679175D01*
X111700606Y-99679179D01*
X111788211Y-99810289D01*
X111899711Y-99921789D01*
X112030821Y-100009394D01*
X112176503Y-100069737D01*
X112176509Y-100069738D01*
X112176512Y-100069739D01*
X112331152Y-100100499D01*
X112331158Y-100100500D01*
X112488842Y-100100500D01*
X112643497Y-100069737D01*
X112789179Y-100009394D01*
X112920289Y-99921789D01*
X113031789Y-99810289D01*
X113119394Y-99679179D01*
X113179737Y-99533497D01*
X113210500Y-99378842D01*
X113210500Y-99221158D01*
X113210499Y-99221152D01*
X114149500Y-99221152D01*
X114149500Y-99378847D01*
X114180260Y-99533487D01*
X114180263Y-99533498D01*
X114240604Y-99679175D01*
X114240606Y-99679179D01*
X114328211Y-99810289D01*
X114439711Y-99921789D01*
X114570821Y-100009394D01*
X114716503Y-100069737D01*
X114716509Y-100069738D01*
X114716512Y-100069739D01*
X114871152Y-100100499D01*
X114871158Y-100100500D01*
X115028842Y-100100500D01*
X115183497Y-100069737D01*
X115329179Y-100009394D01*
X115460289Y-99921789D01*
X115571789Y-99810289D01*
X115659394Y-99679179D01*
X115719737Y-99533497D01*
X115750500Y-99378842D01*
X115750500Y-99221158D01*
X115719737Y-99066503D01*
X115659394Y-98920821D01*
X115571789Y-98789711D01*
X115460289Y-98678211D01*
X115329179Y-98590606D01*
X115329176Y-98590604D01*
X115329175Y-98590604D01*
X115183498Y-98530263D01*
X115183487Y-98530260D01*
X115028847Y-98499500D01*
X115028842Y-98499500D01*
X114871158Y-98499500D01*
X114871152Y-98499500D01*
X114716512Y-98530260D01*
X114716501Y-98530263D01*
X114570824Y-98590604D01*
X114439711Y-98678210D01*
X114328210Y-98789711D01*
X114240604Y-98920824D01*
X114180263Y-99066501D01*
X114180260Y-99066512D01*
X114149500Y-99221152D01*
X113210499Y-99221152D01*
X113179737Y-99066503D01*
X113119394Y-98920821D01*
X113031789Y-98789711D01*
X112920289Y-98678211D01*
X112789179Y-98590606D01*
X112789176Y-98590604D01*
X112789175Y-98590604D01*
X112643498Y-98530263D01*
X112643487Y-98530260D01*
X112488847Y-98499500D01*
X112488842Y-98499500D01*
X112331158Y-98499500D01*
X112331152Y-98499500D01*
X112176512Y-98530260D01*
X112176501Y-98530263D01*
X112030824Y-98590604D01*
X111899711Y-98678210D01*
X111788210Y-98789711D01*
X111700604Y-98920824D01*
X111640263Y-99066501D01*
X111640260Y-99066512D01*
X111609500Y-99221152D01*
X87913090Y-99221152D01*
X87943594Y-99177589D01*
X87943601Y-99177577D01*
X88043431Y-98963488D01*
X88043433Y-98963483D01*
X88100636Y-98750000D01*
X87203012Y-98750000D01*
X87235925Y-98692993D01*
X87270000Y-98565826D01*
X87270000Y-98434174D01*
X87235925Y-98307007D01*
X87203012Y-98250000D01*
X88100636Y-98250000D01*
X88100636Y-98249999D01*
X88043433Y-98036516D01*
X88043432Y-98036511D01*
X87943601Y-97822423D01*
X87943594Y-97822411D01*
X87808114Y-97628927D01*
X87808108Y-97628920D01*
X87641079Y-97461891D01*
X87641072Y-97461885D01*
X87447589Y-97326405D01*
X87447577Y-97326398D01*
X87233488Y-97226568D01*
X87233483Y-97226566D01*
X87020000Y-97169363D01*
X87020000Y-98066988D01*
X86962993Y-98034075D01*
X86835826Y-98000000D01*
X86704174Y-98000000D01*
X86577007Y-98034075D01*
X86520000Y-98066988D01*
X86520000Y-97169363D01*
X86519999Y-97169363D01*
X86306516Y-97226566D01*
X86306511Y-97226567D01*
X86092423Y-97326398D01*
X86092411Y-97326405D01*
X85898927Y-97461885D01*
X85898920Y-97461891D01*
X85731891Y-97628920D01*
X85731885Y-97628927D01*
X85596405Y-97822411D01*
X85596398Y-97822423D01*
X85496567Y-98036511D01*
X85496566Y-98036516D01*
X85439363Y-98249999D01*
X85251933Y-98249999D01*
X85205232Y-98096046D01*
X85107685Y-97913550D01*
X84976410Y-97753590D01*
X84816450Y-97622315D01*
X84633954Y-97524768D01*
X84633951Y-97524767D01*
X84565276Y-97503934D01*
X84536286Y-97480142D01*
X84530500Y-97457044D01*
X84530500Y-93849997D01*
X85294353Y-93849997D01*
X85294353Y-93850002D01*
X85314833Y-93992454D01*
X85331728Y-94029448D01*
X85374623Y-94123373D01*
X85374624Y-94123374D01*
X85374625Y-94123376D01*
X85464089Y-94226623D01*
X85468872Y-94232143D01*
X85589947Y-94309953D01*
X85666785Y-94332514D01*
X85728034Y-94350499D01*
X85728037Y-94350499D01*
X85728039Y-94350500D01*
X85728040Y-94350500D01*
X85871960Y-94350500D01*
X85871961Y-94350500D01*
X85871963Y-94350499D01*
X85871965Y-94350499D01*
X85894795Y-94343795D01*
X86010053Y-94309953D01*
X86131128Y-94232143D01*
X86187218Y-94167412D01*
X86220754Y-94150625D01*
X86224250Y-94150500D01*
X91905233Y-94150500D01*
X91939881Y-94164852D01*
X93859540Y-96084511D01*
X93915489Y-96140460D01*
X93984011Y-96180021D01*
X94019478Y-96189524D01*
X94060436Y-96200500D01*
X94060438Y-96200500D01*
X100389564Y-96200500D01*
X100416230Y-96193354D01*
X100465989Y-96180021D01*
X100534511Y-96140460D01*
X100590460Y-96084511D01*
X101490460Y-95184511D01*
X101510387Y-95149997D01*
X104944353Y-95149997D01*
X104944353Y-95150002D01*
X104964833Y-95292454D01*
X104983970Y-95334357D01*
X105024623Y-95423373D01*
X105024624Y-95423374D01*
X105024625Y-95423376D01*
X105099813Y-95510148D01*
X105118872Y-95532143D01*
X105239947Y-95609953D01*
X105316785Y-95632514D01*
X105378034Y-95650499D01*
X105378037Y-95650499D01*
X105378039Y-95650500D01*
X105378040Y-95650500D01*
X105521960Y-95650500D01*
X105521961Y-95650500D01*
X105521963Y-95650499D01*
X105521965Y-95650499D01*
X105544795Y-95643795D01*
X105660053Y-95609953D01*
X105781128Y-95532143D01*
X105875377Y-95423373D01*
X105935165Y-95292457D01*
X105935165Y-95292455D01*
X105935166Y-95292454D01*
X105955647Y-95150002D01*
X105955647Y-95149998D01*
X105950757Y-95115989D01*
X105938660Y-95031856D01*
X105947934Y-94995521D01*
X105980187Y-94976384D01*
X106000966Y-94977870D01*
X106078034Y-95000499D01*
X106078037Y-95000499D01*
X106078039Y-95000500D01*
X106078040Y-95000500D01*
X106221960Y-95000500D01*
X106221961Y-95000500D01*
X106221963Y-95000499D01*
X106221965Y-95000499D01*
X106244795Y-94993795D01*
X106360053Y-94959953D01*
X106481128Y-94882143D01*
X106575377Y-94773373D01*
X106635165Y-94642457D01*
X106635165Y-94642455D01*
X106635166Y-94642454D01*
X106655647Y-94500002D01*
X106655647Y-94499997D01*
X106635166Y-94357545D01*
X106613431Y-94309953D01*
X106575377Y-94226627D01*
X106524067Y-94167412D01*
X106478833Y-94115208D01*
X106480462Y-94113795D01*
X106466752Y-94086420D01*
X106478587Y-94050833D01*
X106512119Y-94034039D01*
X106520864Y-94034194D01*
X106536267Y-94035850D01*
X106584101Y-94035850D01*
X107015901Y-94035850D01*
X107063735Y-94035850D01*
X107123273Y-94029448D01*
X107123274Y-94029448D01*
X107257992Y-93979201D01*
X107373089Y-93893038D01*
X107459253Y-93777940D01*
X107462876Y-93768227D01*
X107488431Y-93740778D01*
X107508787Y-93736350D01*
X107685632Y-93736350D01*
X107685635Y-93736350D01*
X107744118Y-93724717D01*
X107810439Y-93680402D01*
X107854754Y-93614081D01*
X107866387Y-93555598D01*
X107866387Y-93282100D01*
X107880739Y-93247452D01*
X107915387Y-93233100D01*
X108274741Y-93233100D01*
X108309389Y-93247452D01*
X108319312Y-93261743D01*
X108322372Y-93268443D01*
X108324622Y-93273371D01*
X108324623Y-93273373D01*
X108397676Y-93357682D01*
X108418872Y-93382143D01*
X108539947Y-93459953D01*
X108616785Y-93482514D01*
X108678034Y-93500499D01*
X108678037Y-93500499D01*
X108678039Y-93500500D01*
X108678040Y-93500500D01*
X108821960Y-93500500D01*
X108821961Y-93500500D01*
X108821963Y-93500499D01*
X108821965Y-93500499D01*
X108844795Y-93493795D01*
X108960053Y-93459953D01*
X109081128Y-93382143D01*
X109175377Y-93273373D01*
X109235165Y-93142457D01*
X109235165Y-93142455D01*
X109235166Y-93142454D01*
X109255647Y-93000002D01*
X109255647Y-92999997D01*
X109235166Y-92857545D01*
X109220162Y-92824691D01*
X109175377Y-92726627D01*
X109156001Y-92704266D01*
X109081128Y-92617857D01*
X109080958Y-92617748D01*
X108960053Y-92540047D01*
X108960050Y-92540046D01*
X108821965Y-92499500D01*
X108821961Y-92499500D01*
X108678039Y-92499500D01*
X108678034Y-92499500D01*
X108539946Y-92540047D01*
X108418876Y-92617853D01*
X108416247Y-92620132D01*
X108384159Y-92632100D01*
X107915387Y-92632100D01*
X107880739Y-92617748D01*
X107866387Y-92583100D01*
X107866387Y-92309605D01*
X107866387Y-92309602D01*
X107854754Y-92251119D01*
X107828188Y-92211362D01*
X107810439Y-92184797D01*
X107759109Y-92150500D01*
X107744118Y-92140483D01*
X107685635Y-92128850D01*
X107508787Y-92128850D01*
X107474139Y-92114498D01*
X107462876Y-92096973D01*
X107459253Y-92087259D01*
X107373089Y-91972161D01*
X107257992Y-91885998D01*
X107123274Y-91835751D01*
X107063735Y-91829350D01*
X107015901Y-91829350D01*
X107015901Y-94035850D01*
X106584101Y-94035850D01*
X106584101Y-91829350D01*
X106536267Y-91829350D01*
X106476728Y-91835751D01*
X106476727Y-91835751D01*
X106342009Y-91885998D01*
X106226912Y-91972161D01*
X106140748Y-92087259D01*
X106137126Y-92096973D01*
X106111571Y-92124422D01*
X106091215Y-92128850D01*
X105914367Y-92128850D01*
X105870504Y-92137574D01*
X105855883Y-92140483D01*
X105852242Y-92142916D01*
X105815459Y-92150230D01*
X105797802Y-92142916D01*
X105794160Y-92140483D01*
X105735677Y-92128850D01*
X105264381Y-92128850D01*
X105205898Y-92140483D01*
X105139576Y-92184797D01*
X105095262Y-92251119D01*
X105083629Y-92309602D01*
X105083629Y-93555598D01*
X105095262Y-93614081D01*
X105106485Y-93630877D01*
X105139576Y-93680402D01*
X105177752Y-93705910D01*
X105198587Y-93737092D01*
X105199529Y-93746652D01*
X105199529Y-94689266D01*
X105185177Y-94723914D01*
X105177022Y-94730486D01*
X105155637Y-94744229D01*
X105118871Y-94767857D01*
X105024625Y-94876623D01*
X105024624Y-94876625D01*
X104964833Y-95007545D01*
X104944353Y-95149997D01*
X101510387Y-95149997D01*
X101516428Y-95139533D01*
X101530021Y-95115989D01*
X101550500Y-95039562D01*
X101550500Y-92850080D01*
X101975002Y-92850080D01*
X101985494Y-92952793D01*
X102040643Y-93119222D01*
X102132683Y-93268443D01*
X102256657Y-93392417D01*
X102405878Y-93484457D01*
X102572307Y-93539606D01*
X102675019Y-93550099D01*
X102950000Y-93550099D01*
X103450001Y-93550099D01*
X103724981Y-93550099D01*
X103827694Y-93539606D01*
X103994123Y-93484457D01*
X104143344Y-93392417D01*
X104267318Y-93268443D01*
X104359358Y-93119222D01*
X104414507Y-92952793D01*
X104425001Y-92850081D01*
X104425001Y-92712600D01*
X103450001Y-92712600D01*
X103450001Y-93550099D01*
X102950000Y-93550099D01*
X102950001Y-93550098D01*
X102950001Y-92712600D01*
X101975002Y-92712600D01*
X101975002Y-92850080D01*
X101550500Y-92850080D01*
X101550500Y-92075118D01*
X101975001Y-92075118D01*
X101975001Y-92212600D01*
X102950001Y-92212600D01*
X103450001Y-92212600D01*
X104425000Y-92212600D01*
X104425000Y-92075119D01*
X104414507Y-91972406D01*
X104359358Y-91805977D01*
X104267318Y-91656756D01*
X104143344Y-91532782D01*
X103994123Y-91440742D01*
X103827694Y-91385593D01*
X103724982Y-91375100D01*
X103450001Y-91375100D01*
X103450001Y-92212600D01*
X102950001Y-92212600D01*
X102950001Y-91375100D01*
X102675020Y-91375100D01*
X102572307Y-91385593D01*
X102405878Y-91440742D01*
X102256657Y-91532782D01*
X102132683Y-91656756D01*
X102040643Y-91805977D01*
X101985494Y-91972406D01*
X101975001Y-92075118D01*
X101550500Y-92075118D01*
X101550500Y-91294767D01*
X101564852Y-91260119D01*
X102122519Y-90702452D01*
X102157167Y-90688100D01*
X102225501Y-90688100D01*
X102260149Y-90702452D01*
X102274501Y-90737100D01*
X102274501Y-90779375D01*
X102277354Y-90809798D01*
X102277354Y-90809799D01*
X102322205Y-90937976D01*
X102322209Y-90937985D01*
X102402850Y-91047250D01*
X102512115Y-91127891D01*
X102512118Y-91127892D01*
X102512119Y-91127893D01*
X102512121Y-91127893D01*
X102512124Y-91127895D01*
X102626330Y-91167857D01*
X102640302Y-91172746D01*
X102670735Y-91175600D01*
X102670745Y-91175600D01*
X103729257Y-91175600D01*
X103729267Y-91175600D01*
X103759700Y-91172746D01*
X103887883Y-91127893D01*
X103915457Y-91107543D01*
X103997151Y-91047250D01*
X104077792Y-90937985D01*
X104077792Y-90937984D01*
X104077794Y-90937982D01*
X104122647Y-90809799D01*
X104125501Y-90779366D01*
X104125501Y-90737100D01*
X104139853Y-90702452D01*
X104174501Y-90688100D01*
X105041427Y-90688100D01*
X105076075Y-90702452D01*
X105089485Y-90727541D01*
X105095260Y-90756578D01*
X105139576Y-90822902D01*
X105152938Y-90831830D01*
X105205898Y-90867217D01*
X105264381Y-90878850D01*
X105264384Y-90878850D01*
X105441229Y-90878850D01*
X105475877Y-90893202D01*
X105487140Y-90910727D01*
X105490762Y-90920440D01*
X105576926Y-91035538D01*
X105692023Y-91121701D01*
X105826741Y-91171948D01*
X105886281Y-91178350D01*
X105934115Y-91178350D01*
X105934115Y-88971850D01*
X105886281Y-88971850D01*
X105826742Y-88978251D01*
X105826741Y-88978251D01*
X105692023Y-89028498D01*
X105576926Y-89114661D01*
X105490762Y-89229759D01*
X105487140Y-89239473D01*
X105461585Y-89266922D01*
X105441229Y-89271350D01*
X105264381Y-89271350D01*
X105205898Y-89282983D01*
X105139576Y-89327297D01*
X105101223Y-89384698D01*
X105095262Y-89393619D01*
X105083629Y-89452102D01*
X105083629Y-89452105D01*
X105083629Y-90038100D01*
X105069277Y-90072748D01*
X105034629Y-90087100D01*
X104174501Y-90087100D01*
X104139853Y-90072748D01*
X104125501Y-90038100D01*
X104125501Y-89995843D01*
X104125500Y-89995824D01*
X104122647Y-89965401D01*
X104122647Y-89965400D01*
X104077796Y-89837223D01*
X104077792Y-89837214D01*
X103997151Y-89727949D01*
X103887886Y-89647308D01*
X103887877Y-89647304D01*
X103759699Y-89602453D01*
X103729276Y-89599600D01*
X103729267Y-89599600D01*
X102670735Y-89599600D01*
X102670725Y-89599600D01*
X102640302Y-89602453D01*
X102640301Y-89602453D01*
X102512124Y-89647304D01*
X102512115Y-89647308D01*
X102402850Y-89727949D01*
X102322209Y-89837214D01*
X102322205Y-89837223D01*
X102277354Y-89965400D01*
X102277354Y-89965401D01*
X102274501Y-89995824D01*
X102274501Y-90038100D01*
X102260149Y-90072748D01*
X102225501Y-90087100D01*
X101972836Y-90087100D01*
X101896410Y-90107579D01*
X101896408Y-90107579D01*
X101860954Y-90128050D01*
X101827888Y-90147140D01*
X101827888Y-90147141D01*
X101009541Y-90965488D01*
X101009540Y-90965488D01*
X100969979Y-91034008D01*
X100969979Y-91034010D01*
X100949500Y-91110436D01*
X100949500Y-94855233D01*
X100935148Y-94889881D01*
X100239881Y-95585148D01*
X100205233Y-95599500D01*
X94244767Y-95599500D01*
X94210119Y-95585148D01*
X93324951Y-94699980D01*
X95800001Y-94699980D01*
X95810493Y-94802693D01*
X95865642Y-94969122D01*
X95957682Y-95118343D01*
X96081656Y-95242317D01*
X96230877Y-95334357D01*
X96397306Y-95389506D01*
X96500018Y-95399999D01*
X96749999Y-95399999D01*
X97250000Y-95399999D01*
X97499980Y-95399999D01*
X97602693Y-95389506D01*
X97769122Y-95334357D01*
X97918343Y-95242317D01*
X98042317Y-95118343D01*
X98134357Y-94969122D01*
X98189506Y-94802693D01*
X98200000Y-94699981D01*
X98200000Y-94550000D01*
X97250000Y-94550000D01*
X97250000Y-95399999D01*
X96749999Y-95399999D01*
X96750000Y-95399998D01*
X96750000Y-94550000D01*
X95800001Y-94550000D01*
X95800001Y-94699980D01*
X93324951Y-94699980D01*
X92524989Y-93900018D01*
X95800000Y-93900018D01*
X95800000Y-94050000D01*
X96750000Y-94050000D01*
X97250000Y-94050000D01*
X98199999Y-94050000D01*
X98199999Y-93900019D01*
X98189506Y-93797306D01*
X98134357Y-93630877D01*
X98042317Y-93481656D01*
X97918343Y-93357682D01*
X97769122Y-93265642D01*
X97602693Y-93210493D01*
X97499981Y-93200000D01*
X97250000Y-93200000D01*
X97250000Y-94050000D01*
X96750000Y-94050000D01*
X96750000Y-93200000D01*
X96500019Y-93200000D01*
X96397306Y-93210493D01*
X96230877Y-93265642D01*
X96081656Y-93357682D01*
X95957682Y-93481656D01*
X95865642Y-93630877D01*
X95810493Y-93797306D01*
X95800000Y-93900018D01*
X92524989Y-93900018D01*
X92234513Y-93609542D01*
X92234507Y-93609537D01*
X92215460Y-93598541D01*
X92203803Y-93591811D01*
X92165991Y-93569979D01*
X92165987Y-93569978D01*
X92089564Y-93549500D01*
X92089562Y-93549500D01*
X86224250Y-93549500D01*
X86189602Y-93535148D01*
X86187218Y-93532588D01*
X86131128Y-93467857D01*
X86078462Y-93434011D01*
X86010053Y-93390047D01*
X86010050Y-93390046D01*
X85871965Y-93349500D01*
X85871961Y-93349500D01*
X85728039Y-93349500D01*
X85728034Y-93349500D01*
X85589949Y-93390046D01*
X85589947Y-93390046D01*
X85589947Y-93390047D01*
X85552722Y-93413969D01*
X85468871Y-93467857D01*
X85374625Y-93576623D01*
X85374624Y-93576625D01*
X85314833Y-93707545D01*
X85294353Y-93849997D01*
X84530500Y-93849997D01*
X84530500Y-90764767D01*
X84544852Y-90730119D01*
X85360119Y-89914852D01*
X85394767Y-89900500D01*
X86958178Y-89900500D01*
X86992826Y-89914852D01*
X87004428Y-89933316D01*
X87046545Y-90053679D01*
X87046546Y-90053681D01*
X87046545Y-90053681D01*
X87126069Y-90161430D01*
X87233818Y-90240953D01*
X87233821Y-90240955D01*
X87360226Y-90285186D01*
X87390236Y-90288000D01*
X87390246Y-90288000D01*
X88409754Y-90288000D01*
X88409764Y-90288000D01*
X88439774Y-90285186D01*
X88566179Y-90240955D01*
X88673930Y-90161430D01*
X88704210Y-90120403D01*
X88736332Y-90101047D01*
X88743635Y-90100500D01*
X89325750Y-90100500D01*
X89360398Y-90114852D01*
X89362782Y-90117412D01*
X89400924Y-90161430D01*
X89418872Y-90182143D01*
X89539947Y-90259953D01*
X89603178Y-90278519D01*
X89678034Y-90300499D01*
X89678037Y-90300499D01*
X89678039Y-90300500D01*
X89678040Y-90300500D01*
X89821960Y-90300500D01*
X89821961Y-90300500D01*
X89821963Y-90300499D01*
X89821965Y-90300499D01*
X89844795Y-90293795D01*
X89960053Y-90259953D01*
X90081128Y-90182143D01*
X90175377Y-90073373D01*
X90235165Y-89942457D01*
X90235165Y-89942455D01*
X90235166Y-89942454D01*
X90255647Y-89800002D01*
X90255647Y-89799997D01*
X90235166Y-89657545D01*
X90219001Y-89622150D01*
X90175377Y-89526627D01*
X90151763Y-89499375D01*
X90081128Y-89417857D01*
X89960053Y-89340047D01*
X89960050Y-89340046D01*
X89821965Y-89299500D01*
X89821961Y-89299500D01*
X89678039Y-89299500D01*
X89678034Y-89299500D01*
X89539949Y-89340046D01*
X89539947Y-89340046D01*
X89539947Y-89340047D01*
X89517837Y-89354256D01*
X89418871Y-89417857D01*
X89362782Y-89482588D01*
X89329246Y-89499375D01*
X89325750Y-89499500D01*
X88849500Y-89499500D01*
X88814852Y-89485148D01*
X88800500Y-89450500D01*
X88800500Y-89302745D01*
X88800500Y-89302736D01*
X88797686Y-89272726D01*
X88753455Y-89146321D01*
X88730089Y-89114661D01*
X88673930Y-89038569D01*
X88566181Y-88959046D01*
X88566179Y-88959045D01*
X88522946Y-88943917D01*
X88439776Y-88914814D01*
X88439768Y-88914813D01*
X88409776Y-88912001D01*
X88409773Y-88912000D01*
X88409764Y-88912000D01*
X87390236Y-88912000D01*
X87390227Y-88912000D01*
X87390223Y-88912001D01*
X87360231Y-88914813D01*
X87360223Y-88914814D01*
X87233818Y-88959046D01*
X87126069Y-89038569D01*
X87046546Y-89146318D01*
X87004428Y-89266684D01*
X86979438Y-89294648D01*
X86958178Y-89299500D01*
X85210436Y-89299500D01*
X85134012Y-89319978D01*
X85134008Y-89319979D01*
X85082879Y-89349500D01*
X85082048Y-89349980D01*
X85065492Y-89359537D01*
X85065486Y-89359542D01*
X83989541Y-90435488D01*
X83989540Y-90435488D01*
X83949979Y-90504008D01*
X83949979Y-90504010D01*
X83929500Y-90580436D01*
X83929500Y-97457044D01*
X83915148Y-97491692D01*
X83894724Y-97503934D01*
X83826048Y-97524767D01*
X83826041Y-97524770D01*
X83643548Y-97622316D01*
X83483590Y-97753590D01*
X83352316Y-97913548D01*
X83254769Y-98096043D01*
X83194700Y-98294064D01*
X83194700Y-98294065D01*
X83194700Y-98294066D01*
X83174417Y-98500000D01*
X82745583Y-98500000D01*
X82725300Y-98294066D01*
X82665232Y-98096046D01*
X82567685Y-97913550D01*
X82436410Y-97753590D01*
X82276450Y-97622315D01*
X82276449Y-97622314D01*
X82226401Y-97595562D01*
X82202610Y-97566571D01*
X82200500Y-97552348D01*
X82200500Y-90443767D01*
X82214852Y-90409119D01*
X82249500Y-90394767D01*
X82284148Y-90409119D01*
X82697761Y-90822732D01*
X82712113Y-90857380D01*
X82700145Y-90889468D01*
X82624625Y-90976623D01*
X82624624Y-90976625D01*
X82564833Y-91107545D01*
X82544353Y-91249997D01*
X82544353Y-91250002D01*
X82564833Y-91392454D01*
X82586886Y-91440742D01*
X82624623Y-91523373D01*
X82624624Y-91523374D01*
X82624625Y-91523376D01*
X82691453Y-91600500D01*
X82718872Y-91632143D01*
X82839947Y-91709953D01*
X82916785Y-91732514D01*
X82978034Y-91750499D01*
X82978037Y-91750499D01*
X82978039Y-91750500D01*
X82978040Y-91750500D01*
X83121960Y-91750500D01*
X83121961Y-91750500D01*
X83121963Y-91750499D01*
X83121965Y-91750499D01*
X83167536Y-91737118D01*
X83260053Y-91709953D01*
X83381128Y-91632143D01*
X83475377Y-91523373D01*
X83535165Y-91392457D01*
X83535165Y-91392455D01*
X83535166Y-91392454D01*
X83555647Y-91250002D01*
X83555647Y-91249997D01*
X83535166Y-91107545D01*
X83513381Y-91059843D01*
X83475377Y-90976627D01*
X83465725Y-90965488D01*
X83381131Y-90867860D01*
X83381129Y-90867859D01*
X83381128Y-90867857D01*
X83373006Y-90862637D01*
X83351619Y-90831830D01*
X83350500Y-90821417D01*
X83350500Y-90710437D01*
X83347569Y-90699501D01*
X83347569Y-90699499D01*
X83330022Y-90634012D01*
X83330021Y-90634010D01*
X83299091Y-90580438D01*
X83290460Y-90565489D01*
X82781756Y-90056785D01*
X82767404Y-90022137D01*
X82770154Y-90005953D01*
X82797686Y-89927274D01*
X82800500Y-89897264D01*
X82800500Y-89302736D01*
X82797686Y-89272726D01*
X82753455Y-89146321D01*
X82730089Y-89114661D01*
X82673930Y-89038569D01*
X82566181Y-88959046D01*
X82566179Y-88959045D01*
X82522946Y-88943917D01*
X82439776Y-88914814D01*
X82439768Y-88914813D01*
X82409776Y-88912001D01*
X82409773Y-88912000D01*
X82409764Y-88912000D01*
X81390236Y-88912000D01*
X81390227Y-88912000D01*
X81390223Y-88912001D01*
X81360231Y-88914813D01*
X81360223Y-88914814D01*
X81233818Y-88959046D01*
X81126069Y-89038569D01*
X81046546Y-89146318D01*
X81002314Y-89272723D01*
X81002313Y-89272731D01*
X80999501Y-89302723D01*
X80999500Y-89302745D01*
X80999500Y-89897254D01*
X80999501Y-89897276D01*
X81002313Y-89927268D01*
X81002314Y-89927276D01*
X81022288Y-89984357D01*
X81045257Y-90049999D01*
X81046546Y-90053681D01*
X81126069Y-90161430D01*
X81233818Y-90240953D01*
X81233821Y-90240955D01*
X81360226Y-90285186D01*
X81390236Y-90288000D01*
X81550500Y-90288000D01*
X81585148Y-90302352D01*
X81599500Y-90337000D01*
X81599500Y-97408919D01*
X81585148Y-97443567D01*
X81555303Y-97457683D01*
X81484070Y-97464699D01*
X81484061Y-97464701D01*
X81349736Y-97505448D01*
X81286050Y-97524767D01*
X81286043Y-97524769D01*
X81103548Y-97622316D01*
X80943590Y-97753590D01*
X80812316Y-97913548D01*
X80714769Y-98096043D01*
X80654700Y-98294064D01*
X80654700Y-98294065D01*
X80654700Y-98294066D01*
X80634417Y-98500000D01*
X80205583Y-98500000D01*
X80185300Y-98294066D01*
X80125232Y-98096046D01*
X80027685Y-97913550D01*
X79896410Y-97753590D01*
X79736450Y-97622315D01*
X79553954Y-97524768D01*
X79553951Y-97524767D01*
X79485276Y-97503934D01*
X79456286Y-97480142D01*
X79450500Y-97457044D01*
X79450500Y-93694766D01*
X79464851Y-93660119D01*
X79610118Y-93514851D01*
X79644766Y-93500500D01*
X79771960Y-93500500D01*
X79771961Y-93500500D01*
X79771963Y-93500499D01*
X79771965Y-93500499D01*
X79794795Y-93493795D01*
X79910053Y-93459953D01*
X80031128Y-93382143D01*
X80125377Y-93273373D01*
X80185165Y-93142457D01*
X80185165Y-93142455D01*
X80185166Y-93142454D01*
X80205647Y-93000002D01*
X80205647Y-92999997D01*
X80185166Y-92857545D01*
X80170162Y-92824691D01*
X80125377Y-92726627D01*
X80106001Y-92704266D01*
X80031128Y-92617857D01*
X80030958Y-92617748D01*
X79910053Y-92540047D01*
X79910050Y-92540046D01*
X79771965Y-92499500D01*
X79771961Y-92499500D01*
X79744767Y-92499500D01*
X79710119Y-92485148D01*
X77331756Y-90106785D01*
X77317404Y-90072137D01*
X77320154Y-90055953D01*
X77320950Y-90053679D01*
X77347686Y-89977274D01*
X77347686Y-89977272D01*
X77347687Y-89977271D01*
X77348954Y-89963742D01*
X77350500Y-89947264D01*
X77350500Y-89352736D01*
X77347686Y-89322726D01*
X77303455Y-89196321D01*
X77266551Y-89146318D01*
X77223930Y-89088569D01*
X77116181Y-89009046D01*
X77116179Y-89009045D01*
X77047177Y-88984900D01*
X76989776Y-88964814D01*
X76989768Y-88964813D01*
X76959776Y-88962001D01*
X76959773Y-88962000D01*
X76959764Y-88962000D01*
X75940236Y-88962000D01*
X75940227Y-88962000D01*
X75940223Y-88962001D01*
X75910231Y-88964813D01*
X75910223Y-88964814D01*
X75783818Y-89009046D01*
X75676069Y-89088569D01*
X75596546Y-89196318D01*
X75552314Y-89322723D01*
X75552313Y-89322731D01*
X75549501Y-89352723D01*
X75549500Y-89352745D01*
X73950500Y-89352745D01*
X73950500Y-85500724D01*
X75494500Y-85500724D01*
X75494500Y-86309275D01*
X75497353Y-86339698D01*
X75497353Y-86339699D01*
X75542204Y-86467876D01*
X75542208Y-86467885D01*
X75622849Y-86577150D01*
X75732114Y-86657791D01*
X75732117Y-86657792D01*
X75732118Y-86657793D01*
X75732120Y-86657793D01*
X75732123Y-86657795D01*
X75805433Y-86683447D01*
X75860301Y-86702646D01*
X75890734Y-86705500D01*
X75950500Y-86705500D01*
X75985148Y-86719852D01*
X75999500Y-86754500D01*
X75999500Y-87038000D01*
X75985148Y-87072648D01*
X75950500Y-87087000D01*
X75940236Y-87087000D01*
X75940227Y-87087000D01*
X75940223Y-87087001D01*
X75910231Y-87089813D01*
X75910223Y-87089814D01*
X75783818Y-87134046D01*
X75676069Y-87213569D01*
X75596546Y-87321318D01*
X75552314Y-87447723D01*
X75552313Y-87447731D01*
X75549501Y-87477723D01*
X75549500Y-87477745D01*
X75549500Y-88072254D01*
X75549501Y-88072276D01*
X75552313Y-88102268D01*
X75552314Y-88102276D01*
X75596546Y-88228681D01*
X75676069Y-88336430D01*
X75745617Y-88387759D01*
X75783821Y-88415955D01*
X75910226Y-88460186D01*
X75940236Y-88463000D01*
X75940246Y-88463000D01*
X76959754Y-88463000D01*
X76959764Y-88463000D01*
X76989774Y-88460186D01*
X77116179Y-88415955D01*
X77223930Y-88336430D01*
X77303455Y-88228679D01*
X77347686Y-88102274D01*
X77350500Y-88072264D01*
X77350500Y-87477736D01*
X77347686Y-87447726D01*
X77340694Y-87427745D01*
X80999500Y-87427745D01*
X80999500Y-88022254D01*
X80999501Y-88022276D01*
X81002313Y-88052268D01*
X81002314Y-88052276D01*
X81031280Y-88135053D01*
X81045608Y-88176002D01*
X81046546Y-88178681D01*
X81126069Y-88286430D01*
X81233818Y-88365953D01*
X81233821Y-88365955D01*
X81360226Y-88410186D01*
X81390236Y-88413000D01*
X81390246Y-88413000D01*
X82409754Y-88413000D01*
X82409764Y-88413000D01*
X82439774Y-88410186D01*
X82566179Y-88365955D01*
X82673930Y-88286430D01*
X82753455Y-88178679D01*
X82797686Y-88052274D01*
X82800500Y-88022264D01*
X82800500Y-87427736D01*
X82797686Y-87397726D01*
X82753455Y-87271321D01*
X82753453Y-87271318D01*
X82673930Y-87163569D01*
X82566181Y-87084046D01*
X82566179Y-87084045D01*
X82528238Y-87070768D01*
X82439776Y-87039814D01*
X82439768Y-87039813D01*
X82409776Y-87037001D01*
X82409773Y-87037000D01*
X82409764Y-87037000D01*
X82409754Y-87037000D01*
X82399500Y-87037000D01*
X82364852Y-87022648D01*
X82350500Y-86988000D01*
X82350500Y-86692000D01*
X82364852Y-86657352D01*
X82399500Y-86643000D01*
X82509256Y-86643000D01*
X82509266Y-86643000D01*
X82539699Y-86640146D01*
X82667882Y-86595293D01*
X82674713Y-86590252D01*
X82777150Y-86514650D01*
X82857791Y-86405385D01*
X82857791Y-86405384D01*
X82857793Y-86405382D01*
X82902646Y-86277199D01*
X82905500Y-86246766D01*
X82905500Y-85458224D01*
X86999500Y-85458224D01*
X86999500Y-86266775D01*
X87002353Y-86297198D01*
X87002353Y-86297199D01*
X87047204Y-86425376D01*
X87047208Y-86425385D01*
X87127849Y-86534650D01*
X87237114Y-86615291D01*
X87237117Y-86615292D01*
X87237118Y-86615293D01*
X87237120Y-86615293D01*
X87237123Y-86615295D01*
X87316300Y-86643000D01*
X87365301Y-86660146D01*
X87395734Y-86663000D01*
X87400500Y-86663000D01*
X87435148Y-86677352D01*
X87449500Y-86712000D01*
X87449500Y-86988000D01*
X87435148Y-87022648D01*
X87400500Y-87037000D01*
X87390236Y-87037000D01*
X87390227Y-87037000D01*
X87390223Y-87037001D01*
X87360231Y-87039813D01*
X87360223Y-87039814D01*
X87233818Y-87084046D01*
X87126069Y-87163569D01*
X87046546Y-87271318D01*
X87002314Y-87397723D01*
X87002313Y-87397731D01*
X86999501Y-87427723D01*
X86999500Y-87427745D01*
X86999500Y-88022254D01*
X86999501Y-88022276D01*
X87002313Y-88052268D01*
X87002314Y-88052276D01*
X87031280Y-88135053D01*
X87045608Y-88176002D01*
X87046546Y-88178681D01*
X87126069Y-88286430D01*
X87233818Y-88365953D01*
X87233821Y-88365955D01*
X87360226Y-88410186D01*
X87390236Y-88413000D01*
X87390246Y-88413000D01*
X88409754Y-88413000D01*
X88409764Y-88413000D01*
X88439774Y-88410186D01*
X88566179Y-88365955D01*
X88673930Y-88286430D01*
X88753455Y-88178679D01*
X88797686Y-88052274D01*
X88800500Y-88022264D01*
X88800500Y-87427736D01*
X88797686Y-87397726D01*
X88753455Y-87271321D01*
X88753453Y-87271318D01*
X88673930Y-87163569D01*
X88566181Y-87084046D01*
X88566179Y-87084045D01*
X88528238Y-87070768D01*
X88439776Y-87039814D01*
X88439768Y-87039813D01*
X88409776Y-87037001D01*
X88409773Y-87037000D01*
X88409764Y-87037000D01*
X88409754Y-87037000D01*
X88399500Y-87037000D01*
X88364852Y-87022648D01*
X88350500Y-86988000D01*
X88350500Y-86712000D01*
X88364852Y-86677352D01*
X88399500Y-86663000D01*
X88404256Y-86663000D01*
X88404266Y-86663000D01*
X88434699Y-86660146D01*
X88562882Y-86615293D01*
X88583604Y-86600000D01*
X88672150Y-86534650D01*
X88752791Y-86425385D01*
X88752791Y-86425384D01*
X88752793Y-86425382D01*
X88797646Y-86297199D01*
X88800500Y-86266766D01*
X88800500Y-85458234D01*
X88797646Y-85427801D01*
X88790647Y-85407800D01*
X88752795Y-85299623D01*
X88752791Y-85299614D01*
X88672150Y-85190349D01*
X88562885Y-85109708D01*
X88562876Y-85109704D01*
X88434698Y-85064853D01*
X88404275Y-85062000D01*
X88404266Y-85062000D01*
X87395734Y-85062000D01*
X87395724Y-85062000D01*
X87365301Y-85064853D01*
X87365300Y-85064853D01*
X87237123Y-85109704D01*
X87237114Y-85109708D01*
X87127849Y-85190349D01*
X87047208Y-85299614D01*
X87047204Y-85299623D01*
X87002353Y-85427800D01*
X87002353Y-85427801D01*
X86999500Y-85458224D01*
X82905500Y-85458224D01*
X82905500Y-85438234D01*
X82902646Y-85407801D01*
X82902245Y-85406656D01*
X82857795Y-85279623D01*
X82857791Y-85279614D01*
X82777150Y-85170349D01*
X82667885Y-85089708D01*
X82667876Y-85089704D01*
X82539698Y-85044853D01*
X82509275Y-85042000D01*
X82509266Y-85042000D01*
X81500734Y-85042000D01*
X81500724Y-85042000D01*
X81470301Y-85044853D01*
X81470300Y-85044853D01*
X81342123Y-85089704D01*
X81342114Y-85089708D01*
X81232849Y-85170349D01*
X81152208Y-85279614D01*
X81152204Y-85279623D01*
X81107353Y-85407800D01*
X81107353Y-85407801D01*
X81104500Y-85438224D01*
X81104500Y-86246775D01*
X81107353Y-86277198D01*
X81107353Y-86277199D01*
X81152204Y-86405376D01*
X81152208Y-86405385D01*
X81232849Y-86514650D01*
X81342115Y-86595291D01*
X81342118Y-86595293D01*
X81416684Y-86621384D01*
X81444647Y-86646373D01*
X81449500Y-86667634D01*
X81449500Y-86988000D01*
X81435148Y-87022648D01*
X81400500Y-87037000D01*
X81390236Y-87037000D01*
X81390227Y-87037000D01*
X81390223Y-87037001D01*
X81360231Y-87039813D01*
X81360223Y-87039814D01*
X81233818Y-87084046D01*
X81126069Y-87163569D01*
X81046546Y-87271318D01*
X81002314Y-87397723D01*
X81002313Y-87397731D01*
X80999501Y-87427723D01*
X80999500Y-87427745D01*
X77340694Y-87427745D01*
X77303455Y-87321321D01*
X77299264Y-87315642D01*
X77223930Y-87213569D01*
X77116181Y-87134046D01*
X77116179Y-87134045D01*
X77063029Y-87115447D01*
X76989776Y-87089814D01*
X76989768Y-87089813D01*
X76959776Y-87087001D01*
X76959773Y-87087000D01*
X76959764Y-87087000D01*
X76959754Y-87087000D01*
X76949500Y-87087000D01*
X76914852Y-87072648D01*
X76900500Y-87038000D01*
X76900500Y-86747630D01*
X76914852Y-86712982D01*
X76933317Y-86701380D01*
X77006995Y-86675599D01*
X77057882Y-86657793D01*
X77077928Y-86642999D01*
X77167150Y-86577150D01*
X77247791Y-86467885D01*
X77247791Y-86467884D01*
X77247793Y-86467882D01*
X77292646Y-86339699D01*
X77295500Y-86309266D01*
X77295500Y-85500734D01*
X77292646Y-85470301D01*
X77282183Y-85440400D01*
X77247795Y-85342123D01*
X77247791Y-85342114D01*
X77167150Y-85232849D01*
X77057885Y-85152208D01*
X77057876Y-85152204D01*
X76929698Y-85107353D01*
X76899275Y-85104500D01*
X76899266Y-85104500D01*
X75890734Y-85104500D01*
X75890724Y-85104500D01*
X75860301Y-85107353D01*
X75860300Y-85107353D01*
X75732123Y-85152204D01*
X75732114Y-85152208D01*
X75622849Y-85232849D01*
X75542208Y-85342114D01*
X75542204Y-85342123D01*
X75497353Y-85470300D01*
X75497353Y-85470301D01*
X75494500Y-85500724D01*
X73950500Y-85500724D01*
X73950500Y-84644767D01*
X73964852Y-84610119D01*
X74355119Y-84219852D01*
X74389767Y-84205500D01*
X75445500Y-84205500D01*
X75480148Y-84219852D01*
X75494500Y-84254500D01*
X75494500Y-84309275D01*
X75497353Y-84339698D01*
X75497353Y-84339699D01*
X75542204Y-84467876D01*
X75542208Y-84467885D01*
X75622849Y-84577150D01*
X75732114Y-84657791D01*
X75732117Y-84657792D01*
X75732118Y-84657793D01*
X75732120Y-84657793D01*
X75732123Y-84657795D01*
X75860301Y-84702646D01*
X75890734Y-84705500D01*
X75890744Y-84705500D01*
X76899256Y-84705500D01*
X76899266Y-84705500D01*
X76929699Y-84702646D01*
X77057882Y-84657793D01*
X77077928Y-84642999D01*
X77167150Y-84577150D01*
X77247791Y-84467885D01*
X77247791Y-84467884D01*
X77247793Y-84467882D01*
X77275634Y-84388317D01*
X77300623Y-84360353D01*
X77321884Y-84355500D01*
X81099985Y-84355500D01*
X81134633Y-84369852D01*
X81146235Y-84388317D01*
X81152205Y-84405380D01*
X81152207Y-84405383D01*
X81232849Y-84514650D01*
X81342114Y-84595291D01*
X81342117Y-84595292D01*
X81342118Y-84595293D01*
X81342120Y-84595293D01*
X81342123Y-84595295D01*
X81424495Y-84624118D01*
X81470301Y-84640146D01*
X81500734Y-84643000D01*
X81500744Y-84643000D01*
X82509256Y-84643000D01*
X82509266Y-84643000D01*
X82539699Y-84640146D01*
X82667882Y-84595293D01*
X82777150Y-84514650D01*
X82843030Y-84425385D01*
X82857791Y-84405385D01*
X82857792Y-84405383D01*
X82857793Y-84405382D01*
X82880777Y-84339698D01*
X82885634Y-84325817D01*
X82910623Y-84297853D01*
X82931884Y-84293000D01*
X86966117Y-84293000D01*
X87000765Y-84307352D01*
X87012367Y-84325817D01*
X87047204Y-84425376D01*
X87047208Y-84425385D01*
X87127849Y-84534650D01*
X87237114Y-84615291D01*
X87237117Y-84615292D01*
X87237118Y-84615293D01*
X87237120Y-84615293D01*
X87237123Y-84615295D01*
X87316300Y-84643000D01*
X87365301Y-84660146D01*
X87395734Y-84663000D01*
X87395744Y-84663000D01*
X88404256Y-84663000D01*
X88404266Y-84663000D01*
X88434699Y-84660146D01*
X88562882Y-84615293D01*
X88577313Y-84604643D01*
X88672150Y-84534650D01*
X88752791Y-84425385D01*
X88752791Y-84425384D01*
X88752793Y-84425382D01*
X88797646Y-84297199D01*
X88800500Y-84266766D01*
X88800500Y-83458234D01*
X88797646Y-83427801D01*
X88795505Y-83421683D01*
X88752795Y-83299623D01*
X88752791Y-83299614D01*
X88672150Y-83190349D01*
X88562885Y-83109708D01*
X88562876Y-83109704D01*
X88434698Y-83064853D01*
X88404275Y-83062000D01*
X88404266Y-83062000D01*
X88399500Y-83062000D01*
X88364852Y-83047648D01*
X88350500Y-83013000D01*
X88350500Y-82339300D01*
X88350999Y-82332326D01*
X88355647Y-82300001D01*
X88355647Y-82299998D01*
X88335166Y-82157545D01*
X88330751Y-82147879D01*
X88275377Y-82026627D01*
X88181128Y-81917857D01*
X88060053Y-81840047D01*
X88060050Y-81840046D01*
X87921965Y-81799500D01*
X87921961Y-81799500D01*
X87778039Y-81799500D01*
X87778034Y-81799500D01*
X87639949Y-81840046D01*
X87518871Y-81917857D01*
X87424625Y-82026623D01*
X87424624Y-82026625D01*
X87364833Y-82157545D01*
X87344353Y-82299997D01*
X87344353Y-82300002D01*
X87364833Y-82442454D01*
X87387630Y-82492370D01*
X87424623Y-82573373D01*
X87437532Y-82588270D01*
X87449500Y-82620358D01*
X87449500Y-83013000D01*
X87435148Y-83047648D01*
X87400500Y-83062000D01*
X87395724Y-83062000D01*
X87365301Y-83064853D01*
X87365300Y-83064853D01*
X87237123Y-83109704D01*
X87237114Y-83109708D01*
X87127849Y-83190349D01*
X87047208Y-83299615D01*
X87047207Y-83299618D01*
X87032750Y-83340935D01*
X87026364Y-83359184D01*
X87001374Y-83387148D01*
X86980114Y-83392000D01*
X82931884Y-83392000D01*
X82897236Y-83377648D01*
X82885634Y-83359183D01*
X82857795Y-83279623D01*
X82857791Y-83279614D01*
X82777150Y-83170349D01*
X82667885Y-83089708D01*
X82667876Y-83089704D01*
X82539698Y-83044853D01*
X82509275Y-83042000D01*
X82509266Y-83042000D01*
X81500734Y-83042000D01*
X81500724Y-83042000D01*
X81470301Y-83044853D01*
X81470300Y-83044853D01*
X81342123Y-83089704D01*
X81342114Y-83089708D01*
X81232849Y-83170349D01*
X81152208Y-83279614D01*
X81152204Y-83279623D01*
X81107353Y-83407800D01*
X81107353Y-83407801D01*
X81107140Y-83410078D01*
X81089614Y-83443234D01*
X81058354Y-83454500D01*
X77321884Y-83454500D01*
X77287236Y-83440148D01*
X77275634Y-83421683D01*
X77247795Y-83342123D01*
X77247791Y-83342114D01*
X77167150Y-83232849D01*
X77057885Y-83152208D01*
X77057876Y-83152204D01*
X76929698Y-83107353D01*
X76899275Y-83104500D01*
X76899266Y-83104500D01*
X75890734Y-83104500D01*
X75890724Y-83104500D01*
X75860301Y-83107353D01*
X75860300Y-83107353D01*
X75732123Y-83152204D01*
X75732114Y-83152208D01*
X75622849Y-83232849D01*
X75542208Y-83342114D01*
X75542204Y-83342123D01*
X75497353Y-83470300D01*
X75497353Y-83470301D01*
X75494500Y-83500724D01*
X75494500Y-83555500D01*
X75480148Y-83590148D01*
X75445500Y-83604500D01*
X74205436Y-83604500D01*
X74129010Y-83624979D01*
X74129008Y-83624979D01*
X74060488Y-83664540D01*
X74060488Y-83664541D01*
X73409541Y-84315488D01*
X73409540Y-84315488D01*
X73369979Y-84384008D01*
X73369979Y-84384010D01*
X73349500Y-84460436D01*
X70148500Y-84460436D01*
X70148500Y-83462453D01*
X70162852Y-83427805D01*
X71833114Y-81757543D01*
X73694114Y-79896543D01*
X73758635Y-79799980D01*
X77050001Y-79799980D01*
X77060493Y-79902693D01*
X77115642Y-80069122D01*
X77207682Y-80218343D01*
X77331656Y-80342317D01*
X77480877Y-80434357D01*
X77647306Y-80489506D01*
X77750018Y-80499999D01*
X77999999Y-80499999D01*
X78500000Y-80499999D01*
X78749980Y-80499999D01*
X78852693Y-80489506D01*
X79019122Y-80434357D01*
X79168343Y-80342317D01*
X79292317Y-80218343D01*
X79384357Y-80069122D01*
X79439506Y-79902693D01*
X79450000Y-79799981D01*
X79450000Y-79650000D01*
X78500000Y-79650000D01*
X78500000Y-80499999D01*
X77999999Y-80499999D01*
X78000000Y-80499998D01*
X78000000Y-79650000D01*
X77050001Y-79650000D01*
X77050001Y-79799980D01*
X73758635Y-79799980D01*
X73770775Y-79781811D01*
X73823580Y-79654328D01*
X73850500Y-79518994D01*
X73850500Y-79381006D01*
X73850500Y-79000018D01*
X77050000Y-79000018D01*
X77050000Y-79150000D01*
X78000000Y-79150000D01*
X78500000Y-79150000D01*
X79449999Y-79150000D01*
X79449999Y-79000019D01*
X79439506Y-78897306D01*
X79384357Y-78730877D01*
X79292317Y-78581656D01*
X79168343Y-78457682D01*
X79019122Y-78365642D01*
X78852693Y-78310493D01*
X78749981Y-78300000D01*
X78500000Y-78300000D01*
X78500000Y-79150000D01*
X78000000Y-79150000D01*
X78000000Y-78300000D01*
X77750019Y-78300000D01*
X77647306Y-78310493D01*
X77480877Y-78365642D01*
X77331656Y-78457682D01*
X77207682Y-78581656D01*
X77115642Y-78730877D01*
X77060493Y-78897306D01*
X77050000Y-79000018D01*
X73850500Y-79000018D01*
X73850500Y-75152745D01*
X77349500Y-75152745D01*
X77349500Y-75747254D01*
X77349501Y-75747276D01*
X77352313Y-75777268D01*
X77352314Y-75777276D01*
X77396546Y-75903681D01*
X77476069Y-76011430D01*
X77529597Y-76050935D01*
X77548953Y-76083057D01*
X77549500Y-76090360D01*
X77549500Y-76650233D01*
X77535148Y-76684881D01*
X77529597Y-76689658D01*
X77477849Y-76727849D01*
X77397208Y-76837114D01*
X77397204Y-76837123D01*
X77352353Y-76965300D01*
X77352353Y-76965301D01*
X77349500Y-76995724D01*
X77349500Y-77804275D01*
X77352353Y-77834698D01*
X77352353Y-77834699D01*
X77397204Y-77962876D01*
X77397208Y-77962885D01*
X77477849Y-78072150D01*
X77587114Y-78152791D01*
X77587117Y-78152792D01*
X77587118Y-78152793D01*
X77587120Y-78152793D01*
X77587123Y-78152795D01*
X77715301Y-78197646D01*
X77745734Y-78200500D01*
X77745744Y-78200500D01*
X78754256Y-78200500D01*
X78754266Y-78200500D01*
X78784699Y-78197646D01*
X78912882Y-78152793D01*
X78915583Y-78150800D01*
X79022150Y-78072150D01*
X79102791Y-77962885D01*
X79102791Y-77962884D01*
X79102793Y-77962882D01*
X79147646Y-77834699D01*
X79150500Y-77804266D01*
X79150500Y-76995734D01*
X79147646Y-76965301D01*
X79133412Y-76924623D01*
X79102795Y-76837123D01*
X79102791Y-76837114D01*
X79022150Y-76727849D01*
X78970403Y-76689658D01*
X78951047Y-76657536D01*
X78950500Y-76650233D01*
X78950500Y-76090360D01*
X78964852Y-76055712D01*
X78970403Y-76050935D01*
X79023930Y-76011430D01*
X79026109Y-76008477D01*
X79103455Y-75903679D01*
X79147686Y-75777274D01*
X79150500Y-75747264D01*
X79150500Y-75152736D01*
X79147686Y-75122726D01*
X79103455Y-74996321D01*
X79074837Y-74957545D01*
X79023930Y-74888569D01*
X78916181Y-74809046D01*
X78916179Y-74809045D01*
X78878238Y-74795768D01*
X78789776Y-74764814D01*
X78789768Y-74764813D01*
X78759776Y-74762001D01*
X78759773Y-74762000D01*
X78759764Y-74762000D01*
X78759754Y-74762000D01*
X78386658Y-74762000D01*
X78377098Y-74761058D01*
X78318996Y-74749500D01*
X78318993Y-74749500D01*
X78181007Y-74749500D01*
X78181003Y-74749500D01*
X78122902Y-74761058D01*
X78113342Y-74762000D01*
X77740236Y-74762000D01*
X77740227Y-74762000D01*
X77740223Y-74762001D01*
X77710231Y-74764813D01*
X77710223Y-74764814D01*
X77583818Y-74809046D01*
X77476069Y-74888569D01*
X77396546Y-74996318D01*
X77352314Y-75122723D01*
X77352313Y-75122731D01*
X77349501Y-75152723D01*
X77349500Y-75152745D01*
X73850500Y-75152745D01*
X73850500Y-70381007D01*
X73825302Y-70254328D01*
X73823580Y-70245671D01*
X73806787Y-70205129D01*
X76995769Y-70205129D01*
X76995769Y-70205131D01*
X76995769Y-70205132D01*
X77010232Y-70805330D01*
X77010232Y-70805331D01*
X77010600Y-70820619D01*
X77070638Y-73312189D01*
X77070638Y-73312190D01*
X77071003Y-73327352D01*
X77071006Y-73327478D01*
X77085397Y-73924709D01*
X77085397Y-73924710D01*
X77089147Y-74080321D01*
X77089515Y-74095611D01*
X77093428Y-74257991D01*
X77109245Y-74332245D01*
X77109246Y-74332247D01*
X77109246Y-74332248D01*
X77122960Y-74365081D01*
X77122964Y-74365089D01*
X77156885Y-74419995D01*
X77156887Y-74419997D01*
X77156889Y-74420000D01*
X77181145Y-74437882D01*
X77230502Y-74474270D01*
X77264880Y-74489248D01*
X77264881Y-74489248D01*
X77264883Y-74489249D01*
X77343227Y-74506319D01*
X79796391Y-74550921D01*
X79830772Y-74565900D01*
X79844500Y-74599913D01*
X79844500Y-75401000D01*
X79854346Y-75450499D01*
X79860142Y-75479640D01*
X79860145Y-75479650D01*
X79874491Y-75514283D01*
X79874490Y-75514283D01*
X79911122Y-75572583D01*
X79985706Y-75625503D01*
X79985709Y-75625505D01*
X80020357Y-75639857D01*
X80099000Y-75655500D01*
X80150500Y-75655500D01*
X80185148Y-75669852D01*
X80199500Y-75704500D01*
X80199500Y-76968997D01*
X80226418Y-77104320D01*
X80226420Y-77104329D01*
X80232765Y-77119647D01*
X80279225Y-77231811D01*
X80330561Y-77308641D01*
X80355885Y-77346542D01*
X82453457Y-79444114D01*
X82523165Y-79490691D01*
X82523164Y-79490691D01*
X82568187Y-79520774D01*
X82568189Y-79520775D01*
X82695672Y-79573580D01*
X82695678Y-79573581D01*
X82695681Y-79573582D01*
X82831001Y-79600499D01*
X82831007Y-79600500D01*
X90900500Y-79600500D01*
X90935148Y-79614852D01*
X90949500Y-79649500D01*
X90949500Y-89639563D01*
X90969978Y-89715987D01*
X90969979Y-89715991D01*
X90976881Y-89727945D01*
X90976886Y-89727951D01*
X91009537Y-89784507D01*
X91009539Y-89784509D01*
X91009540Y-89784511D01*
X91915489Y-90690460D01*
X91936260Y-90702452D01*
X91984008Y-90730020D01*
X91984012Y-90730022D01*
X92010428Y-90737100D01*
X92060434Y-90750499D01*
X92060435Y-90750500D01*
X92060438Y-90750500D01*
X97089564Y-90750500D01*
X97116230Y-90743354D01*
X97165989Y-90730021D01*
X97234511Y-90690460D01*
X97290460Y-90634511D01*
X97640461Y-90284510D01*
X97658064Y-90254019D01*
X97687817Y-90231189D01*
X97724999Y-90236083D01*
X97747830Y-90265836D01*
X97749500Y-90278519D01*
X97749500Y-91105233D01*
X97735148Y-91139881D01*
X97389881Y-91485148D01*
X97355233Y-91499500D01*
X96495724Y-91499500D01*
X96465301Y-91502353D01*
X96465300Y-91502353D01*
X96337123Y-91547204D01*
X96337114Y-91547208D01*
X96227849Y-91627849D01*
X96147208Y-91737114D01*
X96147204Y-91737123D01*
X96102353Y-91865300D01*
X96102353Y-91865301D01*
X96099500Y-91895724D01*
X96099500Y-92704275D01*
X96102353Y-92734698D01*
X96102353Y-92734699D01*
X96147204Y-92862876D01*
X96147208Y-92862885D01*
X96227849Y-92972150D01*
X96337114Y-93052791D01*
X96337117Y-93052792D01*
X96337118Y-93052793D01*
X96337120Y-93052793D01*
X96337123Y-93052795D01*
X96427763Y-93084511D01*
X96465301Y-93097646D01*
X96495734Y-93100500D01*
X96495744Y-93100500D01*
X97504256Y-93100500D01*
X97504266Y-93100500D01*
X97534699Y-93097646D01*
X97662882Y-93052793D01*
X97671740Y-93046256D01*
X97772150Y-92972150D01*
X97852791Y-92862885D01*
X97852791Y-92862884D01*
X97852793Y-92862882D01*
X97897646Y-92734699D01*
X97900500Y-92704266D01*
X97900500Y-91895734D01*
X97897646Y-91865301D01*
X97897646Y-91865300D01*
X97897011Y-91862394D01*
X97898204Y-91862133D01*
X97900065Y-91828799D01*
X97909569Y-91815400D01*
X98168695Y-91556275D01*
X98203342Y-91541924D01*
X98237990Y-91556276D01*
X98252342Y-91590924D01*
X98251843Y-91597897D01*
X98244353Y-91649996D01*
X98244353Y-91650002D01*
X98264833Y-91792454D01*
X98284607Y-91835751D01*
X98324623Y-91923373D01*
X98324624Y-91923374D01*
X98324625Y-91923376D01*
X98367110Y-91972406D01*
X98418872Y-92032143D01*
X98539947Y-92109953D01*
X98604305Y-92128850D01*
X98678034Y-92150499D01*
X98678037Y-92150499D01*
X98678039Y-92150500D01*
X98678040Y-92150500D01*
X98821960Y-92150500D01*
X98821961Y-92150500D01*
X98821963Y-92150499D01*
X98821965Y-92150499D01*
X98856076Y-92140483D01*
X98960053Y-92109953D01*
X99081128Y-92032143D01*
X99175377Y-91923373D01*
X99235165Y-91792457D01*
X99235165Y-91792455D01*
X99235166Y-91792454D01*
X99255647Y-91650002D01*
X99255647Y-91649997D01*
X99235166Y-91507545D01*
X99231492Y-91499500D01*
X99224082Y-91483276D01*
X99222744Y-91445799D01*
X99248299Y-91418350D01*
X99285778Y-91417011D01*
X99303303Y-91428274D01*
X99337150Y-91462121D01*
X99351502Y-91496769D01*
X99351003Y-91503742D01*
X99344353Y-91549998D01*
X99344353Y-91550002D01*
X99364833Y-91692454D01*
X99391342Y-91750499D01*
X99424623Y-91823373D01*
X99424624Y-91823374D01*
X99424625Y-91823376D01*
X99487331Y-91895743D01*
X99518872Y-91932143D01*
X99639947Y-92009953D01*
X99715517Y-92032142D01*
X99778034Y-92050499D01*
X99778037Y-92050499D01*
X99778039Y-92050500D01*
X99778040Y-92050500D01*
X99921960Y-92050500D01*
X99921961Y-92050500D01*
X99921963Y-92050499D01*
X99921965Y-92050499D01*
X99944795Y-92043795D01*
X100060053Y-92009953D01*
X100181128Y-91932143D01*
X100275377Y-91823373D01*
X100335165Y-91692457D01*
X100335165Y-91692455D01*
X100335166Y-91692454D01*
X100355647Y-91550002D01*
X100355647Y-91549997D01*
X100335166Y-91407545D01*
X100320734Y-91375944D01*
X100275377Y-91276627D01*
X100252306Y-91250002D01*
X100181128Y-91167857D01*
X100137596Y-91139881D01*
X100060053Y-91090047D01*
X100060050Y-91090046D01*
X99921965Y-91049500D01*
X99921961Y-91049500D01*
X99794767Y-91049500D01*
X99760119Y-91035148D01*
X99664852Y-90939881D01*
X99650500Y-90905233D01*
X99650500Y-90295042D01*
X99664852Y-90260394D01*
X99699500Y-90246042D01*
X99716626Y-90249132D01*
X99727528Y-90253199D01*
X99787066Y-90259600D01*
X99834901Y-90259600D01*
X100165101Y-90259600D01*
X100212935Y-90259600D01*
X100272473Y-90253198D01*
X100272474Y-90253198D01*
X100407192Y-90202951D01*
X100522289Y-90116788D01*
X100608452Y-90001691D01*
X100658699Y-89866973D01*
X100658699Y-89866972D01*
X100665101Y-89807434D01*
X100665101Y-89315100D01*
X100165101Y-89315100D01*
X100165101Y-90259600D01*
X99834901Y-90259600D01*
X99834901Y-88984900D01*
X100165101Y-88984900D01*
X100665101Y-88984900D01*
X100665101Y-88795658D01*
X100679453Y-88761010D01*
X100681069Y-88759609D01*
X100685268Y-88755411D01*
X100686579Y-88756722D01*
X100713584Y-88740699D01*
X100720559Y-88740200D01*
X100909801Y-88740200D01*
X100909801Y-88240200D01*
X100165101Y-88240200D01*
X100165101Y-88984900D01*
X99834901Y-88984900D01*
X99834901Y-88046400D01*
X99849253Y-88011752D01*
X99883901Y-87997400D01*
X99922301Y-87997400D01*
X99922301Y-87959000D01*
X99936653Y-87924352D01*
X99971301Y-87910000D01*
X100909801Y-87910000D01*
X100909801Y-87308999D01*
X100924153Y-87274351D01*
X100958801Y-87259999D01*
X101191001Y-87259999D01*
X101225649Y-87274351D01*
X101240001Y-87308999D01*
X101240001Y-88740200D01*
X101732335Y-88740200D01*
X101791873Y-88733798D01*
X101791874Y-88733798D01*
X101926592Y-88683551D01*
X102041689Y-88597388D01*
X102127331Y-88482986D01*
X102159584Y-88463850D01*
X102195705Y-88472963D01*
X102231243Y-88499264D01*
X102265597Y-88514306D01*
X102343912Y-88531519D01*
X104794634Y-88580533D01*
X104799889Y-88580571D01*
X104802399Y-88580557D01*
X104807672Y-88580460D01*
X105972149Y-88544070D01*
X106007229Y-88557332D01*
X106008328Y-88558398D01*
X106359199Y-88909269D01*
X106373551Y-88943917D01*
X106365915Y-88962354D01*
X106365915Y-91178350D01*
X106413749Y-91178350D01*
X106473287Y-91171948D01*
X106473288Y-91171948D01*
X106608006Y-91121701D01*
X106723103Y-91035538D01*
X106809267Y-90920440D01*
X106812890Y-90910727D01*
X106838445Y-90883278D01*
X106858801Y-90878850D01*
X107035646Y-90878850D01*
X107035649Y-90878850D01*
X107094132Y-90867217D01*
X107097768Y-90864786D01*
X107134550Y-90857468D01*
X107152218Y-90864786D01*
X107155856Y-90867217D01*
X107214339Y-90878850D01*
X107214342Y-90878850D01*
X107685632Y-90878850D01*
X107685635Y-90878850D01*
X107744118Y-90867217D01*
X107810439Y-90822902D01*
X107854754Y-90756581D01*
X107866387Y-90698098D01*
X107866387Y-89452102D01*
X107854754Y-89393619D01*
X107818957Y-89340046D01*
X107810441Y-89327300D01*
X107810439Y-89327299D01*
X107810439Y-89327298D01*
X107792184Y-89315100D01*
X107772263Y-89301788D01*
X107751428Y-89270605D01*
X107750487Y-89261047D01*
X107750487Y-88353350D01*
X107764839Y-88318702D01*
X107799487Y-88304350D01*
X107979264Y-88304350D01*
X107979274Y-88304350D01*
X108009707Y-88301496D01*
X108137890Y-88256643D01*
X108160170Y-88240200D01*
X108247156Y-88176002D01*
X108247156Y-88176000D01*
X108247158Y-88176000D01*
X108285349Y-88124251D01*
X108317470Y-88104897D01*
X108324774Y-88104350D01*
X109093397Y-88104350D01*
X109128045Y-88118702D01*
X109785148Y-88775805D01*
X109799500Y-88810453D01*
X109799500Y-91418997D01*
X109826418Y-91554320D01*
X109826420Y-91554329D01*
X109866047Y-91649997D01*
X109879225Y-91681811D01*
X109898029Y-91709953D01*
X109955885Y-91796542D01*
X111695148Y-93535805D01*
X111709500Y-93570453D01*
X111709500Y-95685500D01*
X111695148Y-95720148D01*
X111660500Y-95734500D01*
X111565252Y-95734500D01*
X111506769Y-95746133D01*
X111440447Y-95790447D01*
X111396133Y-95856769D01*
X111384500Y-95915252D01*
X111384500Y-97604748D01*
X111396133Y-97663231D01*
X111413882Y-97689795D01*
X111440447Y-97729552D01*
X111467012Y-97747301D01*
X111506769Y-97773867D01*
X111565252Y-97785500D01*
X111565255Y-97785500D01*
X113254745Y-97785500D01*
X113254748Y-97785500D01*
X113313231Y-97773867D01*
X113379552Y-97729552D01*
X113423867Y-97663231D01*
X113435500Y-97604748D01*
X113435500Y-96760000D01*
X113619939Y-96760000D01*
X113640146Y-96990965D01*
X113640147Y-96990971D01*
X113700148Y-97214902D01*
X113700150Y-97214906D01*
X113798131Y-97425029D01*
X113798138Y-97425041D01*
X113853021Y-97503421D01*
X113853023Y-97503421D01*
X114426212Y-96930233D01*
X114437482Y-96972292D01*
X114509890Y-97097708D01*
X114612292Y-97200110D01*
X114737708Y-97272518D01*
X114779765Y-97283787D01*
X114206577Y-97856974D01*
X114206577Y-97856977D01*
X114284961Y-97911861D01*
X114284977Y-97911870D01*
X114495093Y-98009849D01*
X114495097Y-98009851D01*
X114719028Y-98069852D01*
X114719034Y-98069853D01*
X114950000Y-98090060D01*
X115180965Y-98069853D01*
X115180971Y-98069852D01*
X115404902Y-98009851D01*
X115404906Y-98009849D01*
X115615022Y-97911870D01*
X115615032Y-97911865D01*
X115693421Y-97856975D01*
X115693421Y-97856974D01*
X115120234Y-97283787D01*
X115162292Y-97272518D01*
X115287708Y-97200110D01*
X115390110Y-97097708D01*
X115462518Y-96972292D01*
X115473787Y-96930234D01*
X116046974Y-97503421D01*
X116046975Y-97503421D01*
X116101865Y-97425032D01*
X116101870Y-97425022D01*
X116199849Y-97214906D01*
X116199851Y-97214902D01*
X116259852Y-96990971D01*
X116259853Y-96990965D01*
X116280060Y-96760000D01*
X116259853Y-96529034D01*
X116259852Y-96529028D01*
X116199851Y-96305099D01*
X116199850Y-96305094D01*
X116101868Y-96094971D01*
X116101860Y-96094959D01*
X116046977Y-96016577D01*
X116046975Y-96016577D01*
X115473787Y-96589765D01*
X115462518Y-96547708D01*
X115390110Y-96422292D01*
X115287708Y-96319890D01*
X115162292Y-96247482D01*
X115120232Y-96236211D01*
X115693421Y-95663023D01*
X115693421Y-95663021D01*
X115615041Y-95608138D01*
X115615029Y-95608131D01*
X115404906Y-95510150D01*
X115404902Y-95510148D01*
X115180971Y-95450147D01*
X115180965Y-95450146D01*
X114950000Y-95429939D01*
X114719034Y-95450146D01*
X114719028Y-95450147D01*
X114495099Y-95510148D01*
X114495094Y-95510149D01*
X114284973Y-95608131D01*
X114284971Y-95608132D01*
X114206577Y-95663023D01*
X114779766Y-96236212D01*
X114737708Y-96247482D01*
X114612292Y-96319890D01*
X114509890Y-96422292D01*
X114437482Y-96547708D01*
X114426212Y-96589766D01*
X113853023Y-96016577D01*
X113798132Y-96094971D01*
X113798131Y-96094973D01*
X113700149Y-96305094D01*
X113700148Y-96305099D01*
X113640147Y-96529028D01*
X113640146Y-96529034D01*
X113619939Y-96760000D01*
X113435500Y-96760000D01*
X113435500Y-95915252D01*
X113423867Y-95856769D01*
X113397301Y-95817012D01*
X113379552Y-95790447D01*
X113339795Y-95763882D01*
X113313231Y-95746133D01*
X113254748Y-95734500D01*
X113254745Y-95734500D01*
X113159500Y-95734500D01*
X113124852Y-95720148D01*
X113110500Y-95685500D01*
X113110500Y-93191007D01*
X113110499Y-93191003D01*
X113100842Y-93142457D01*
X113089316Y-93084511D01*
X113089316Y-93084508D01*
X113083582Y-93055681D01*
X113083579Y-93055670D01*
X113082387Y-93052793D01*
X113030775Y-92928189D01*
X112954114Y-92813457D01*
X111214852Y-91074195D01*
X111200500Y-91039547D01*
X111200500Y-88431007D01*
X111200499Y-88431003D01*
X111197506Y-88415955D01*
X111175306Y-88304350D01*
X111174909Y-88302356D01*
X111173582Y-88295683D01*
X111173580Y-88295671D01*
X111120775Y-88168189D01*
X111044114Y-88053457D01*
X109850393Y-86859736D01*
X109735661Y-86783075D01*
X109735658Y-86783073D01*
X109735657Y-86783073D01*
X109608179Y-86730270D01*
X109608170Y-86730268D01*
X109472847Y-86703350D01*
X109472844Y-86703350D01*
X109472843Y-86703350D01*
X108324774Y-86703350D01*
X108290126Y-86688998D01*
X108285354Y-86683454D01*
X108247158Y-86631700D01*
X108247157Y-86631699D01*
X108247156Y-86631697D01*
X108137893Y-86551058D01*
X108137884Y-86551054D01*
X108009706Y-86506203D01*
X107979283Y-86503350D01*
X107979274Y-86503350D01*
X107170742Y-86503350D01*
X107170732Y-86503350D01*
X107140309Y-86506203D01*
X107140308Y-86506203D01*
X107012131Y-86551054D01*
X107012122Y-86551058D01*
X106902857Y-86631699D01*
X106822216Y-86740964D01*
X106822212Y-86740973D01*
X106777361Y-86869150D01*
X106777361Y-86869151D01*
X106774508Y-86899574D01*
X106774508Y-87908125D01*
X106777361Y-87938548D01*
X106777361Y-87938549D01*
X106822212Y-88066726D01*
X106822216Y-88066735D01*
X106902857Y-88176000D01*
X107012122Y-88256641D01*
X107012124Y-88256641D01*
X107012126Y-88256643D01*
X107116672Y-88293225D01*
X107144634Y-88318213D01*
X107149487Y-88339474D01*
X107149487Y-88746557D01*
X107135135Y-88781205D01*
X107100487Y-88795557D01*
X107065839Y-88781205D01*
X107058052Y-88771058D01*
X107040461Y-88740589D01*
X106617647Y-88317775D01*
X106603295Y-88283127D01*
X106604047Y-88274575D01*
X106604445Y-88272337D01*
X106604166Y-88258961D01*
X106564083Y-86334921D01*
X106556456Y-85968808D01*
X106556455Y-85968800D01*
X106556455Y-85968796D01*
X106546732Y-85923615D01*
X106553473Y-85886724D01*
X106584326Y-85865404D01*
X106589670Y-85864559D01*
X106590195Y-85864505D01*
X106756622Y-85809357D01*
X106905843Y-85717317D01*
X107029817Y-85593343D01*
X107121857Y-85444122D01*
X107177006Y-85277693D01*
X107187500Y-85174981D01*
X107187500Y-84900000D01*
X105012501Y-84900000D01*
X105012501Y-85174980D01*
X105022993Y-85277693D01*
X105078142Y-85444122D01*
X105170182Y-85593343D01*
X105212791Y-85635952D01*
X105227143Y-85670600D01*
X105212791Y-85705248D01*
X105178143Y-85719600D01*
X104761714Y-85719600D01*
X104727066Y-85705248D01*
X104712714Y-85670600D01*
X104721056Y-85643252D01*
X104723338Y-85639857D01*
X104727040Y-85634355D01*
X104740522Y-85599359D01*
X104754196Y-85520348D01*
X104750905Y-85388717D01*
X104750058Y-85383663D01*
X104758481Y-85347120D01*
X104758849Y-85346612D01*
X104765293Y-85337882D01*
X104810146Y-85209699D01*
X104813000Y-85179266D01*
X104813000Y-84125018D01*
X105012500Y-84125018D01*
X105012500Y-84400000D01*
X105850000Y-84400000D01*
X106350000Y-84400000D01*
X107187499Y-84400000D01*
X107187499Y-84125019D01*
X107177006Y-84022306D01*
X107121857Y-83855877D01*
X107029817Y-83706656D01*
X106905843Y-83582682D01*
X106756622Y-83490642D01*
X106590193Y-83435493D01*
X106487481Y-83425000D01*
X106350000Y-83425000D01*
X106350000Y-84400000D01*
X105850000Y-84400000D01*
X105850000Y-83425000D01*
X105712519Y-83425000D01*
X105609806Y-83435493D01*
X105443377Y-83490642D01*
X105294156Y-83582682D01*
X105170182Y-83706656D01*
X105078142Y-83855877D01*
X105022993Y-84022306D01*
X105012500Y-84125018D01*
X104813000Y-84125018D01*
X104813000Y-84120734D01*
X104810146Y-84090301D01*
X104765293Y-83962118D01*
X104722658Y-83904349D01*
X104713098Y-83876476D01*
X104712583Y-83855877D01*
X104706605Y-83616690D01*
X104702112Y-83595563D01*
X104690918Y-83542925D01*
X104690917Y-83542923D01*
X104690916Y-83542918D01*
X104677340Y-83510272D01*
X104677335Y-83510265D01*
X104677334Y-83510261D01*
X104670242Y-83498708D01*
X104663001Y-83473073D01*
X104663001Y-81899997D01*
X110994353Y-81899997D01*
X110994353Y-81900002D01*
X111014833Y-82042454D01*
X111046935Y-82112746D01*
X111074623Y-82173373D01*
X111074624Y-82173374D01*
X111074625Y-82173376D01*
X111168871Y-82282142D01*
X111168872Y-82282143D01*
X111289947Y-82359953D01*
X111357881Y-82379900D01*
X111428034Y-82400499D01*
X111428037Y-82400499D01*
X111428039Y-82400500D01*
X111428040Y-82400500D01*
X111571960Y-82400500D01*
X111571961Y-82400500D01*
X111571963Y-82400499D01*
X111571965Y-82400499D01*
X111594795Y-82393795D01*
X111710053Y-82359953D01*
X111831128Y-82282143D01*
X111887218Y-82217412D01*
X111920754Y-82200625D01*
X111924250Y-82200500D01*
X112341787Y-82200500D01*
X112376435Y-82214852D01*
X112390787Y-82249500D01*
X112381013Y-82278865D01*
X112343848Y-82328509D01*
X112293601Y-82463227D01*
X112293601Y-82463228D01*
X112287200Y-82522766D01*
X112287200Y-82600001D01*
X114912800Y-82600001D01*
X114912800Y-82522766D01*
X114906398Y-82463228D01*
X114906398Y-82463227D01*
X114856151Y-82328509D01*
X114769988Y-82213412D01*
X114654890Y-82127248D01*
X114645174Y-82123624D01*
X114617727Y-82098067D01*
X114613300Y-82077714D01*
X114613300Y-81600855D01*
X114613300Y-81600852D01*
X114601667Y-81542369D01*
X114575101Y-81502612D01*
X114557352Y-81476047D01*
X114517595Y-81449482D01*
X114491031Y-81431733D01*
X114432548Y-81420100D01*
X112767452Y-81420100D01*
X112708969Y-81431733D01*
X112642647Y-81476047D01*
X112598333Y-81542368D01*
X112598333Y-81542369D01*
X112594813Y-81560060D01*
X112573980Y-81591242D01*
X112546756Y-81599500D01*
X111924250Y-81599500D01*
X111889602Y-81585148D01*
X111887218Y-81582588D01*
X111831128Y-81517857D01*
X111710053Y-81440047D01*
X111710050Y-81440046D01*
X111571965Y-81399500D01*
X111571961Y-81399500D01*
X111428039Y-81399500D01*
X111428034Y-81399500D01*
X111289949Y-81440046D01*
X111168871Y-81517857D01*
X111074625Y-81626623D01*
X111074624Y-81626625D01*
X111014833Y-81757545D01*
X110994353Y-81899997D01*
X104663001Y-81899997D01*
X104663001Y-80893508D01*
X104663000Y-80893502D01*
X104636083Y-80758182D01*
X104636080Y-80758171D01*
X104583277Y-80630693D01*
X104583276Y-80630690D01*
X104506615Y-80515958D01*
X104065637Y-80074980D01*
X113425001Y-80074980D01*
X113435493Y-80177693D01*
X113490642Y-80344122D01*
X113582682Y-80493343D01*
X113706656Y-80617317D01*
X113855877Y-80709357D01*
X114022306Y-80764506D01*
X114125018Y-80774999D01*
X114262499Y-80774999D01*
X114762500Y-80774999D01*
X114899980Y-80774999D01*
X115002693Y-80764506D01*
X115169122Y-80709357D01*
X115318343Y-80617317D01*
X115442317Y-80493343D01*
X115534357Y-80344122D01*
X115589506Y-80177693D01*
X115600000Y-80074981D01*
X115600000Y-79800000D01*
X114762500Y-79800000D01*
X114762500Y-80774999D01*
X114262499Y-80774999D01*
X114262500Y-80774998D01*
X114262500Y-79800000D01*
X113425001Y-79800000D01*
X113425001Y-80074980D01*
X104065637Y-80074980D01*
X102346543Y-78355886D01*
X102332717Y-78346648D01*
X102308641Y-78330561D01*
X102231811Y-78279225D01*
X102231808Y-78279223D01*
X102231807Y-78279223D01*
X102104329Y-78226420D01*
X102104320Y-78226418D01*
X101968997Y-78199500D01*
X101968994Y-78199500D01*
X101968993Y-78199500D01*
X91318993Y-78199500D01*
X83210453Y-78199500D01*
X83175805Y-78185148D01*
X81614852Y-76624195D01*
X81600500Y-76589547D01*
X81600500Y-75704500D01*
X81614852Y-75669852D01*
X81648615Y-75655866D01*
X81648603Y-75655736D01*
X81649032Y-75655693D01*
X81649500Y-75655500D01*
X81650997Y-75655500D01*
X81651000Y-75655500D01*
X81729643Y-75639857D01*
X81764291Y-75625505D01*
X81822581Y-75588879D01*
X81822581Y-75588877D01*
X81822583Y-75588877D01*
X81849043Y-75551585D01*
X81875505Y-75514291D01*
X81889857Y-75479643D01*
X81905500Y-75401000D01*
X81905500Y-75100297D01*
X81905498Y-75099467D01*
X81905496Y-75098972D01*
X81905488Y-75097726D01*
X81894861Y-74045724D01*
X82099500Y-74045724D01*
X82099500Y-75054275D01*
X82102353Y-75084698D01*
X82102353Y-75084699D01*
X82147204Y-75212876D01*
X82147208Y-75212885D01*
X82227849Y-75322150D01*
X82337114Y-75402791D01*
X82337117Y-75402792D01*
X82337118Y-75402793D01*
X82337120Y-75402793D01*
X82337123Y-75402795D01*
X82465301Y-75447646D01*
X82495734Y-75450500D01*
X82495744Y-75450500D01*
X83304256Y-75450500D01*
X83304266Y-75450500D01*
X83334699Y-75447646D01*
X83462882Y-75402793D01*
X83465312Y-75401000D01*
X83572150Y-75322150D01*
X83647243Y-75220403D01*
X83679365Y-75201047D01*
X83686668Y-75200500D01*
X85222139Y-75200500D01*
X85256787Y-75214852D01*
X85261564Y-75220403D01*
X85301069Y-75273930D01*
X85408818Y-75353453D01*
X85408821Y-75353455D01*
X85535226Y-75397686D01*
X85565236Y-75400500D01*
X85565246Y-75400500D01*
X86159754Y-75400500D01*
X86159764Y-75400500D01*
X86189774Y-75397686D01*
X86316179Y-75353455D01*
X86423930Y-75273930D01*
X86503455Y-75166179D01*
X86547686Y-75039774D01*
X86550500Y-75009764D01*
X86550500Y-74636658D01*
X86551442Y-74627098D01*
X86552818Y-74620182D01*
X86563000Y-74568993D01*
X86563000Y-74431007D01*
X86551441Y-74372900D01*
X86550500Y-74363341D01*
X86550500Y-73990245D01*
X87049500Y-73990245D01*
X87049500Y-75009754D01*
X87049501Y-75009776D01*
X87052313Y-75039768D01*
X87052314Y-75039776D01*
X87073492Y-75100297D01*
X87095264Y-75162519D01*
X87096546Y-75166181D01*
X87176069Y-75273930D01*
X87283818Y-75353453D01*
X87283821Y-75353455D01*
X87410226Y-75397686D01*
X87440236Y-75400500D01*
X87440246Y-75400500D01*
X88034754Y-75400500D01*
X88034764Y-75400500D01*
X88064774Y-75397686D01*
X88191179Y-75353455D01*
X88298930Y-75273930D01*
X88378455Y-75166179D01*
X88422686Y-75039774D01*
X88425500Y-75009764D01*
X88425500Y-74968767D01*
X88439852Y-74934119D01*
X88474500Y-74919767D01*
X88509148Y-74934119D01*
X88859540Y-75284511D01*
X88915489Y-75340460D01*
X88984011Y-75380021D01*
X89019478Y-75389524D01*
X89060436Y-75400500D01*
X89060438Y-75400500D01*
X89125750Y-75400500D01*
X89160398Y-75414852D01*
X89162782Y-75417412D01*
X89218872Y-75482143D01*
X89339947Y-75559953D01*
X89416785Y-75582514D01*
X89478034Y-75600499D01*
X89478037Y-75600499D01*
X89478039Y-75600500D01*
X89478040Y-75600500D01*
X89621960Y-75600500D01*
X89621961Y-75600500D01*
X89621963Y-75600499D01*
X89621965Y-75600499D01*
X89661539Y-75588879D01*
X89760053Y-75559953D01*
X89881128Y-75482143D01*
X89975377Y-75373373D01*
X90035165Y-75242457D01*
X90035165Y-75242455D01*
X90035166Y-75242454D01*
X90055647Y-75100002D01*
X90055647Y-75099997D01*
X90035166Y-74957545D01*
X90013364Y-74909806D01*
X89975377Y-74826627D01*
X89960142Y-74809045D01*
X89881128Y-74717857D01*
X89844248Y-74694156D01*
X89760053Y-74640047D01*
X89760050Y-74640046D01*
X89621965Y-74599500D01*
X89621961Y-74599500D01*
X89478039Y-74599500D01*
X89478034Y-74599500D01*
X89339946Y-74640047D01*
X89218875Y-74717853D01*
X89218868Y-74717860D01*
X89218026Y-74718832D01*
X89217366Y-74719161D01*
X89216225Y-74720151D01*
X89215972Y-74719859D01*
X89184485Y-74735611D01*
X89148905Y-74723759D01*
X89146354Y-74721383D01*
X88684511Y-74259540D01*
X88664504Y-74247989D01*
X88615990Y-74219979D01*
X88539564Y-74199500D01*
X88539562Y-74199500D01*
X88474500Y-74199500D01*
X88439852Y-74185148D01*
X88425500Y-74150500D01*
X88425500Y-73990245D01*
X88425500Y-73990236D01*
X88422686Y-73960226D01*
X88378455Y-73833821D01*
X88360852Y-73809970D01*
X88298930Y-73726069D01*
X88191181Y-73646546D01*
X88191179Y-73646545D01*
X88153238Y-73633268D01*
X88064776Y-73602314D01*
X88064768Y-73602313D01*
X88034776Y-73599501D01*
X88034773Y-73599500D01*
X88034764Y-73599500D01*
X87440236Y-73599500D01*
X87440227Y-73599500D01*
X87440223Y-73599501D01*
X87410231Y-73602313D01*
X87410223Y-73602314D01*
X87283818Y-73646546D01*
X87176069Y-73726069D01*
X87096546Y-73833818D01*
X87052314Y-73960223D01*
X87052313Y-73960231D01*
X87049501Y-73990223D01*
X87049500Y-73990245D01*
X86550500Y-73990245D01*
X86550500Y-73990236D01*
X86547686Y-73960226D01*
X86503455Y-73833821D01*
X86485852Y-73809970D01*
X86423930Y-73726069D01*
X86316181Y-73646546D01*
X86316179Y-73646545D01*
X86278238Y-73633268D01*
X86189776Y-73602314D01*
X86189768Y-73602313D01*
X86159776Y-73599501D01*
X86159773Y-73599500D01*
X86159764Y-73599500D01*
X85565236Y-73599500D01*
X85565227Y-73599500D01*
X85565223Y-73599501D01*
X85535231Y-73602313D01*
X85535223Y-73602314D01*
X85408818Y-73646546D01*
X85301069Y-73726069D01*
X85261564Y-73779597D01*
X85229442Y-73798953D01*
X85222139Y-73799500D01*
X83612865Y-73799500D01*
X83578217Y-73785148D01*
X83573442Y-73779600D01*
X83572152Y-73777852D01*
X83572144Y-73777845D01*
X83462885Y-73697208D01*
X83462876Y-73697204D01*
X83334698Y-73652353D01*
X83304275Y-73649500D01*
X83304266Y-73649500D01*
X82495734Y-73649500D01*
X82495724Y-73649500D01*
X82465301Y-73652353D01*
X82465300Y-73652353D01*
X82337123Y-73697204D01*
X82337114Y-73697208D01*
X82227849Y-73777849D01*
X82147208Y-73887114D01*
X82147204Y-73887123D01*
X82102353Y-74015300D01*
X82102353Y-74015301D01*
X82099500Y-74045724D01*
X81894861Y-74045724D01*
X81877497Y-72326749D01*
X81891499Y-72291959D01*
X81920736Y-72277595D01*
X83742371Y-72062134D01*
X85641800Y-72062134D01*
X85648201Y-72121672D01*
X85648201Y-72121673D01*
X85698448Y-72256391D01*
X85784611Y-72371488D01*
X85899708Y-72457651D01*
X86034426Y-72507898D01*
X86093966Y-72514300D01*
X86433900Y-72514300D01*
X86662500Y-72514300D01*
X87002434Y-72514300D01*
X87061972Y-72507898D01*
X87061973Y-72507898D01*
X87196691Y-72457651D01*
X87311788Y-72371488D01*
X87397951Y-72256391D01*
X87448198Y-72121673D01*
X87448198Y-72121672D01*
X87454600Y-72062134D01*
X87454600Y-72014300D01*
X86662500Y-72014300D01*
X86662500Y-72514300D01*
X86433900Y-72514300D01*
X86433900Y-72014300D01*
X85641800Y-72014300D01*
X85641800Y-72062134D01*
X83742371Y-72062134D01*
X85909241Y-71805839D01*
X85914997Y-71805500D01*
X86046178Y-71805500D01*
X86086272Y-71801550D01*
X86086272Y-71801549D01*
X86086282Y-71801549D01*
X86093667Y-71800078D01*
X86098738Y-71799363D01*
X86098929Y-71799324D01*
X86098931Y-71799325D01*
X86147949Y-71789574D01*
X86149561Y-71788996D01*
X86150770Y-71788565D01*
X86167278Y-71785700D01*
X87454600Y-71785700D01*
X87454600Y-71737865D01*
X87448198Y-71678327D01*
X87448198Y-71678326D01*
X87397951Y-71543608D01*
X87311788Y-71428511D01*
X87210762Y-71352882D01*
X87191626Y-71320629D01*
X87192069Y-71304096D01*
X87193171Y-71298556D01*
X87205500Y-71236574D01*
X87205500Y-71063048D01*
X87189857Y-70984405D01*
X87175508Y-70949764D01*
X87175506Y-70949758D01*
X87162610Y-70929234D01*
X87155100Y-70903165D01*
X87155100Y-70765703D01*
X87155100Y-70765700D01*
X87143467Y-70707217D01*
X87123214Y-70676908D01*
X87115897Y-70640127D01*
X87123215Y-70622461D01*
X87131746Y-70609694D01*
X87143467Y-70592153D01*
X87155100Y-70533670D01*
X87155100Y-70265574D01*
X87643100Y-70265574D01*
X87643100Y-70533670D01*
X87654733Y-70592153D01*
X87666457Y-70609699D01*
X87674985Y-70622462D01*
X87682301Y-70659245D01*
X87674984Y-70676908D01*
X87654733Y-70707217D01*
X87643100Y-70765700D01*
X87643100Y-71033796D01*
X87654733Y-71092279D01*
X87659742Y-71099775D01*
X87674985Y-71122588D01*
X87682301Y-71159371D01*
X87674984Y-71177034D01*
X87654733Y-71207343D01*
X87643100Y-71265826D01*
X87643100Y-71533922D01*
X87654733Y-71592405D01*
X87661576Y-71602646D01*
X87674985Y-71622714D01*
X87682301Y-71659497D01*
X87674984Y-71677160D01*
X87654733Y-71707469D01*
X87643100Y-71765952D01*
X87643100Y-72034048D01*
X87654733Y-72092531D01*
X87668410Y-72113000D01*
X87699047Y-72158852D01*
X87725612Y-72176601D01*
X87765369Y-72203167D01*
X87823852Y-72214800D01*
X87823855Y-72214800D01*
X88676145Y-72214800D01*
X88676148Y-72214800D01*
X88734631Y-72203167D01*
X88734631Y-72203166D01*
X88739365Y-72202225D01*
X88739470Y-72202757D01*
X88750816Y-72200500D01*
X88855233Y-72200500D01*
X88889881Y-72214852D01*
X89085148Y-72410119D01*
X89099500Y-72444767D01*
X89099500Y-73539563D01*
X89119978Y-73615987D01*
X89119979Y-73615991D01*
X89137621Y-73646546D01*
X89141228Y-73652793D01*
X89148179Y-73664833D01*
X89159537Y-73684507D01*
X89159539Y-73684509D01*
X89159540Y-73684511D01*
X89602989Y-74127960D01*
X89671512Y-74167522D01*
X89731786Y-74183672D01*
X89747934Y-74187999D01*
X89747935Y-74188000D01*
X89747938Y-74188000D01*
X90075500Y-74188000D01*
X90110148Y-74202352D01*
X90124500Y-74237000D01*
X90124500Y-74279275D01*
X90127353Y-74309698D01*
X90127353Y-74309699D01*
X90172204Y-74437876D01*
X90172208Y-74437885D01*
X90252849Y-74547150D01*
X90362114Y-74627791D01*
X90362117Y-74627792D01*
X90362118Y-74627793D01*
X90362120Y-74627793D01*
X90362123Y-74627795D01*
X90397135Y-74640046D01*
X90490301Y-74672646D01*
X90520734Y-74675500D01*
X90520744Y-74675500D01*
X91579256Y-74675500D01*
X91579266Y-74675500D01*
X91609699Y-74672646D01*
X91737882Y-74627793D01*
X91847150Y-74547150D01*
X91850810Y-74542191D01*
X91927791Y-74437885D01*
X91927791Y-74437884D01*
X91927793Y-74437882D01*
X91936011Y-74414394D01*
X91951261Y-74370816D01*
X91976251Y-74342853D01*
X91997511Y-74338000D01*
X92271811Y-74338000D01*
X92301930Y-74329928D01*
X92362173Y-74313786D01*
X92386387Y-74307299D01*
X92489114Y-74247989D01*
X93409751Y-73327352D01*
X93444399Y-73313000D01*
X94500500Y-73313000D01*
X94535148Y-73327352D01*
X94549500Y-73362000D01*
X94549500Y-73682248D01*
X94561133Y-73740731D01*
X94565085Y-73746645D01*
X94605447Y-73807052D01*
X94631486Y-73824450D01*
X94671769Y-73851367D01*
X94730252Y-73863000D01*
X94730255Y-73863000D01*
X100469745Y-73863000D01*
X100469748Y-73863000D01*
X100528231Y-73851367D01*
X100594552Y-73807052D01*
X100638867Y-73740731D01*
X100650500Y-73682248D01*
X100650500Y-72042752D01*
X100638867Y-71984269D01*
X100612301Y-71944512D01*
X100594552Y-71917947D01*
X100554795Y-71891382D01*
X100528231Y-71873633D01*
X100469748Y-71862000D01*
X94730252Y-71862000D01*
X94671769Y-71873633D01*
X94605447Y-71917947D01*
X94574107Y-71964852D01*
X94561133Y-71984269D01*
X94549500Y-72042752D01*
X94549500Y-72042755D01*
X94549500Y-72363000D01*
X94535148Y-72397648D01*
X94500500Y-72412000D01*
X93178188Y-72412000D01*
X93087826Y-72436213D01*
X93063615Y-72442699D01*
X93063610Y-72442701D01*
X92960885Y-72502011D01*
X92960885Y-72502012D01*
X92040249Y-73422648D01*
X92005601Y-73437000D01*
X91997511Y-73437000D01*
X91962863Y-73422648D01*
X91951261Y-73404184D01*
X91927794Y-73337121D01*
X91927791Y-73337114D01*
X91847150Y-73227849D01*
X91737885Y-73147208D01*
X91737876Y-73147204D01*
X91609698Y-73102353D01*
X91579275Y-73099500D01*
X91579266Y-73099500D01*
X90520734Y-73099500D01*
X90520724Y-73099500D01*
X90490301Y-73102353D01*
X90490300Y-73102353D01*
X90362123Y-73147204D01*
X90362114Y-73147208D01*
X90252849Y-73227849D01*
X90172208Y-73337114D01*
X90172204Y-73337123D01*
X90127353Y-73465300D01*
X90127353Y-73465301D01*
X90124500Y-73495724D01*
X90124500Y-73538000D01*
X90110148Y-73572648D01*
X90075500Y-73587000D01*
X89932267Y-73587000D01*
X89897619Y-73572648D01*
X89714852Y-73389881D01*
X89700500Y-73355233D01*
X89700500Y-72260436D01*
X89688271Y-72214800D01*
X89680021Y-72184011D01*
X89680018Y-72184007D01*
X89678791Y-72181041D01*
X89680651Y-72180270D01*
X89676549Y-72149368D01*
X89699348Y-72119591D01*
X89723893Y-72113000D01*
X90075500Y-72113000D01*
X90110148Y-72127352D01*
X90124500Y-72162000D01*
X90124500Y-72204275D01*
X90127353Y-72234698D01*
X90127353Y-72234699D01*
X90172204Y-72362876D01*
X90172208Y-72362885D01*
X90252849Y-72472150D01*
X90362114Y-72552791D01*
X90362117Y-72552792D01*
X90362118Y-72552793D01*
X90362120Y-72552793D01*
X90362123Y-72552795D01*
X90490301Y-72597646D01*
X90520734Y-72600500D01*
X90520744Y-72600500D01*
X91579256Y-72600500D01*
X91579266Y-72600500D01*
X91609699Y-72597646D01*
X91737882Y-72552793D01*
X91790039Y-72514300D01*
X91847150Y-72472150D01*
X91927791Y-72362885D01*
X91927791Y-72362884D01*
X91927793Y-72362882D01*
X91972646Y-72234699D01*
X91975500Y-72204266D01*
X91975500Y-71420734D01*
X91972646Y-71390301D01*
X91968559Y-71378622D01*
X91927795Y-71262123D01*
X91927791Y-71262114D01*
X91847150Y-71152849D01*
X91737885Y-71072208D01*
X91737876Y-71072204D01*
X91609698Y-71027353D01*
X91579275Y-71024500D01*
X91579266Y-71024500D01*
X90520734Y-71024500D01*
X90520724Y-71024500D01*
X90490301Y-71027353D01*
X90490300Y-71027353D01*
X90362123Y-71072204D01*
X90362114Y-71072208D01*
X90252847Y-71152851D01*
X90250914Y-71154784D01*
X90216265Y-71169132D01*
X90181618Y-71154776D01*
X90167270Y-71120127D01*
X90171698Y-71099777D01*
X90190380Y-71058871D01*
X90210862Y-70916414D01*
X90210862Y-70916411D01*
X90190381Y-70773959D01*
X90168389Y-70725805D01*
X90130592Y-70643041D01*
X90125587Y-70637265D01*
X90036343Y-70534271D01*
X90035402Y-70533666D01*
X89915268Y-70456461D01*
X89907333Y-70454131D01*
X89881059Y-70446416D01*
X89851858Y-70422884D01*
X89847849Y-70385596D01*
X89860214Y-70364755D01*
X90210119Y-70014852D01*
X90244767Y-70000500D01*
X90350500Y-70000500D01*
X90385148Y-70014852D01*
X90399500Y-70049500D01*
X90399500Y-70204275D01*
X90402353Y-70234698D01*
X90402353Y-70234699D01*
X90447204Y-70362876D01*
X90447208Y-70362885D01*
X90527849Y-70472150D01*
X90637114Y-70552791D01*
X90637117Y-70552792D01*
X90637118Y-70552793D01*
X90637120Y-70552793D01*
X90637123Y-70552795D01*
X90712799Y-70579275D01*
X90765301Y-70597646D01*
X90795734Y-70600500D01*
X90795744Y-70600500D01*
X91604256Y-70600500D01*
X91604266Y-70600500D01*
X91634699Y-70597646D01*
X91762882Y-70552793D01*
X91788799Y-70533666D01*
X91872150Y-70472150D01*
X91952791Y-70362885D01*
X91952791Y-70362884D01*
X91952793Y-70362882D01*
X91997646Y-70234699D01*
X92000500Y-70204266D01*
X92000500Y-70199980D01*
X92100001Y-70199980D01*
X92110493Y-70302693D01*
X92165642Y-70469122D01*
X92257682Y-70618343D01*
X92381656Y-70742317D01*
X92530877Y-70834357D01*
X92697306Y-70889506D01*
X92800018Y-70899999D01*
X92949999Y-70899999D01*
X93450000Y-70899999D01*
X93599980Y-70899999D01*
X93702693Y-70889506D01*
X93869122Y-70834357D01*
X94018343Y-70742317D01*
X94142317Y-70618343D01*
X94234357Y-70469122D01*
X94289506Y-70302693D01*
X94300000Y-70199981D01*
X94300000Y-69950000D01*
X93450000Y-69950000D01*
X93450000Y-70899999D01*
X92949999Y-70899999D01*
X92950000Y-70899998D01*
X92950000Y-69950000D01*
X92100001Y-69950000D01*
X92100001Y-70199980D01*
X92000500Y-70199980D01*
X92000500Y-69200018D01*
X92100000Y-69200018D01*
X92100000Y-69450000D01*
X94299999Y-69450000D01*
X94299999Y-69200019D01*
X94289506Y-69097306D01*
X94234357Y-68930877D01*
X94142317Y-68781656D01*
X94018343Y-68657682D01*
X93910566Y-68591205D01*
X93888611Y-68560800D01*
X93894585Y-68523776D01*
X93924990Y-68501821D01*
X93936290Y-68500500D01*
X94500500Y-68500500D01*
X94535148Y-68514852D01*
X94549500Y-68549500D01*
X94549500Y-68982248D01*
X94561133Y-69040731D01*
X94578882Y-69067295D01*
X94605447Y-69107052D01*
X94617121Y-69114852D01*
X94671769Y-69151367D01*
X94730252Y-69163000D01*
X94730255Y-69163000D01*
X100469745Y-69163000D01*
X100469748Y-69163000D01*
X100528231Y-69151367D01*
X100594552Y-69107052D01*
X100638867Y-69040731D01*
X100650500Y-68982248D01*
X100650500Y-68699500D01*
X100664852Y-68664852D01*
X100699500Y-68650500D01*
X101356783Y-68650500D01*
X101391431Y-68664852D01*
X101396207Y-68670401D01*
X101400421Y-68676111D01*
X101402424Y-68678824D01*
X101412000Y-68707923D01*
X101412000Y-69292076D01*
X101402425Y-69321173D01*
X101372208Y-69362114D01*
X101372204Y-69362123D01*
X101327353Y-69490300D01*
X101327353Y-69490301D01*
X101324500Y-69520724D01*
X101324500Y-70579275D01*
X101327353Y-70609698D01*
X101327353Y-70609699D01*
X101372204Y-70737876D01*
X101372208Y-70737885D01*
X101452845Y-70847144D01*
X101452850Y-70847150D01*
X101467096Y-70857664D01*
X101486452Y-70889784D01*
X101487000Y-70897089D01*
X101487000Y-71577909D01*
X101472648Y-71612557D01*
X101467098Y-71617334D01*
X101452848Y-71627850D01*
X101372208Y-71737114D01*
X101372204Y-71737123D01*
X101327353Y-71865300D01*
X101327353Y-71865301D01*
X101324500Y-71895724D01*
X101324500Y-73304275D01*
X101327353Y-73334698D01*
X101327353Y-73334699D01*
X101372204Y-73462876D01*
X101372208Y-73462885D01*
X101452849Y-73572150D01*
X101562114Y-73652791D01*
X101562117Y-73652792D01*
X101562118Y-73652793D01*
X101562120Y-73652793D01*
X101562123Y-73652795D01*
X101652763Y-73684511D01*
X101690301Y-73697646D01*
X101692570Y-73697858D01*
X101725728Y-73715378D01*
X101737000Y-73746645D01*
X101737000Y-76008477D01*
X101732572Y-76028832D01*
X101702334Y-76095042D01*
X101702334Y-76095044D01*
X101681853Y-76237497D01*
X101681853Y-76237502D01*
X101702333Y-76379954D01*
X101732360Y-76445702D01*
X101762123Y-76510873D01*
X101762124Y-76510874D01*
X101762125Y-76510876D01*
X101819427Y-76577006D01*
X101856372Y-76619643D01*
X101977447Y-76697453D01*
X102012027Y-76707606D01*
X102032868Y-76719971D01*
X103248386Y-77935490D01*
X103334990Y-77985490D01*
X103351114Y-77994799D01*
X103351118Y-77994800D01*
X103465688Y-78025500D01*
X103465691Y-78025500D01*
X104302489Y-78025500D01*
X104337137Y-78039852D01*
X104348739Y-78058316D01*
X104372205Y-78125378D01*
X104372208Y-78125385D01*
X104452849Y-78234650D01*
X104562114Y-78315291D01*
X104562117Y-78315292D01*
X104562118Y-78315293D01*
X104562120Y-78315293D01*
X104562123Y-78315295D01*
X104651726Y-78346648D01*
X104690301Y-78360146D01*
X104720734Y-78363000D01*
X104720744Y-78363000D01*
X105779256Y-78363000D01*
X105779266Y-78363000D01*
X105809699Y-78360146D01*
X105937882Y-78315293D01*
X105958604Y-78300000D01*
X106047150Y-78234650D01*
X106127791Y-78125385D01*
X106127791Y-78125384D01*
X106127793Y-78125382D01*
X106138476Y-78094852D01*
X106151261Y-78058316D01*
X106176251Y-78030353D01*
X106197511Y-78025500D01*
X106684994Y-78025500D01*
X106719642Y-78039852D01*
X106731244Y-78058317D01*
X106772204Y-78175376D01*
X106772208Y-78175385D01*
X106852849Y-78284650D01*
X106962114Y-78365291D01*
X106962117Y-78365292D01*
X106962118Y-78365293D01*
X106962120Y-78365293D01*
X106962123Y-78365295D01*
X107090301Y-78410146D01*
X107120734Y-78413000D01*
X107120744Y-78413000D01*
X108179256Y-78413000D01*
X108179266Y-78413000D01*
X108209699Y-78410146D01*
X108337882Y-78365293D01*
X108340991Y-78362999D01*
X108447150Y-78284650D01*
X108527791Y-78175385D01*
X108527791Y-78175384D01*
X108527793Y-78175382D01*
X108540465Y-78139167D01*
X108551261Y-78108316D01*
X108576251Y-78080353D01*
X108597511Y-78075500D01*
X109511525Y-78075500D01*
X109546173Y-78089852D01*
X109548582Y-78092787D01*
X109550648Y-78094854D01*
X109570796Y-78108316D01*
X109616967Y-78139167D01*
X109675450Y-78150800D01*
X109675453Y-78150800D01*
X110324543Y-78150800D01*
X110324546Y-78150800D01*
X110383029Y-78139167D01*
X110449350Y-78094852D01*
X110493665Y-78028531D01*
X110505298Y-77970048D01*
X110505298Y-76494702D01*
X110519650Y-76460054D01*
X110554298Y-76445702D01*
X110559536Y-76445983D01*
X110597365Y-76450050D01*
X110699999Y-76450050D01*
X111199999Y-76450050D01*
X111302633Y-76450050D01*
X111340462Y-76445983D01*
X111376446Y-76456549D01*
X111394419Y-76489464D01*
X111394700Y-76494702D01*
X111394700Y-77970048D01*
X111406333Y-78028531D01*
X111413898Y-78039852D01*
X111450647Y-78094852D01*
X111470798Y-78108316D01*
X111516969Y-78139167D01*
X111575452Y-78150800D01*
X111575455Y-78150800D01*
X112224545Y-78150800D01*
X112224548Y-78150800D01*
X112283031Y-78139167D01*
X112349352Y-78094852D01*
X112393667Y-78028531D01*
X112405300Y-77970048D01*
X112405300Y-77949500D01*
X112419652Y-77914852D01*
X112454300Y-77900500D01*
X113243742Y-77900500D01*
X113278390Y-77914852D01*
X113289992Y-77933317D01*
X113322204Y-78025376D01*
X113322208Y-78025385D01*
X113402849Y-78134650D01*
X113512114Y-78215291D01*
X113512117Y-78215292D01*
X113512118Y-78215293D01*
X113512120Y-78215293D01*
X113512123Y-78215295D01*
X113640301Y-78260146D01*
X113670734Y-78263000D01*
X113670744Y-78263000D01*
X113937426Y-78263000D01*
X113972074Y-78277352D01*
X113986426Y-78312000D01*
X113972074Y-78346648D01*
X113952839Y-78358513D01*
X113855877Y-78390642D01*
X113706656Y-78482682D01*
X113582682Y-78606656D01*
X113490642Y-78755877D01*
X113435493Y-78922306D01*
X113425000Y-79025018D01*
X113425000Y-79300000D01*
X115599999Y-79300000D01*
X115599999Y-79025019D01*
X115589506Y-78922306D01*
X115534357Y-78755877D01*
X115442317Y-78606656D01*
X115318343Y-78482682D01*
X115169122Y-78390642D01*
X115002693Y-78335493D01*
X114899981Y-78325000D01*
X114862751Y-78325000D01*
X114828103Y-78310648D01*
X114813751Y-78276000D01*
X114828103Y-78241352D01*
X114846568Y-78229750D01*
X114887876Y-78215295D01*
X114887874Y-78215295D01*
X114887882Y-78215293D01*
X114907928Y-78200499D01*
X114997150Y-78134650D01*
X115077791Y-78025385D01*
X115077791Y-78025384D01*
X115077793Y-78025382D01*
X115088494Y-77994800D01*
X115101261Y-77958316D01*
X115126251Y-77930353D01*
X115147511Y-77925500D01*
X115352489Y-77925500D01*
X115387137Y-77939852D01*
X115398739Y-77958316D01*
X115422205Y-78025378D01*
X115422208Y-78025385D01*
X115502849Y-78134650D01*
X115612114Y-78215291D01*
X115612117Y-78215292D01*
X115612118Y-78215293D01*
X115612120Y-78215293D01*
X115612123Y-78215295D01*
X115740301Y-78260146D01*
X115770734Y-78263000D01*
X115800500Y-78263000D01*
X115835148Y-78277352D01*
X115849500Y-78312000D01*
X115849500Y-78847238D01*
X115846750Y-78863421D01*
X115802353Y-78990300D01*
X115802353Y-78990301D01*
X115799500Y-79020724D01*
X115799500Y-80079275D01*
X115802353Y-80109698D01*
X115802353Y-80109699D01*
X115847204Y-80237876D01*
X115847208Y-80237885D01*
X115927849Y-80347150D01*
X116037114Y-80427791D01*
X116037116Y-80427791D01*
X116037118Y-80427793D01*
X116104184Y-80451260D01*
X116132147Y-80476249D01*
X116137000Y-80497510D01*
X116137000Y-81371100D01*
X116122648Y-81405748D01*
X116088000Y-81420100D01*
X115459852Y-81420100D01*
X115401369Y-81431733D01*
X115335047Y-81476047D01*
X115290734Y-81542368D01*
X115290733Y-81542369D01*
X115279100Y-81600852D01*
X115279100Y-82199148D01*
X115290733Y-82257631D01*
X115307111Y-82282142D01*
X115335048Y-82323953D01*
X115350471Y-82334258D01*
X115371307Y-82365440D01*
X115363991Y-82402222D01*
X115350473Y-82415741D01*
X115335048Y-82426047D01*
X115310205Y-82463228D01*
X115290733Y-82492370D01*
X115279100Y-82550853D01*
X115279100Y-83149149D01*
X115290733Y-83207632D01*
X115310205Y-83236773D01*
X115335048Y-83273954D01*
X115350471Y-83284259D01*
X115371307Y-83315441D01*
X115363991Y-83352223D01*
X115350473Y-83365742D01*
X115335048Y-83376048D01*
X115295518Y-83435210D01*
X115290733Y-83442371D01*
X115279100Y-83500854D01*
X115279100Y-84099150D01*
X115290733Y-84157633D01*
X115308482Y-84184197D01*
X115335047Y-84223954D01*
X115361612Y-84241703D01*
X115401369Y-84268269D01*
X115459852Y-84279902D01*
X115459855Y-84279902D01*
X117124945Y-84279902D01*
X117124948Y-84279902D01*
X117183431Y-84268269D01*
X117249752Y-84223954D01*
X117294067Y-84157633D01*
X117297586Y-84139941D01*
X117318420Y-84108760D01*
X117345644Y-84100502D01*
X117933169Y-84100502D01*
X117967817Y-84114854D01*
X117974395Y-84123018D01*
X117974624Y-84123375D01*
X118004308Y-84157632D01*
X118068872Y-84232143D01*
X118189947Y-84309953D01*
X118254482Y-84328902D01*
X118328034Y-84350499D01*
X118328037Y-84350499D01*
X118328039Y-84350500D01*
X118328040Y-84350500D01*
X118471960Y-84350500D01*
X118471961Y-84350500D01*
X118471963Y-84350499D01*
X118471965Y-84350499D01*
X118508746Y-84339699D01*
X118610053Y-84309953D01*
X118731128Y-84232143D01*
X118825377Y-84123373D01*
X118885165Y-83992457D01*
X118885165Y-83992455D01*
X118885166Y-83992454D01*
X118905647Y-83850002D01*
X118905647Y-83849997D01*
X118885166Y-83707545D01*
X118865526Y-83664540D01*
X118825377Y-83576627D01*
X118822020Y-83572753D01*
X118731131Y-83467860D01*
X118731129Y-83467859D01*
X118731128Y-83467857D01*
X118723006Y-83462637D01*
X118701619Y-83431830D01*
X118700500Y-83421417D01*
X118700500Y-82728582D01*
X118714852Y-82693934D01*
X118723005Y-82687363D01*
X118731128Y-82682143D01*
X118825377Y-82573373D01*
X118885165Y-82442457D01*
X118885165Y-82442455D01*
X118885166Y-82442454D01*
X118905647Y-82300002D01*
X118905647Y-82299997D01*
X118885166Y-82157545D01*
X118880751Y-82147879D01*
X118825377Y-82026627D01*
X118731128Y-81917857D01*
X118610053Y-81840047D01*
X118610050Y-81840046D01*
X118471965Y-81799500D01*
X118471961Y-81799500D01*
X118328039Y-81799500D01*
X118328034Y-81799500D01*
X118189949Y-81840046D01*
X118068871Y-81917857D01*
X117974625Y-82026623D01*
X117974624Y-82026625D01*
X117914833Y-82157545D01*
X117894353Y-82299997D01*
X117894353Y-82300002D01*
X117909850Y-82407793D01*
X117900575Y-82444131D01*
X117868322Y-82463267D01*
X117834858Y-82455988D01*
X117810051Y-82440046D01*
X117671965Y-82399500D01*
X117671961Y-82399500D01*
X117528039Y-82399500D01*
X117528034Y-82399500D01*
X117389948Y-82440046D01*
X117338903Y-82472850D01*
X117301995Y-82479508D01*
X117271670Y-82458851D01*
X117249752Y-82426048D01*
X117234327Y-82415742D01*
X117213492Y-82384560D01*
X117220808Y-82347777D01*
X117234327Y-82334258D01*
X117249752Y-82323952D01*
X117294067Y-82257631D01*
X117305700Y-82199148D01*
X117305700Y-81600852D01*
X117294067Y-81542369D01*
X117267501Y-81502612D01*
X117249752Y-81476047D01*
X117209995Y-81449482D01*
X117183431Y-81431733D01*
X117124948Y-81420100D01*
X117124945Y-81420100D01*
X117087000Y-81420100D01*
X117052352Y-81405748D01*
X117038000Y-81371100D01*
X117038000Y-80497510D01*
X117052352Y-80462862D01*
X117070813Y-80451261D01*
X117137882Y-80427793D01*
X117247150Y-80347150D01*
X117327793Y-80237882D01*
X117372646Y-80109699D01*
X117375500Y-80079266D01*
X117375500Y-79020734D01*
X117372646Y-78990301D01*
X117327793Y-78862118D01*
X117327792Y-78862117D01*
X117327791Y-78862114D01*
X117247150Y-78752849D01*
X117137885Y-78672208D01*
X117137876Y-78672204D01*
X117009698Y-78627353D01*
X116979275Y-78624500D01*
X116979266Y-78624500D01*
X116799500Y-78624500D01*
X116764852Y-78610148D01*
X116750500Y-78575500D01*
X116750500Y-78312000D01*
X116764852Y-78277352D01*
X116799500Y-78263000D01*
X116829256Y-78263000D01*
X116829266Y-78263000D01*
X116859699Y-78260146D01*
X116987882Y-78215293D01*
X117007928Y-78200499D01*
X117097150Y-78134650D01*
X117177791Y-78025385D01*
X117177791Y-78025384D01*
X117177793Y-78025382D01*
X117222646Y-77897199D01*
X117225500Y-77866766D01*
X117225500Y-77083234D01*
X117222646Y-77052801D01*
X117212785Y-77024621D01*
X117177795Y-76924623D01*
X117177791Y-76924614D01*
X117097150Y-76815349D01*
X116987885Y-76734708D01*
X116987876Y-76734704D01*
X116859698Y-76689853D01*
X116829275Y-76687000D01*
X116829266Y-76687000D01*
X115770734Y-76687000D01*
X115770724Y-76687000D01*
X115740301Y-76689853D01*
X115740300Y-76689853D01*
X115612123Y-76734704D01*
X115612114Y-76734708D01*
X115502849Y-76815349D01*
X115422208Y-76924614D01*
X115422205Y-76924621D01*
X115398739Y-76991684D01*
X115373749Y-77019647D01*
X115352489Y-77024500D01*
X115147511Y-77024500D01*
X115112863Y-77010148D01*
X115101261Y-76991684D01*
X115077794Y-76924621D01*
X115077791Y-76924614D01*
X114997150Y-76815349D01*
X114887885Y-76734708D01*
X114887876Y-76734704D01*
X114759698Y-76689853D01*
X114729275Y-76687000D01*
X114729266Y-76687000D01*
X113670734Y-76687000D01*
X113670724Y-76687000D01*
X113640301Y-76689853D01*
X113640300Y-76689853D01*
X113512123Y-76734704D01*
X113512114Y-76734708D01*
X113402849Y-76815349D01*
X113322208Y-76924615D01*
X113322207Y-76924618D01*
X113307487Y-76966684D01*
X113282499Y-76994647D01*
X113261238Y-76999500D01*
X112454300Y-76999500D01*
X112419652Y-76985148D01*
X112405300Y-76950500D01*
X112405300Y-76304955D01*
X112405300Y-76304952D01*
X112393667Y-76246469D01*
X112366521Y-76205843D01*
X112349352Y-76180147D01*
X112309595Y-76153582D01*
X112283031Y-76135833D01*
X112224548Y-76124200D01*
X111794065Y-76124200D01*
X111759417Y-76109848D01*
X111745065Y-76075200D01*
X111747732Y-76060419D01*
X111747692Y-76060410D01*
X111747870Y-76059656D01*
X111748156Y-76058072D01*
X111748397Y-76057425D01*
X111748397Y-76057422D01*
X111754799Y-75997884D01*
X111754799Y-75787480D01*
X112975001Y-75787480D01*
X112985493Y-75890193D01*
X113040642Y-76056622D01*
X113132682Y-76205843D01*
X113256656Y-76329817D01*
X113405877Y-76421857D01*
X113572306Y-76477006D01*
X113675018Y-76487499D01*
X113949999Y-76487499D01*
X114450000Y-76487499D01*
X114724980Y-76487499D01*
X114827693Y-76477006D01*
X114994122Y-76421857D01*
X115143343Y-76329817D01*
X115215352Y-76257809D01*
X115250000Y-76243457D01*
X115284648Y-76257809D01*
X115356656Y-76329817D01*
X115505877Y-76421857D01*
X115672306Y-76477006D01*
X115775018Y-76487499D01*
X116049999Y-76487499D01*
X116550000Y-76487499D01*
X116824980Y-76487499D01*
X116927693Y-76477006D01*
X117094122Y-76421857D01*
X117243343Y-76329817D01*
X117367317Y-76205843D01*
X117459357Y-76056622D01*
X117514506Y-75890193D01*
X117525000Y-75787481D01*
X117525000Y-75650000D01*
X116550000Y-75650000D01*
X116550000Y-76487499D01*
X116049999Y-76487499D01*
X116050000Y-76487498D01*
X116050000Y-75650000D01*
X114450000Y-75650000D01*
X114450000Y-76487499D01*
X113949999Y-76487499D01*
X113950000Y-76487498D01*
X113950000Y-75650000D01*
X112975001Y-75650000D01*
X112975001Y-75787480D01*
X111754799Y-75787480D01*
X111754799Y-75387250D01*
X111199999Y-75387250D01*
X111199999Y-76450050D01*
X110699999Y-76450050D01*
X110699999Y-75012518D01*
X112975000Y-75012518D01*
X112975000Y-75150000D01*
X113950000Y-75150000D01*
X114450000Y-75150000D01*
X116050000Y-75150000D01*
X116550000Y-75150000D01*
X117524999Y-75150000D01*
X117524999Y-75012519D01*
X117514506Y-74909806D01*
X117459357Y-74743377D01*
X117367317Y-74594156D01*
X117243343Y-74470182D01*
X117094122Y-74378142D01*
X116927693Y-74322993D01*
X116824981Y-74312500D01*
X116550000Y-74312500D01*
X116550000Y-75150000D01*
X116050000Y-75150000D01*
X116050000Y-74312500D01*
X115775019Y-74312500D01*
X115672306Y-74322993D01*
X115505877Y-74378142D01*
X115356656Y-74470182D01*
X115284648Y-74542191D01*
X115250000Y-74556543D01*
X115215352Y-74542191D01*
X115143343Y-74470182D01*
X114994122Y-74378142D01*
X114827693Y-74322993D01*
X114724981Y-74312500D01*
X114450000Y-74312500D01*
X114450000Y-75150000D01*
X113950000Y-75150000D01*
X113950000Y-74312500D01*
X113675019Y-74312500D01*
X113572306Y-74322993D01*
X113405877Y-74378142D01*
X113256656Y-74470182D01*
X113132682Y-74594156D01*
X113040642Y-74743377D01*
X112985493Y-74909806D01*
X112975000Y-75012518D01*
X110699999Y-75012518D01*
X110699999Y-74887250D01*
X111199999Y-74887250D01*
X111754799Y-74887250D01*
X111754799Y-74276615D01*
X111748397Y-74217077D01*
X111748397Y-74217076D01*
X111698150Y-74082358D01*
X111611987Y-73967261D01*
X111496890Y-73881098D01*
X111362172Y-73830851D01*
X111302633Y-73824450D01*
X111199999Y-73824450D01*
X111199999Y-74887250D01*
X110699999Y-74887250D01*
X110699999Y-73824450D01*
X110597365Y-73824450D01*
X110537826Y-73830851D01*
X110537819Y-73830852D01*
X110516620Y-73838759D01*
X110479141Y-73837419D01*
X110453587Y-73809970D01*
X110450498Y-73792848D01*
X110450498Y-71256901D01*
X110464850Y-71222253D01*
X110949227Y-70737876D01*
X111460490Y-70226614D01*
X111519799Y-70123887D01*
X111529424Y-70087965D01*
X111543396Y-70035822D01*
X111550500Y-70009310D01*
X111550500Y-69149500D01*
X111564852Y-69114852D01*
X111599500Y-69100500D01*
X111604256Y-69100500D01*
X111604266Y-69100500D01*
X111634699Y-69097646D01*
X111762882Y-69052793D01*
X111766667Y-69050000D01*
X111872150Y-68972150D01*
X111952791Y-68862885D01*
X111952791Y-68862884D01*
X111952793Y-68862882D01*
X111980634Y-68783317D01*
X112005623Y-68755353D01*
X112026884Y-68750500D01*
X112293101Y-68750500D01*
X112327749Y-68764852D01*
X112585148Y-69022251D01*
X112599500Y-69056899D01*
X112599500Y-70359310D01*
X112616353Y-70422205D01*
X112616353Y-70422207D01*
X112630200Y-70473885D01*
X112630201Y-70473888D01*
X112664717Y-70533670D01*
X112689511Y-70576614D01*
X113973386Y-71860489D01*
X113973387Y-71860490D01*
X113973389Y-71860491D01*
X113996400Y-71873776D01*
X114032696Y-71894731D01*
X114076114Y-71919799D01*
X114076116Y-71919799D01*
X114076117Y-71919800D01*
X114190687Y-71950499D01*
X114190688Y-71950500D01*
X114190691Y-71950500D01*
X118543101Y-71950500D01*
X118577749Y-71964852D01*
X119535148Y-72922251D01*
X119549500Y-72956899D01*
X119549500Y-90443100D01*
X119535148Y-90477748D01*
X119327749Y-90685148D01*
X119293101Y-90699500D01*
X115056899Y-90699500D01*
X115022251Y-90685148D01*
X114126917Y-89789814D01*
X114112565Y-89755166D01*
X114126917Y-89720518D01*
X114145381Y-89708916D01*
X114162882Y-89702793D01*
X114272150Y-89622150D01*
X114352793Y-89512882D01*
X114397646Y-89384699D01*
X114400500Y-89354266D01*
X114400500Y-89349980D01*
X115500001Y-89349980D01*
X115510493Y-89452693D01*
X115565642Y-89619122D01*
X115657682Y-89768343D01*
X115781656Y-89892317D01*
X115930877Y-89984357D01*
X116097306Y-90039506D01*
X116200018Y-90049999D01*
X116412499Y-90049999D01*
X116912500Y-90049999D01*
X117124980Y-90049999D01*
X117227693Y-90039506D01*
X117394122Y-89984357D01*
X117543343Y-89892317D01*
X117667317Y-89768343D01*
X117759357Y-89619122D01*
X117814506Y-89452693D01*
X117825000Y-89349981D01*
X117825000Y-88900000D01*
X116912500Y-88900000D01*
X116912500Y-90049999D01*
X116412499Y-90049999D01*
X116412500Y-90049998D01*
X116412500Y-88900000D01*
X115500001Y-88900000D01*
X115500001Y-89349980D01*
X114400500Y-89349980D01*
X114400500Y-87950018D01*
X115500000Y-87950018D01*
X115500000Y-88400000D01*
X116412500Y-88400000D01*
X116912500Y-88400000D01*
X117824999Y-88400000D01*
X117824999Y-87950019D01*
X117814506Y-87847306D01*
X117759357Y-87680877D01*
X117667317Y-87531656D01*
X117543343Y-87407682D01*
X117394122Y-87315642D01*
X117227693Y-87260493D01*
X117124981Y-87250000D01*
X116912500Y-87250000D01*
X116912500Y-88400000D01*
X116412500Y-88400000D01*
X116412500Y-87256000D01*
X116426852Y-87221352D01*
X116461500Y-87207000D01*
X116470573Y-87207000D01*
X116509357Y-87144122D01*
X116564506Y-86977693D01*
X116575000Y-86874981D01*
X116575000Y-86600000D01*
X115737500Y-86600000D01*
X115737500Y-87569000D01*
X115723148Y-87603648D01*
X115688500Y-87618000D01*
X115604426Y-87618000D01*
X115565642Y-87680877D01*
X115510493Y-87847306D01*
X115500000Y-87950018D01*
X114400500Y-87950018D01*
X114400500Y-87945734D01*
X114397646Y-87915301D01*
X114388881Y-87890253D01*
X114352795Y-87787123D01*
X114352791Y-87787114D01*
X114272150Y-87677849D01*
X114162885Y-87597208D01*
X114162876Y-87597204D01*
X114034699Y-87552353D01*
X114032422Y-87552140D01*
X113999266Y-87534614D01*
X113988000Y-87503354D01*
X113988000Y-87233991D01*
X114002352Y-87199343D01*
X114007894Y-87194572D01*
X114072150Y-87147150D01*
X114072150Y-87147148D01*
X114072152Y-87147148D01*
X114152791Y-87037885D01*
X114152791Y-87037884D01*
X114152793Y-87037882D01*
X114197646Y-86909699D01*
X114200500Y-86879266D01*
X114200500Y-86874980D01*
X114400001Y-86874980D01*
X114410493Y-86977693D01*
X114465642Y-87144122D01*
X114557682Y-87293343D01*
X114681656Y-87417317D01*
X114830877Y-87509357D01*
X114997306Y-87564506D01*
X115100018Y-87574999D01*
X115237499Y-87574999D01*
X115237500Y-87574998D01*
X115237500Y-86600000D01*
X114400001Y-86600000D01*
X114400001Y-86874980D01*
X114200500Y-86874980D01*
X114200500Y-85825018D01*
X114400000Y-85825018D01*
X114400000Y-86100000D01*
X115237500Y-86100000D01*
X115737500Y-86100000D01*
X116574999Y-86100000D01*
X116574999Y-85825019D01*
X116564506Y-85722306D01*
X116509357Y-85555877D01*
X116417317Y-85406656D01*
X116293343Y-85282682D01*
X116144122Y-85190642D01*
X115977693Y-85135493D01*
X115874981Y-85125000D01*
X115737500Y-85125000D01*
X115737500Y-86100000D01*
X115237500Y-86100000D01*
X115237500Y-85125000D01*
X115100019Y-85125000D01*
X114997306Y-85135493D01*
X114830877Y-85190642D01*
X114681656Y-85282682D01*
X114557682Y-85406656D01*
X114465642Y-85555877D01*
X114410493Y-85722306D01*
X114400000Y-85825018D01*
X114200500Y-85825018D01*
X114200500Y-85820734D01*
X114197646Y-85790301D01*
X114195847Y-85785161D01*
X114152795Y-85662123D01*
X114152791Y-85662114D01*
X114072150Y-85552849D01*
X113962884Y-85472208D01*
X113962882Y-85472207D01*
X113895816Y-85448739D01*
X113867852Y-85423749D01*
X113863000Y-85402489D01*
X113863000Y-84328902D01*
X113877352Y-84294254D01*
X113912000Y-84279902D01*
X114432545Y-84279902D01*
X114432548Y-84279902D01*
X114491031Y-84268269D01*
X114557352Y-84223954D01*
X114601667Y-84157633D01*
X114613300Y-84099150D01*
X114613300Y-83622287D01*
X114627652Y-83587639D01*
X114645177Y-83576376D01*
X114654890Y-83572753D01*
X114769988Y-83486589D01*
X114856151Y-83371492D01*
X114906398Y-83236774D01*
X114906398Y-83236773D01*
X114912800Y-83177235D01*
X114912800Y-83100001D01*
X112287200Y-83100001D01*
X112287200Y-83177235D01*
X112293601Y-83236773D01*
X112293601Y-83236774D01*
X112343848Y-83371492D01*
X112430011Y-83486589D01*
X112545109Y-83572753D01*
X112554823Y-83576376D01*
X112582272Y-83601931D01*
X112586700Y-83622287D01*
X112586700Y-84099150D01*
X112598333Y-84157633D01*
X112616082Y-84184197D01*
X112642647Y-84223954D01*
X112669212Y-84241703D01*
X112708969Y-84268269D01*
X112767452Y-84279902D01*
X112913000Y-84279902D01*
X112947648Y-84294254D01*
X112962000Y-84328902D01*
X112962000Y-85402489D01*
X112947648Y-85437137D01*
X112929184Y-85448739D01*
X112862115Y-85472208D01*
X112752849Y-85552849D01*
X112672208Y-85662114D01*
X112672204Y-85662123D01*
X112627353Y-85790300D01*
X112627353Y-85790301D01*
X112624500Y-85820724D01*
X112624500Y-86879275D01*
X112627353Y-86909698D01*
X112627353Y-86909699D01*
X112672204Y-87037876D01*
X112672208Y-87037885D01*
X112752849Y-87147150D01*
X112862114Y-87227791D01*
X112862117Y-87227792D01*
X112862118Y-87227793D01*
X112862120Y-87227793D01*
X112862123Y-87227795D01*
X112986506Y-87271318D01*
X112990301Y-87272646D01*
X113020734Y-87275500D01*
X113038000Y-87275500D01*
X113072648Y-87289852D01*
X113087000Y-87324500D01*
X113087000Y-87503354D01*
X113072648Y-87538002D01*
X113042578Y-87552140D01*
X113040301Y-87552353D01*
X113040300Y-87552353D01*
X112912123Y-87597204D01*
X112912114Y-87597208D01*
X112802849Y-87677849D01*
X112722208Y-87787114D01*
X112722204Y-87787123D01*
X112677353Y-87915300D01*
X112677353Y-87915301D01*
X112674500Y-87945724D01*
X112674500Y-89354275D01*
X112677353Y-89384698D01*
X112677353Y-89384699D01*
X112722204Y-89512876D01*
X112722208Y-89512885D01*
X112802849Y-89622150D01*
X112912114Y-89702791D01*
X112912117Y-89702792D01*
X112912118Y-89702793D01*
X112912120Y-89702793D01*
X112912123Y-89702795D01*
X113003223Y-89734672D01*
X113040301Y-89747646D01*
X113042570Y-89747858D01*
X113075728Y-89765378D01*
X113087000Y-89796645D01*
X113087000Y-89896810D01*
X113108560Y-89977271D01*
X113108560Y-89977273D01*
X113117700Y-90011386D01*
X113117701Y-90011388D01*
X113160210Y-90085014D01*
X113177011Y-90114114D01*
X114573386Y-91510489D01*
X114632696Y-91544731D01*
X114676114Y-91569799D01*
X114676116Y-91569799D01*
X114676117Y-91569800D01*
X114790687Y-91600499D01*
X114790688Y-91600500D01*
X114790691Y-91600500D01*
X119559311Y-91600500D01*
X119589430Y-91592428D01*
X119649673Y-91576286D01*
X119673887Y-91569799D01*
X119776614Y-91510489D01*
X120360490Y-90926614D01*
X120419799Y-90823887D01*
X120437833Y-90756581D01*
X120445615Y-90727541D01*
X120450500Y-90709310D01*
X120450500Y-72690688D01*
X120422418Y-72585887D01*
X120419799Y-72576113D01*
X120419797Y-72576110D01*
X120419798Y-72576110D01*
X120360488Y-72473385D01*
X119026614Y-71139511D01*
X118923890Y-71080202D01*
X118923887Y-71080201D01*
X118894052Y-71072207D01*
X118859882Y-71063051D01*
X118809311Y-71049500D01*
X118809309Y-71049500D01*
X114456899Y-71049500D01*
X114422251Y-71035148D01*
X113514852Y-70127749D01*
X113500500Y-70093101D01*
X113500500Y-68790688D01*
X113469799Y-68676115D01*
X113469798Y-68676111D01*
X113426143Y-68600500D01*
X113426142Y-68600499D01*
X113425842Y-68599980D01*
X113410489Y-68573386D01*
X112776614Y-67939511D01*
X112711930Y-67902165D01*
X115100000Y-67902165D01*
X115100000Y-68550000D01*
X116016988Y-68550000D01*
X115984075Y-68607007D01*
X115950000Y-68734174D01*
X115950000Y-68865826D01*
X115984075Y-68992993D01*
X116016988Y-69050000D01*
X115100000Y-69050000D01*
X115100000Y-69697834D01*
X115106401Y-69757372D01*
X115106401Y-69757373D01*
X115156648Y-69892091D01*
X115242811Y-70007188D01*
X115357908Y-70093351D01*
X115492626Y-70143598D01*
X115552166Y-70150000D01*
X116200000Y-70150000D01*
X116200000Y-69233012D01*
X116257007Y-69265925D01*
X116384174Y-69300000D01*
X116515826Y-69300000D01*
X116642993Y-69265925D01*
X116700000Y-69233012D01*
X116700000Y-70150000D01*
X117347834Y-70150000D01*
X117407372Y-70143598D01*
X117407373Y-70143598D01*
X117542091Y-70093351D01*
X117657188Y-70007188D01*
X117743351Y-69892091D01*
X117793598Y-69757373D01*
X117793598Y-69757372D01*
X117800000Y-69697834D01*
X117800000Y-69050000D01*
X116883012Y-69050000D01*
X116915925Y-68992993D01*
X116950000Y-68865826D01*
X116950000Y-68734174D01*
X116915925Y-68607007D01*
X116883012Y-68550000D01*
X117800000Y-68550000D01*
X117800000Y-67902165D01*
X117793598Y-67842627D01*
X117793598Y-67842626D01*
X117743351Y-67707908D01*
X117657188Y-67592811D01*
X117542091Y-67506648D01*
X117407373Y-67456401D01*
X117347834Y-67450000D01*
X116700000Y-67450000D01*
X116700000Y-68366988D01*
X116642993Y-68334075D01*
X116515826Y-68300000D01*
X116384174Y-68300000D01*
X116257007Y-68334075D01*
X116200000Y-68366988D01*
X116200000Y-67450000D01*
X115552166Y-67450000D01*
X115492627Y-67456401D01*
X115492626Y-67456401D01*
X115357908Y-67506648D01*
X115242811Y-67592811D01*
X115156648Y-67707908D01*
X115106401Y-67842626D01*
X115106401Y-67842627D01*
X115100000Y-67902165D01*
X112711930Y-67902165D01*
X112673890Y-67880202D01*
X112673887Y-67880201D01*
X112648452Y-67873386D01*
X112618737Y-67865424D01*
X112559311Y-67849500D01*
X112559309Y-67849500D01*
X112026884Y-67849500D01*
X111992236Y-67835148D01*
X111980634Y-67816683D01*
X111952795Y-67737123D01*
X111952791Y-67737114D01*
X111872150Y-67627849D01*
X111762885Y-67547208D01*
X111762876Y-67547204D01*
X111634698Y-67502353D01*
X111604275Y-67499500D01*
X111604266Y-67499500D01*
X110595734Y-67499500D01*
X110595724Y-67499500D01*
X110565301Y-67502353D01*
X110565300Y-67502353D01*
X110437123Y-67547204D01*
X110437114Y-67547208D01*
X110327849Y-67627849D01*
X110247208Y-67737114D01*
X110247204Y-67737123D01*
X110219366Y-67816683D01*
X110194377Y-67844647D01*
X110173116Y-67849500D01*
X109699500Y-67849500D01*
X109664852Y-67835148D01*
X109650500Y-67800500D01*
X109650500Y-65895724D01*
X110199500Y-65895724D01*
X110199500Y-66704275D01*
X110202353Y-66734698D01*
X110202353Y-66734699D01*
X110247204Y-66862876D01*
X110247208Y-66862885D01*
X110327849Y-66972150D01*
X110437114Y-67052791D01*
X110437117Y-67052792D01*
X110437118Y-67052793D01*
X110437120Y-67052793D01*
X110437123Y-67052795D01*
X110565301Y-67097646D01*
X110595734Y-67100500D01*
X110595744Y-67100500D01*
X111604256Y-67100500D01*
X111604266Y-67100500D01*
X111634699Y-67097646D01*
X111762882Y-67052793D01*
X111783932Y-67037258D01*
X111872150Y-66972150D01*
X111952791Y-66862885D01*
X111952791Y-66862884D01*
X111952793Y-66862882D01*
X111997646Y-66734699D01*
X112000500Y-66704266D01*
X112000500Y-66609500D01*
X112014852Y-66574852D01*
X112049500Y-66560500D01*
X115407045Y-66560500D01*
X115441693Y-66574852D01*
X115453935Y-66595276D01*
X115474768Y-66663954D01*
X115572315Y-66846450D01*
X115703590Y-67006410D01*
X115863550Y-67137685D01*
X116046046Y-67235232D01*
X116244066Y-67295300D01*
X116450000Y-67315583D01*
X116655934Y-67295300D01*
X116853954Y-67235232D01*
X117036450Y-67137685D01*
X117196410Y-67006410D01*
X117327685Y-66846450D01*
X117425232Y-66663954D01*
X117446065Y-66595276D01*
X117469857Y-66566286D01*
X117492955Y-66560500D01*
X119184415Y-66560500D01*
X119219063Y-66574852D01*
X119221447Y-66577412D01*
X119249252Y-66609500D01*
X119268872Y-66632143D01*
X119389947Y-66709953D01*
X119461627Y-66731000D01*
X119528034Y-66750499D01*
X119528037Y-66750499D01*
X119528039Y-66750500D01*
X119528040Y-66750500D01*
X119671960Y-66750500D01*
X119671961Y-66750500D01*
X119671963Y-66750499D01*
X119671965Y-66750499D01*
X119699837Y-66742315D01*
X119810053Y-66709953D01*
X119931128Y-66632143D01*
X120025377Y-66523373D01*
X120085165Y-66392457D01*
X120085165Y-66392455D01*
X120085166Y-66392454D01*
X120105647Y-66250002D01*
X120105647Y-66249997D01*
X120085166Y-66107545D01*
X120080751Y-66097879D01*
X120025377Y-65976627D01*
X120010536Y-65959500D01*
X119931128Y-65867857D01*
X119927149Y-65865300D01*
X119810053Y-65790047D01*
X119810050Y-65790046D01*
X119671965Y-65749500D01*
X119671961Y-65749500D01*
X119528039Y-65749500D01*
X119528034Y-65749500D01*
X119389949Y-65790046D01*
X119268871Y-65867857D01*
X119204118Y-65942588D01*
X119170582Y-65959375D01*
X119167086Y-65959500D01*
X117492955Y-65959500D01*
X117458307Y-65945148D01*
X117446065Y-65924724D01*
X117441750Y-65910500D01*
X117425232Y-65856046D01*
X117327685Y-65673550D01*
X117196410Y-65513590D01*
X117036450Y-65382315D01*
X116853954Y-65284768D01*
X116655934Y-65224700D01*
X116450000Y-65204417D01*
X116244065Y-65224700D01*
X116244064Y-65224700D01*
X116046043Y-65284769D01*
X115863548Y-65382316D01*
X115703590Y-65513590D01*
X115572316Y-65673548D01*
X115474769Y-65856043D01*
X115453935Y-65924724D01*
X115430143Y-65953714D01*
X115407045Y-65959500D01*
X112049500Y-65959500D01*
X112014852Y-65945148D01*
X112000500Y-65910500D01*
X112000500Y-65895743D01*
X112000499Y-65895724D01*
X111997646Y-65865301D01*
X111997646Y-65865300D01*
X111952795Y-65737123D01*
X111952791Y-65737114D01*
X111872150Y-65627849D01*
X111762885Y-65547208D01*
X111762876Y-65547204D01*
X111634698Y-65502353D01*
X111604275Y-65499500D01*
X111604266Y-65499500D01*
X110595734Y-65499500D01*
X110595724Y-65499500D01*
X110565301Y-65502353D01*
X110565300Y-65502353D01*
X110437123Y-65547204D01*
X110437114Y-65547208D01*
X110327849Y-65627849D01*
X110247208Y-65737114D01*
X110247204Y-65737123D01*
X110202353Y-65865300D01*
X110202353Y-65865301D01*
X110199500Y-65895724D01*
X109650500Y-65895724D01*
X109650500Y-63045724D01*
X110199500Y-63045724D01*
X110199500Y-63854275D01*
X110202353Y-63884698D01*
X110202353Y-63884699D01*
X110247204Y-64012876D01*
X110247208Y-64012885D01*
X110327849Y-64122150D01*
X110437114Y-64202791D01*
X110437117Y-64202792D01*
X110437118Y-64202793D01*
X110437120Y-64202793D01*
X110437123Y-64202795D01*
X110528300Y-64234699D01*
X110565301Y-64247646D01*
X110595734Y-64250500D01*
X110595744Y-64250500D01*
X111604256Y-64250500D01*
X111604266Y-64250500D01*
X111634699Y-64247646D01*
X111762882Y-64202793D01*
X111872150Y-64122150D01*
X111932482Y-64040403D01*
X111964604Y-64021047D01*
X111971907Y-64020500D01*
X115407045Y-64020500D01*
X115441693Y-64034852D01*
X115453935Y-64055276D01*
X115474768Y-64123954D01*
X115572315Y-64306450D01*
X115703590Y-64466410D01*
X115863550Y-64597685D01*
X116046046Y-64695232D01*
X116244066Y-64755300D01*
X116450000Y-64775583D01*
X116655934Y-64755300D01*
X116853954Y-64695232D01*
X117036450Y-64597685D01*
X117196410Y-64466410D01*
X117327685Y-64306450D01*
X117425232Y-64123954D01*
X117485300Y-63925934D01*
X117505583Y-63720000D01*
X117485300Y-63514066D01*
X117425232Y-63316046D01*
X117327685Y-63133550D01*
X117196410Y-62973590D01*
X117036450Y-62842315D01*
X116853954Y-62744768D01*
X116655934Y-62684700D01*
X116450000Y-62664417D01*
X116244065Y-62684700D01*
X116244064Y-62684700D01*
X116046043Y-62744769D01*
X115863548Y-62842316D01*
X115703590Y-62973590D01*
X115572316Y-63133548D01*
X115474769Y-63316043D01*
X115453935Y-63384724D01*
X115430143Y-63413714D01*
X115407045Y-63419500D01*
X112049500Y-63419500D01*
X112014852Y-63405148D01*
X112000500Y-63370500D01*
X112000500Y-63045743D01*
X112000499Y-63045724D01*
X111997646Y-63015301D01*
X111997646Y-63015300D01*
X111952795Y-62887123D01*
X111952791Y-62887114D01*
X111872150Y-62777849D01*
X111762885Y-62697208D01*
X111762876Y-62697204D01*
X111634698Y-62652353D01*
X111604275Y-62649500D01*
X111604266Y-62649500D01*
X110595734Y-62649500D01*
X110595724Y-62649500D01*
X110565301Y-62652353D01*
X110565300Y-62652353D01*
X110437123Y-62697204D01*
X110437114Y-62697208D01*
X110327849Y-62777849D01*
X110247208Y-62887114D01*
X110247204Y-62887123D01*
X110202353Y-63015300D01*
X110202353Y-63015301D01*
X110199500Y-63045724D01*
X109650500Y-63045724D01*
X109650500Y-62356899D01*
X109664852Y-62322251D01*
X110072251Y-61914852D01*
X110106899Y-61900500D01*
X110173116Y-61900500D01*
X110207764Y-61914852D01*
X110219366Y-61933317D01*
X110247204Y-62012876D01*
X110247208Y-62012885D01*
X110327849Y-62122150D01*
X110437114Y-62202791D01*
X110437117Y-62202792D01*
X110437118Y-62202793D01*
X110437120Y-62202793D01*
X110437123Y-62202795D01*
X110472858Y-62215299D01*
X110565301Y-62247646D01*
X110595734Y-62250500D01*
X110595744Y-62250500D01*
X111604256Y-62250500D01*
X111604266Y-62250500D01*
X111634699Y-62247646D01*
X111762882Y-62202793D01*
X111872150Y-62122150D01*
X111952793Y-62012882D01*
X111980634Y-61933317D01*
X112005623Y-61905353D01*
X112026884Y-61900500D01*
X115659151Y-61900500D01*
X115693799Y-61914852D01*
X115697025Y-61918411D01*
X115703590Y-61926410D01*
X115863550Y-62057685D01*
X116046046Y-62155232D01*
X116244066Y-62215300D01*
X116450000Y-62235583D01*
X116655934Y-62215300D01*
X116853954Y-62155232D01*
X117036450Y-62057685D01*
X117196410Y-61926410D01*
X117327685Y-61766450D01*
X117425232Y-61583954D01*
X117485300Y-61385934D01*
X117505583Y-61180000D01*
X117485300Y-60974066D01*
X117425232Y-60776046D01*
X117327685Y-60593550D01*
X117196410Y-60433590D01*
X117036450Y-60302315D01*
X116853954Y-60204768D01*
X116655934Y-60144700D01*
X116450000Y-60124417D01*
X116244065Y-60144700D01*
X116244064Y-60144700D01*
X116046043Y-60204769D01*
X115863548Y-60302316D01*
X115703590Y-60433590D01*
X115572316Y-60593548D01*
X115474769Y-60776043D01*
X115417534Y-60964724D01*
X115393743Y-60993714D01*
X115370644Y-60999500D01*
X112026884Y-60999500D01*
X111992236Y-60985148D01*
X111980634Y-60966683D01*
X111952795Y-60887123D01*
X111952791Y-60887114D01*
X111872150Y-60777849D01*
X111762885Y-60697208D01*
X111762876Y-60697204D01*
X111634698Y-60652353D01*
X111604275Y-60649500D01*
X111604266Y-60649500D01*
X110595734Y-60649500D01*
X110595724Y-60649500D01*
X110565301Y-60652353D01*
X110565300Y-60652353D01*
X110437123Y-60697204D01*
X110437114Y-60697208D01*
X110327849Y-60777849D01*
X110247208Y-60887114D01*
X110247204Y-60887123D01*
X110219366Y-60966683D01*
X110194377Y-60994647D01*
X110173116Y-60999500D01*
X109840688Y-60999500D01*
X109726118Y-61030199D01*
X109726112Y-61030202D01*
X109682696Y-61055268D01*
X109623385Y-61089511D01*
X109623385Y-61089512D01*
X108839512Y-61873385D01*
X108839511Y-61873385D01*
X108780201Y-61976111D01*
X108778532Y-61982343D01*
X108778531Y-61982342D01*
X108778531Y-61982346D01*
X108749500Y-62090688D01*
X108749500Y-62090691D01*
X108749500Y-68209309D01*
X108766379Y-68272304D01*
X108773713Y-68299672D01*
X108773713Y-68299673D01*
X108780200Y-68323886D01*
X108780201Y-68323888D01*
X108808630Y-68373127D01*
X108839511Y-68426614D01*
X109073386Y-68660489D01*
X109176113Y-68719799D01*
X109200326Y-68726286D01*
X109245508Y-68738393D01*
X109290689Y-68750500D01*
X109290691Y-68750500D01*
X110173116Y-68750500D01*
X110207764Y-68764852D01*
X110219366Y-68783317D01*
X110247204Y-68862876D01*
X110247208Y-68862885D01*
X110327849Y-68972150D01*
X110437114Y-69052791D01*
X110437117Y-69052792D01*
X110437118Y-69052793D01*
X110437120Y-69052793D01*
X110437123Y-69052795D01*
X110448852Y-69056899D01*
X110565301Y-69097646D01*
X110595734Y-69100500D01*
X110600500Y-69100500D01*
X110635148Y-69114852D01*
X110649500Y-69149500D01*
X110649500Y-69743100D01*
X110635148Y-69777748D01*
X109639509Y-70773387D01*
X109580199Y-70876113D01*
X109578530Y-70882345D01*
X109578529Y-70882344D01*
X109578529Y-70882348D01*
X109549498Y-70990690D01*
X109549498Y-76167001D01*
X109541240Y-76194224D01*
X109532959Y-76206618D01*
X109506331Y-76246469D01*
X109494698Y-76304952D01*
X109494698Y-76304955D01*
X109494698Y-76985401D01*
X109480346Y-77020049D01*
X109340247Y-77160148D01*
X109305599Y-77174500D01*
X108597511Y-77174500D01*
X108562863Y-77160148D01*
X108551261Y-77141684D01*
X108527794Y-77074621D01*
X108527791Y-77074614D01*
X108447150Y-76965349D01*
X108337885Y-76884708D01*
X108337876Y-76884704D01*
X108209698Y-76839853D01*
X108179275Y-76837000D01*
X108179266Y-76837000D01*
X107120734Y-76837000D01*
X107120724Y-76837000D01*
X107090301Y-76839853D01*
X107090300Y-76839853D01*
X106962123Y-76884704D01*
X106962114Y-76884708D01*
X106852849Y-76965349D01*
X106772207Y-77074616D01*
X106772205Y-77074619D01*
X106766235Y-77091683D01*
X106741246Y-77119647D01*
X106719985Y-77124500D01*
X106197511Y-77124500D01*
X106162863Y-77110148D01*
X106151261Y-77091684D01*
X106127794Y-77024621D01*
X106127791Y-77024614D01*
X106047150Y-76915349D01*
X105937885Y-76834708D01*
X105937876Y-76834704D01*
X105809698Y-76789853D01*
X105779275Y-76787000D01*
X105779266Y-76787000D01*
X104720734Y-76787000D01*
X104720724Y-76787000D01*
X104690301Y-76789853D01*
X104690300Y-76789853D01*
X104562123Y-76834704D01*
X104562114Y-76834708D01*
X104452849Y-76915349D01*
X104372208Y-77024614D01*
X104372205Y-77024621D01*
X104348739Y-77091684D01*
X104323749Y-77119647D01*
X104302489Y-77124500D01*
X103731900Y-77124500D01*
X103697252Y-77110148D01*
X102670946Y-76083843D01*
X102661022Y-76069550D01*
X102655780Y-76058072D01*
X102652521Y-76050935D01*
X102642428Y-76028833D01*
X102638000Y-76008478D01*
X102638000Y-75887480D01*
X104025001Y-75887480D01*
X104035493Y-75990193D01*
X104090642Y-76156622D01*
X104182682Y-76305843D01*
X104306656Y-76429817D01*
X104455877Y-76521857D01*
X104622306Y-76577006D01*
X104725018Y-76587499D01*
X104999999Y-76587499D01*
X105500000Y-76587499D01*
X105774980Y-76587499D01*
X105877693Y-76577006D01*
X106044122Y-76521857D01*
X106193343Y-76429817D01*
X106317320Y-76305840D01*
X106396291Y-76177806D01*
X106426695Y-76155850D01*
X106463719Y-76161824D01*
X106484508Y-76188114D01*
X106490640Y-76206618D01*
X106490642Y-76206622D01*
X106582682Y-76355843D01*
X106706656Y-76479817D01*
X106855877Y-76571857D01*
X107022306Y-76627006D01*
X107125018Y-76637499D01*
X107399999Y-76637499D01*
X107900000Y-76637499D01*
X108174980Y-76637499D01*
X108277693Y-76627006D01*
X108444122Y-76571857D01*
X108593343Y-76479817D01*
X108717317Y-76355843D01*
X108809357Y-76206622D01*
X108864506Y-76040193D01*
X108875000Y-75937481D01*
X108875000Y-75800000D01*
X107900000Y-75800000D01*
X107900000Y-76637499D01*
X107399999Y-76637499D01*
X107400000Y-76637498D01*
X107400000Y-75800000D01*
X106431000Y-75800000D01*
X106396352Y-75785648D01*
X106382000Y-75751000D01*
X106382000Y-75750000D01*
X105500000Y-75750000D01*
X105500000Y-76587499D01*
X104999999Y-76587499D01*
X105000000Y-76587498D01*
X105000000Y-75750000D01*
X104025001Y-75750000D01*
X104025001Y-75887480D01*
X102638000Y-75887480D01*
X102638000Y-75112518D01*
X104025000Y-75112518D01*
X104025000Y-75250000D01*
X105000000Y-75250000D01*
X105500000Y-75250000D01*
X106469000Y-75250000D01*
X106503648Y-75264352D01*
X106518000Y-75299000D01*
X106518000Y-75300000D01*
X107400000Y-75300000D01*
X107900000Y-75300000D01*
X108874999Y-75300000D01*
X108874999Y-75162519D01*
X108864506Y-75059806D01*
X108809357Y-74893377D01*
X108717317Y-74744156D01*
X108593343Y-74620182D01*
X108444122Y-74528142D01*
X108277693Y-74472993D01*
X108174981Y-74462500D01*
X107900000Y-74462500D01*
X107900000Y-75300000D01*
X107400000Y-75300000D01*
X107400000Y-74462500D01*
X107125019Y-74462500D01*
X107022306Y-74472993D01*
X106855877Y-74528142D01*
X106706656Y-74620182D01*
X106582682Y-74744156D01*
X106503707Y-74872194D01*
X106473302Y-74894149D01*
X106436278Y-74888175D01*
X106415489Y-74861882D01*
X106409358Y-74843379D01*
X106409357Y-74843377D01*
X106317317Y-74694156D01*
X106193343Y-74570182D01*
X106044122Y-74478142D01*
X105877693Y-74422993D01*
X105774981Y-74412500D01*
X105500000Y-74412500D01*
X105500000Y-75250000D01*
X105000000Y-75250000D01*
X105000000Y-74412500D01*
X104725019Y-74412500D01*
X104622306Y-74422993D01*
X104455877Y-74478142D01*
X104306656Y-74570182D01*
X104182682Y-74694156D01*
X104090642Y-74843377D01*
X104035493Y-75009806D01*
X104025000Y-75112518D01*
X102638000Y-75112518D01*
X102638000Y-73746645D01*
X102652352Y-73711997D01*
X102682429Y-73697858D01*
X102684699Y-73697646D01*
X102812882Y-73652793D01*
X102821347Y-73646546D01*
X102922150Y-73572150D01*
X103002791Y-73462885D01*
X103002791Y-73462884D01*
X103002793Y-73462882D01*
X103047646Y-73334699D01*
X103050500Y-73304266D01*
X103050500Y-73299980D01*
X104150001Y-73299980D01*
X104160493Y-73402693D01*
X104215642Y-73569122D01*
X104307682Y-73718343D01*
X104431656Y-73842317D01*
X104580877Y-73934357D01*
X104747306Y-73989506D01*
X104850018Y-73999999D01*
X105062499Y-73999999D01*
X105562500Y-73999999D01*
X105774980Y-73999999D01*
X105877693Y-73989506D01*
X106044122Y-73934357D01*
X106193343Y-73842317D01*
X106317317Y-73718343D01*
X106409357Y-73569122D01*
X106464506Y-73402693D01*
X106475000Y-73299981D01*
X106475000Y-72850000D01*
X105562500Y-72850000D01*
X105562500Y-73999999D01*
X105062499Y-73999999D01*
X105062500Y-73999998D01*
X105062500Y-72850000D01*
X104150001Y-72850000D01*
X104150001Y-73299980D01*
X103050500Y-73299980D01*
X103050500Y-71900018D01*
X104150000Y-71900018D01*
X104150000Y-72350000D01*
X105062500Y-72350000D01*
X105562500Y-72350000D01*
X106474999Y-72350000D01*
X106474999Y-71900019D01*
X106464506Y-71797306D01*
X106409357Y-71630877D01*
X106317317Y-71481656D01*
X106193343Y-71357682D01*
X106044122Y-71265642D01*
X105877693Y-71210493D01*
X105774981Y-71200000D01*
X105562500Y-71200000D01*
X105562500Y-72350000D01*
X105062500Y-72350000D01*
X105062500Y-71200000D01*
X105028957Y-71200000D01*
X104994309Y-71185648D01*
X104979957Y-71151000D01*
X104994309Y-71116352D01*
X105117317Y-70993343D01*
X105209357Y-70844122D01*
X105264506Y-70677693D01*
X105275000Y-70574981D01*
X105275000Y-70300000D01*
X104437500Y-70300000D01*
X104437500Y-71274999D01*
X104442591Y-71280090D01*
X104456943Y-71314738D01*
X104442591Y-71349386D01*
X104433669Y-71356441D01*
X104431659Y-71357680D01*
X104431654Y-71357684D01*
X104307682Y-71481656D01*
X104215642Y-71630877D01*
X104160493Y-71797306D01*
X104150000Y-71900018D01*
X103050500Y-71900018D01*
X103050500Y-71895734D01*
X103047646Y-71865301D01*
X103045962Y-71860489D01*
X103002795Y-71737123D01*
X103002791Y-71737114D01*
X102922151Y-71627850D01*
X102907902Y-71617334D01*
X102888547Y-71585211D01*
X102888000Y-71577909D01*
X102888000Y-70645590D01*
X102890750Y-70629405D01*
X102897646Y-70609699D01*
X102900500Y-70579266D01*
X102900500Y-70574980D01*
X103100001Y-70574980D01*
X103110493Y-70677693D01*
X103165642Y-70844122D01*
X103257682Y-70993343D01*
X103381656Y-71117317D01*
X103530877Y-71209357D01*
X103697306Y-71264506D01*
X103800018Y-71274999D01*
X103937499Y-71274999D01*
X103937500Y-71274998D01*
X103937500Y-70300000D01*
X103100001Y-70300000D01*
X103100001Y-70574980D01*
X102900500Y-70574980D01*
X102900500Y-69525018D01*
X103100000Y-69525018D01*
X103100000Y-69800000D01*
X103937500Y-69800000D01*
X104437500Y-69800000D01*
X105274999Y-69800000D01*
X105274999Y-69525019D01*
X105264506Y-69422306D01*
X105209357Y-69255877D01*
X105117317Y-69106656D01*
X105045309Y-69034648D01*
X105030957Y-69000000D01*
X105045309Y-68965352D01*
X105117317Y-68893343D01*
X105209357Y-68744122D01*
X105264506Y-68577693D01*
X105275000Y-68474981D01*
X105275000Y-68200000D01*
X104437500Y-68200000D01*
X104437500Y-69800000D01*
X103937500Y-69800000D01*
X103937500Y-68200000D01*
X103100001Y-68200000D01*
X103100001Y-68474980D01*
X103110493Y-68577693D01*
X103165642Y-68744122D01*
X103257682Y-68893343D01*
X103329691Y-68965352D01*
X103344043Y-69000000D01*
X103329691Y-69034648D01*
X103257682Y-69106656D01*
X103165642Y-69255877D01*
X103110493Y-69422306D01*
X103100000Y-69525018D01*
X102900500Y-69525018D01*
X102900500Y-69520734D01*
X102897646Y-69490301D01*
X102886882Y-69459540D01*
X102852795Y-69362123D01*
X102852791Y-69362114D01*
X102822575Y-69321173D01*
X102813000Y-69292076D01*
X102813000Y-68707922D01*
X102822574Y-68678826D01*
X102852793Y-68637882D01*
X102897646Y-68509699D01*
X102900500Y-68479266D01*
X102900500Y-67425018D01*
X103100000Y-67425018D01*
X103100000Y-67700000D01*
X103937500Y-67700000D01*
X103937500Y-66943000D01*
X104437500Y-66943000D01*
X104437500Y-67700000D01*
X105274999Y-67700000D01*
X105274999Y-67425019D01*
X105264506Y-67322306D01*
X105209357Y-67155877D01*
X105117317Y-67006656D01*
X105056969Y-66946308D01*
X105042617Y-66911660D01*
X105056969Y-66877012D01*
X105076204Y-66865147D01*
X105169122Y-66834357D01*
X105318343Y-66742317D01*
X105442317Y-66618343D01*
X105534357Y-66469122D01*
X105589506Y-66302693D01*
X105600000Y-66199981D01*
X105600000Y-66050000D01*
X104650000Y-66050000D01*
X104650000Y-66894000D01*
X104635648Y-66928648D01*
X104601000Y-66943000D01*
X104437500Y-66943000D01*
X103937500Y-66943000D01*
X103937500Y-66731000D01*
X103951852Y-66696352D01*
X103986500Y-66682000D01*
X104150000Y-66682000D01*
X104150000Y-66050000D01*
X103200001Y-66050000D01*
X103200001Y-66199980D01*
X103210493Y-66302693D01*
X103265642Y-66469122D01*
X103357682Y-66618343D01*
X103481654Y-66742315D01*
X103482667Y-66743116D01*
X103482934Y-66743595D01*
X103483674Y-66744335D01*
X103483464Y-66744544D01*
X103500944Y-66775864D01*
X103490711Y-66811944D01*
X103477999Y-66823257D01*
X103381656Y-66882682D01*
X103257682Y-67006656D01*
X103165642Y-67155877D01*
X103110493Y-67322306D01*
X103100000Y-67425018D01*
X102900500Y-67425018D01*
X102900500Y-67420734D01*
X102897646Y-67390301D01*
X102894693Y-67381863D01*
X102852795Y-67262123D01*
X102852791Y-67262114D01*
X102822575Y-67221173D01*
X102813000Y-67192076D01*
X102813000Y-66467362D01*
X102822575Y-66438264D01*
X102823926Y-66436432D01*
X102823930Y-66436430D01*
X102903455Y-66328679D01*
X102947686Y-66202274D01*
X102950500Y-66172264D01*
X102950500Y-65577736D01*
X102947686Y-65547726D01*
X102903455Y-65421321D01*
X102903453Y-65421318D01*
X102887733Y-65400018D01*
X103200000Y-65400018D01*
X103200000Y-65550000D01*
X104150000Y-65550000D01*
X104650000Y-65550000D01*
X105599999Y-65550000D01*
X105599999Y-65400019D01*
X105589506Y-65297306D01*
X105534357Y-65130877D01*
X105442317Y-64981656D01*
X105318343Y-64857682D01*
X105169122Y-64765642D01*
X105002693Y-64710493D01*
X104899981Y-64700000D01*
X104650000Y-64700000D01*
X104650000Y-65550000D01*
X104150000Y-65550000D01*
X104150000Y-64700000D01*
X103900019Y-64700000D01*
X103797306Y-64710493D01*
X103630877Y-64765642D01*
X103481656Y-64857682D01*
X103357682Y-64981656D01*
X103265642Y-65130877D01*
X103210493Y-65297306D01*
X103200000Y-65400018D01*
X102887733Y-65400018D01*
X102823930Y-65313569D01*
X102716181Y-65234046D01*
X102716179Y-65234045D01*
X102678238Y-65220768D01*
X102589776Y-65189814D01*
X102589768Y-65189813D01*
X102559776Y-65187001D01*
X102559773Y-65187000D01*
X102559764Y-65187000D01*
X102559754Y-65187000D01*
X102186659Y-65187000D01*
X102177099Y-65186058D01*
X102118997Y-65174500D01*
X102118994Y-65174500D01*
X101981006Y-65174500D01*
X101981002Y-65174500D01*
X101922901Y-65186058D01*
X101913341Y-65187000D01*
X101540236Y-65187000D01*
X101540227Y-65187000D01*
X101540223Y-65187001D01*
X101510231Y-65189813D01*
X101510223Y-65189814D01*
X101383818Y-65234046D01*
X101276069Y-65313569D01*
X101196546Y-65421318D01*
X101152314Y-65547723D01*
X101152313Y-65547731D01*
X101149501Y-65577723D01*
X101149500Y-65577745D01*
X101149500Y-66172254D01*
X101149501Y-66172276D01*
X101152313Y-66202268D01*
X101152314Y-66202276D01*
X101196546Y-66328681D01*
X101276069Y-66436430D01*
X101320365Y-66469122D01*
X101383821Y-66515955D01*
X101383823Y-66515955D01*
X101385891Y-66517049D01*
X101409821Y-66545925D01*
X101412000Y-66560373D01*
X101412000Y-67192076D01*
X101402426Y-67221171D01*
X101396207Y-67229597D01*
X101364087Y-67248953D01*
X101356783Y-67249500D01*
X100641826Y-67249500D01*
X100607178Y-67235148D01*
X100601084Y-67227723D01*
X100594552Y-67217947D01*
X100540238Y-67181656D01*
X100528231Y-67173633D01*
X100469748Y-67162000D01*
X100469745Y-67162000D01*
X97537472Y-67162000D01*
X97518721Y-67158270D01*
X97469019Y-67137683D01*
X97441831Y-67126421D01*
X97441829Y-67126420D01*
X97441828Y-67126420D01*
X97441826Y-67126419D01*
X97441817Y-67126417D01*
X97306497Y-67099500D01*
X97306494Y-67099500D01*
X97306493Y-67099500D01*
X94044380Y-67099500D01*
X94009732Y-67085148D01*
X93998130Y-67066683D01*
X93952795Y-66937123D01*
X93952791Y-66937114D01*
X93872150Y-66827849D01*
X93762885Y-66747208D01*
X93762876Y-66747204D01*
X93634698Y-66702353D01*
X93604275Y-66699500D01*
X93604266Y-66699500D01*
X92795734Y-66699500D01*
X92795724Y-66699500D01*
X92765301Y-66702353D01*
X92765300Y-66702353D01*
X92637123Y-66747204D01*
X92637114Y-66747208D01*
X92527849Y-66827849D01*
X92447208Y-66937114D01*
X92447204Y-66937123D01*
X92402353Y-67065300D01*
X92402353Y-67065301D01*
X92399500Y-67095724D01*
X92399500Y-68104275D01*
X92402353Y-68134698D01*
X92402353Y-68134699D01*
X92447204Y-68262876D01*
X92447208Y-68262885D01*
X92527849Y-68372150D01*
X92633602Y-68450199D01*
X92652958Y-68482321D01*
X92643930Y-68518721D01*
X92619918Y-68536137D01*
X92530877Y-68565642D01*
X92381656Y-68657682D01*
X92257682Y-68781656D01*
X92165642Y-68930877D01*
X92110493Y-69097306D01*
X92100000Y-69200018D01*
X92000500Y-69200018D01*
X92000500Y-69195734D01*
X91997646Y-69165301D01*
X91992770Y-69151367D01*
X91952795Y-69037123D01*
X91952791Y-69037114D01*
X91872150Y-68927849D01*
X91762885Y-68847208D01*
X91762876Y-68847204D01*
X91634698Y-68802353D01*
X91604275Y-68799500D01*
X91604266Y-68799500D01*
X91549500Y-68799500D01*
X91514852Y-68785148D01*
X91500500Y-68750500D01*
X91500500Y-68549500D01*
X91514852Y-68514852D01*
X91549500Y-68500500D01*
X91604256Y-68500500D01*
X91604266Y-68500500D01*
X91634699Y-68497646D01*
X91762882Y-68452793D01*
X91798354Y-68426614D01*
X91872150Y-68372150D01*
X91952791Y-68262885D01*
X91952791Y-68262884D01*
X91952793Y-68262882D01*
X91997646Y-68134699D01*
X92000500Y-68104266D01*
X92000500Y-67095734D01*
X91997646Y-67065301D01*
X91993269Y-67052793D01*
X91952795Y-66937123D01*
X91952791Y-66937114D01*
X91872150Y-66827849D01*
X91762885Y-66747208D01*
X91762876Y-66747204D01*
X91634698Y-66702353D01*
X91604275Y-66699500D01*
X91604266Y-66699500D01*
X90795734Y-66699500D01*
X90795724Y-66699500D01*
X90765301Y-66702353D01*
X90765300Y-66702353D01*
X90637123Y-66747204D01*
X90637114Y-66747208D01*
X90527849Y-66827849D01*
X90447208Y-66937114D01*
X90447204Y-66937123D01*
X90402353Y-67065300D01*
X90402353Y-67065301D01*
X90399500Y-67095724D01*
X90399500Y-68104275D01*
X90402353Y-68134698D01*
X90402353Y-68134699D01*
X90447204Y-68262876D01*
X90447208Y-68262885D01*
X90527849Y-68372150D01*
X90637114Y-68452791D01*
X90637117Y-68452792D01*
X90637118Y-68452793D01*
X90637120Y-68452793D01*
X90637123Y-68452795D01*
X90712799Y-68479275D01*
X90765301Y-68497646D01*
X90795734Y-68500500D01*
X90850500Y-68500500D01*
X90885148Y-68514852D01*
X90899500Y-68549500D01*
X90899500Y-68750500D01*
X90885148Y-68785148D01*
X90850500Y-68799500D01*
X90795724Y-68799500D01*
X90765301Y-68802353D01*
X90765300Y-68802353D01*
X90637123Y-68847204D01*
X90637114Y-68847208D01*
X90527849Y-68927849D01*
X90447208Y-69037114D01*
X90447204Y-69037123D01*
X90402353Y-69165300D01*
X90402353Y-69165301D01*
X90399500Y-69195724D01*
X90399500Y-69350500D01*
X90385148Y-69385148D01*
X90350500Y-69399500D01*
X90060436Y-69399500D01*
X89984010Y-69419979D01*
X89984008Y-69419979D01*
X89915488Y-69459540D01*
X89915488Y-69459541D01*
X89290259Y-70084770D01*
X89255611Y-70099122D01*
X88750816Y-70099122D01*
X88739470Y-70096864D01*
X88739365Y-70097397D01*
X88734631Y-70096455D01*
X88676148Y-70084822D01*
X87823852Y-70084822D01*
X87765369Y-70096455D01*
X87699047Y-70140769D01*
X87659484Y-70199980D01*
X87654733Y-70207091D01*
X87643100Y-70265574D01*
X87155100Y-70265574D01*
X87143467Y-70207091D01*
X87116901Y-70167334D01*
X87099152Y-70140769D01*
X87058186Y-70113397D01*
X87032831Y-70096455D01*
X86974348Y-70084822D01*
X86974345Y-70084822D01*
X86897700Y-70084822D01*
X86863052Y-70070470D01*
X86848700Y-70035822D01*
X86848700Y-68987995D01*
X86863052Y-68953347D01*
X86868588Y-68948581D01*
X86972150Y-68872150D01*
X86972150Y-68872148D01*
X86972152Y-68872148D01*
X87052791Y-68762885D01*
X87052791Y-68762884D01*
X87052793Y-68762882D01*
X87097646Y-68634699D01*
X87100500Y-68604266D01*
X87100500Y-68599980D01*
X87200001Y-68599980D01*
X87210493Y-68702693D01*
X87265642Y-68869122D01*
X87357682Y-69018343D01*
X87481656Y-69142317D01*
X87630877Y-69234357D01*
X87797306Y-69289506D01*
X87900018Y-69299999D01*
X88049999Y-69299999D01*
X88550000Y-69299999D01*
X88699980Y-69299999D01*
X88802693Y-69289506D01*
X88969122Y-69234357D01*
X89118343Y-69142317D01*
X89242317Y-69018343D01*
X89334357Y-68869122D01*
X89389506Y-68702693D01*
X89400000Y-68599981D01*
X89400000Y-68350000D01*
X88550000Y-68350000D01*
X88550000Y-69299999D01*
X88049999Y-69299999D01*
X88050000Y-69299998D01*
X88050000Y-68350000D01*
X87200001Y-68350000D01*
X87200001Y-68599980D01*
X87100500Y-68599980D01*
X87100500Y-67600018D01*
X87200000Y-67600018D01*
X87200000Y-67850000D01*
X88050000Y-67850000D01*
X88550000Y-67850000D01*
X89399999Y-67850000D01*
X89399999Y-67600019D01*
X89389506Y-67497306D01*
X89334357Y-67330877D01*
X89242317Y-67181656D01*
X89118343Y-67057682D01*
X88969122Y-66965642D01*
X88802693Y-66910493D01*
X88699981Y-66900000D01*
X88550000Y-66900000D01*
X88550000Y-67850000D01*
X88050000Y-67850000D01*
X88050000Y-66900000D01*
X87900019Y-66900000D01*
X87797306Y-66910493D01*
X87630877Y-66965642D01*
X87481656Y-67057682D01*
X87357682Y-67181656D01*
X87265642Y-67330877D01*
X87210493Y-67497306D01*
X87200000Y-67600018D01*
X87100500Y-67600018D01*
X87100500Y-67595734D01*
X87097646Y-67565301D01*
X87084541Y-67527850D01*
X87052795Y-67437123D01*
X87052791Y-67437114D01*
X86972150Y-67327849D01*
X86862885Y-67247208D01*
X86862876Y-67247204D01*
X86734698Y-67202353D01*
X86704275Y-67199500D01*
X86704266Y-67199500D01*
X85895734Y-67199500D01*
X85895724Y-67199500D01*
X85865301Y-67202353D01*
X85865300Y-67202353D01*
X85737123Y-67247204D01*
X85737114Y-67247208D01*
X85627849Y-67327849D01*
X85547208Y-67437114D01*
X85547204Y-67437123D01*
X85502353Y-67565300D01*
X85502353Y-67565301D01*
X85499500Y-67595724D01*
X85499500Y-68604275D01*
X85502353Y-68634698D01*
X85502353Y-68634699D01*
X85547204Y-68762876D01*
X85547208Y-68762885D01*
X85627849Y-68872150D01*
X85737114Y-68952791D01*
X85737117Y-68952792D01*
X85737118Y-68952793D01*
X85737120Y-68952793D01*
X85737123Y-68952795D01*
X85837720Y-68987995D01*
X85865301Y-68997646D01*
X85895734Y-69000500D01*
X86198700Y-69000500D01*
X86233348Y-69014852D01*
X86247700Y-69049500D01*
X86247700Y-70035822D01*
X86233348Y-70070470D01*
X86198700Y-70084822D01*
X86122052Y-70084822D01*
X86063569Y-70096455D01*
X85997247Y-70140769D01*
X85957684Y-70199980D01*
X85952933Y-70207091D01*
X85941300Y-70265574D01*
X85941300Y-70265577D01*
X85941300Y-70405131D01*
X85926948Y-70439779D01*
X85892300Y-70454131D01*
X85874710Y-70450865D01*
X85068458Y-70140769D01*
X84732103Y-70011402D01*
X84732099Y-70011401D01*
X84732097Y-70011400D01*
X84696530Y-70001286D01*
X84696515Y-70001283D01*
X84679261Y-69998020D01*
X84679256Y-69998019D01*
X84661392Y-69996284D01*
X84628294Y-69978650D01*
X84617360Y-69942776D01*
X84634994Y-69909678D01*
X84640407Y-69905809D01*
X84743340Y-69842320D01*
X84867317Y-69718343D01*
X84959357Y-69569122D01*
X85014506Y-69402693D01*
X85025000Y-69299981D01*
X85025000Y-69162500D01*
X82575001Y-69162500D01*
X82575001Y-69299980D01*
X82585493Y-69402693D01*
X82640642Y-69569122D01*
X82732682Y-69718343D01*
X82856656Y-69842317D01*
X82937403Y-69892122D01*
X82959358Y-69922527D01*
X82953384Y-69959551D01*
X82922979Y-69981506D01*
X82911350Y-69982826D01*
X81725098Y-69974865D01*
X81706676Y-69971136D01*
X81680142Y-69960145D01*
X81680132Y-69960142D01*
X81648418Y-69953834D01*
X81601492Y-69944500D01*
X77250195Y-69944500D01*
X77250171Y-69944500D01*
X77247854Y-69944513D01*
X77247779Y-69944513D01*
X77247757Y-69944514D01*
X77246818Y-69944525D01*
X77246574Y-69944528D01*
X77165824Y-69962105D01*
X77131537Y-69977284D01*
X77131530Y-69977288D01*
X77074136Y-70015309D01*
X77023025Y-70091149D01*
X77022175Y-70093351D01*
X77019946Y-70099122D01*
X77019946Y-70099123D01*
X77010383Y-70123879D01*
X77009513Y-70126129D01*
X77009513Y-70126131D01*
X77009513Y-70126132D01*
X76995769Y-70205129D01*
X73806787Y-70205129D01*
X73770775Y-70118189D01*
X73694114Y-70003457D01*
X71296543Y-67605886D01*
X71287762Y-67600019D01*
X71235801Y-67565300D01*
X71181811Y-67529225D01*
X71181808Y-67529223D01*
X71181807Y-67529223D01*
X71054329Y-67476420D01*
X71054320Y-67476418D01*
X70918997Y-67449500D01*
X70918994Y-67449500D01*
X70918993Y-67449500D01*
X69697603Y-67449500D01*
X69662955Y-67435148D01*
X69657470Y-67428613D01*
X69584282Y-67324089D01*
X69425911Y-67165718D01*
X69425910Y-67165717D01*
X69425905Y-67165713D01*
X69242455Y-67037258D01*
X69242443Y-67037251D01*
X69088874Y-66965642D01*
X69039458Y-66942599D01*
X69039455Y-66942598D01*
X69039450Y-66942596D01*
X68823127Y-66884632D01*
X68823121Y-66884631D01*
X68600000Y-66865111D01*
X68376878Y-66884631D01*
X68376872Y-66884632D01*
X68160549Y-66942596D01*
X68160544Y-66942598D01*
X67957557Y-67037251D01*
X67957545Y-67037258D01*
X67774094Y-67165713D01*
X67774087Y-67165719D01*
X67615719Y-67324087D01*
X67615713Y-67324094D01*
X67487258Y-67507545D01*
X67487251Y-67507557D01*
X67392598Y-67710544D01*
X67392596Y-67710549D01*
X67334632Y-67926872D01*
X67334631Y-67926878D01*
X67315111Y-68150000D01*
X55150500Y-68150000D01*
X55150500Y-63399999D01*
X67315111Y-63399999D01*
X67334631Y-63623120D01*
X67334632Y-63623126D01*
X67392596Y-63839449D01*
X67392598Y-63839454D01*
X67487251Y-64042442D01*
X67487258Y-64042454D01*
X67615713Y-64225904D01*
X67615719Y-64225911D01*
X67774087Y-64384279D01*
X67774094Y-64384285D01*
X67957544Y-64512740D01*
X67957556Y-64512747D01*
X68031437Y-64547198D01*
X68160542Y-64607400D01*
X68160548Y-64607401D01*
X68160549Y-64607402D01*
X68376872Y-64665366D01*
X68376876Y-64665366D01*
X68376881Y-64665368D01*
X68600000Y-64684888D01*
X68823119Y-64665368D01*
X68823125Y-64665366D01*
X68823127Y-64665366D01*
X68931288Y-64636384D01*
X69039458Y-64607400D01*
X69242445Y-64512746D01*
X69242446Y-64512745D01*
X69242455Y-64512740D01*
X69425905Y-64384285D01*
X69425911Y-64384281D01*
X69584282Y-64225910D01*
X69657466Y-64121392D01*
X69689094Y-64101243D01*
X69697603Y-64100499D01*
X72118995Y-64100499D01*
X72254329Y-64073579D01*
X72381812Y-64020774D01*
X72496544Y-63944113D01*
X73075804Y-63364851D01*
X73110452Y-63350500D01*
X77392030Y-63350500D01*
X77426678Y-63364852D01*
X77440088Y-63389940D01*
X77449932Y-63439429D01*
X77494247Y-63505752D01*
X77538562Y-63535362D01*
X77560569Y-63550067D01*
X77610061Y-63559911D01*
X77641242Y-63580745D01*
X77649500Y-63607969D01*
X77649500Y-67352183D01*
X77635148Y-67386831D01*
X77605073Y-67400969D01*
X77590304Y-67402353D01*
X77590298Y-67402354D01*
X77462123Y-67447204D01*
X77462114Y-67447208D01*
X77352849Y-67527849D01*
X77272208Y-67637114D01*
X77272204Y-67637123D01*
X77227353Y-67765301D01*
X77227353Y-67765302D01*
X77224500Y-67795725D01*
X77224500Y-68829253D01*
X77224502Y-68829277D01*
X77227353Y-68859695D01*
X77227354Y-68859701D01*
X77272204Y-68987876D01*
X77272208Y-68987885D01*
X77352849Y-69097150D01*
X77462114Y-69177791D01*
X77462117Y-69177792D01*
X77462118Y-69177793D01*
X77462120Y-69177793D01*
X77462123Y-69177795D01*
X77590299Y-69222645D01*
X77590302Y-69222646D01*
X77620735Y-69225500D01*
X78979264Y-69225499D01*
X79009698Y-69222646D01*
X79137882Y-69177793D01*
X79158604Y-69162500D01*
X79247150Y-69097150D01*
X79327791Y-68987885D01*
X79327791Y-68987884D01*
X79327793Y-68987882D01*
X79372646Y-68859698D01*
X79375500Y-68829265D01*
X79375500Y-68499980D01*
X79750001Y-68499980D01*
X79760493Y-68602693D01*
X79815642Y-68769122D01*
X79907682Y-68918343D01*
X80031656Y-69042317D01*
X80180877Y-69134357D01*
X80347306Y-69189506D01*
X80450018Y-69199999D01*
X80899999Y-69199999D01*
X80900000Y-69199998D01*
X80900000Y-68287500D01*
X81400000Y-68287500D01*
X81400000Y-69199999D01*
X81849980Y-69199999D01*
X81952693Y-69189506D01*
X82119122Y-69134357D01*
X82268343Y-69042317D01*
X82392317Y-68918343D01*
X82484357Y-68769122D01*
X82508559Y-68696087D01*
X82533081Y-68667712D01*
X82555072Y-68662500D01*
X83550000Y-68662500D01*
X84050000Y-68662500D01*
X85024999Y-68662500D01*
X85024999Y-68525019D01*
X85014506Y-68422306D01*
X84959357Y-68255877D01*
X84867317Y-68106656D01*
X84743343Y-67982682D01*
X84594122Y-67890642D01*
X84427693Y-67835493D01*
X84324981Y-67825000D01*
X84050000Y-67825000D01*
X84050000Y-68662500D01*
X83550000Y-68662500D01*
X83550000Y-67825000D01*
X83275019Y-67825000D01*
X83172306Y-67835493D01*
X83005877Y-67890642D01*
X82856656Y-67982682D01*
X82732682Y-68106656D01*
X82640642Y-68255877D01*
X82640639Y-68255883D01*
X82635198Y-68272304D01*
X82610676Y-68300679D01*
X82573272Y-68303402D01*
X82554038Y-68291538D01*
X82550000Y-68287500D01*
X81400000Y-68287500D01*
X80900000Y-68287500D01*
X79750001Y-68287500D01*
X79750001Y-68499980D01*
X79375500Y-68499980D01*
X79375499Y-67795736D01*
X79372646Y-67765302D01*
X79353487Y-67710549D01*
X79327795Y-67637123D01*
X79327791Y-67637114D01*
X79281962Y-67575018D01*
X79750000Y-67575018D01*
X79750000Y-67787500D01*
X80900000Y-67787500D01*
X81400000Y-67787500D01*
X82549999Y-67787500D01*
X82549999Y-67575019D01*
X82539506Y-67472306D01*
X82484357Y-67305877D01*
X82392317Y-67156656D01*
X82268343Y-67032682D01*
X82119122Y-66940642D01*
X81952693Y-66885493D01*
X81849981Y-66875000D01*
X81400000Y-66875000D01*
X81400000Y-67787500D01*
X80900000Y-67787500D01*
X80900000Y-66875000D01*
X80450019Y-66875000D01*
X80347306Y-66885493D01*
X80180877Y-66940642D01*
X80031656Y-67032682D01*
X79907682Y-67156656D01*
X79815642Y-67305877D01*
X79760493Y-67472306D01*
X79750000Y-67575018D01*
X79281962Y-67575018D01*
X79247150Y-67527849D01*
X79137885Y-67447208D01*
X79137876Y-67447204D01*
X79083317Y-67428113D01*
X79055353Y-67403123D01*
X79050500Y-67381863D01*
X79050500Y-63702745D01*
X101149500Y-63702745D01*
X101149500Y-64297254D01*
X101149501Y-64297276D01*
X101152313Y-64327268D01*
X101152314Y-64327276D01*
X101196546Y-64453681D01*
X101276069Y-64561430D01*
X101383818Y-64640953D01*
X101383821Y-64640955D01*
X101503935Y-64682984D01*
X101509371Y-64684887D01*
X101510226Y-64685186D01*
X101540236Y-64688000D01*
X101540246Y-64688000D01*
X102559754Y-64688000D01*
X102559764Y-64688000D01*
X102589774Y-64685186D01*
X102716179Y-64640955D01*
X102823930Y-64561430D01*
X102891112Y-64470403D01*
X102923234Y-64451047D01*
X102930537Y-64450500D01*
X103587135Y-64450500D01*
X103621783Y-64464852D01*
X103626558Y-64470400D01*
X103627847Y-64472147D01*
X103627855Y-64472154D01*
X103737114Y-64552791D01*
X103737117Y-64552792D01*
X103737118Y-64552793D01*
X103737120Y-64552793D01*
X103737123Y-64552795D01*
X103761801Y-64561430D01*
X103865301Y-64597646D01*
X103895734Y-64600500D01*
X103895744Y-64600500D01*
X104904256Y-64600500D01*
X104904266Y-64600500D01*
X104934699Y-64597646D01*
X105062882Y-64552793D01*
X105172150Y-64472150D01*
X105237000Y-64384281D01*
X105252791Y-64362885D01*
X105252791Y-64362884D01*
X105252793Y-64362882D01*
X105297646Y-64234699D01*
X105300500Y-64204266D01*
X105300500Y-63395734D01*
X105297646Y-63365301D01*
X105295457Y-63359046D01*
X105252795Y-63237123D01*
X105252791Y-63237114D01*
X105172150Y-63127849D01*
X105062885Y-63047208D01*
X105062876Y-63047204D01*
X104934698Y-63002353D01*
X104904275Y-62999500D01*
X104904266Y-62999500D01*
X103895734Y-62999500D01*
X103895724Y-62999500D01*
X103865301Y-63002353D01*
X103865300Y-63002353D01*
X103737123Y-63047204D01*
X103737114Y-63047208D01*
X103627849Y-63127849D01*
X103547208Y-63237114D01*
X103547204Y-63237123D01*
X103502353Y-63365300D01*
X103502353Y-63365301D01*
X103499500Y-63395724D01*
X103499500Y-63500500D01*
X103485148Y-63535148D01*
X103450500Y-63549500D01*
X102930537Y-63549500D01*
X102895889Y-63535148D01*
X102891112Y-63529597D01*
X102823930Y-63438569D01*
X102716181Y-63359046D01*
X102716179Y-63359045D01*
X102678238Y-63345768D01*
X102589776Y-63314814D01*
X102589768Y-63314813D01*
X102559776Y-63312001D01*
X102559773Y-63312000D01*
X102559764Y-63312000D01*
X101540236Y-63312000D01*
X101540227Y-63312000D01*
X101540223Y-63312001D01*
X101510231Y-63314813D01*
X101510223Y-63314814D01*
X101383818Y-63359046D01*
X101276069Y-63438569D01*
X101196546Y-63546318D01*
X101152314Y-63672723D01*
X101152313Y-63672731D01*
X101149501Y-63702723D01*
X101149500Y-63702745D01*
X79050500Y-63702745D01*
X79050500Y-63607969D01*
X79064852Y-63573321D01*
X79089937Y-63559911D01*
X79139431Y-63550067D01*
X79205752Y-63505752D01*
X79250067Y-63439431D01*
X79261700Y-63380948D01*
X79261700Y-61919052D01*
X79250067Y-61860569D01*
X79223501Y-61820812D01*
X79205752Y-61794247D01*
X79165995Y-61767682D01*
X79139431Y-61749933D01*
X79080948Y-61738300D01*
X77619052Y-61738300D01*
X77560569Y-61749933D01*
X77494247Y-61794247D01*
X77449932Y-61860570D01*
X77440088Y-61910060D01*
X77419253Y-61941242D01*
X77392030Y-61949500D01*
X73119795Y-61949500D01*
X73101044Y-61945770D01*
X73054335Y-61926422D01*
X73054317Y-61926417D01*
X72918997Y-61899500D01*
X72918994Y-61899500D01*
X72781006Y-61899500D01*
X72668124Y-61921953D01*
X72668123Y-61921953D01*
X72645679Y-61926417D01*
X72645674Y-61926418D01*
X72607334Y-61942300D01*
X72518190Y-61979224D01*
X72403457Y-62055885D01*
X71774196Y-62685147D01*
X71739548Y-62699499D01*
X69697603Y-62699499D01*
X69662955Y-62685147D01*
X69657470Y-62678612D01*
X69584282Y-62574088D01*
X69425911Y-62415717D01*
X69425910Y-62415716D01*
X69425905Y-62415712D01*
X69242455Y-62287257D01*
X69242443Y-62287250D01*
X69088141Y-62215299D01*
X69039458Y-62192598D01*
X69039455Y-62192597D01*
X69039450Y-62192595D01*
X68823127Y-62134631D01*
X68823121Y-62134630D01*
X68600000Y-62115110D01*
X68376878Y-62134630D01*
X68376872Y-62134631D01*
X68160549Y-62192595D01*
X68160544Y-62192597D01*
X67957557Y-62287250D01*
X67957545Y-62287257D01*
X67774094Y-62415712D01*
X67774087Y-62415718D01*
X67615719Y-62574086D01*
X67615713Y-62574093D01*
X67487258Y-62757544D01*
X67487251Y-62757556D01*
X67392598Y-62960543D01*
X67392596Y-62960548D01*
X67334632Y-63176871D01*
X67334631Y-63176877D01*
X67315111Y-63399999D01*
X55150500Y-63399999D01*
X55150500Y-57646200D01*
X77134173Y-57646200D01*
X77152644Y-57857328D01*
X77152645Y-57857334D01*
X77207493Y-58062029D01*
X77207495Y-58062034D01*
X77297061Y-58254112D01*
X77297069Y-58254124D01*
X77334731Y-58307912D01*
X77334733Y-58307912D01*
X77901982Y-57740662D01*
X77923958Y-57822673D01*
X77984149Y-57926927D01*
X78069273Y-58012051D01*
X78173527Y-58072242D01*
X78255535Y-58094216D01*
X77688286Y-58661464D01*
X77688286Y-58661467D01*
X77742075Y-58699131D01*
X77742087Y-58699138D01*
X77934165Y-58788704D01*
X77934170Y-58788706D01*
X78138865Y-58843554D01*
X78138871Y-58843555D01*
X78350000Y-58862026D01*
X78561128Y-58843555D01*
X78561134Y-58843554D01*
X78765829Y-58788706D01*
X78765834Y-58788704D01*
X78957905Y-58699140D01*
X78957921Y-58699131D01*
X79011712Y-58661467D01*
X79011712Y-58661464D01*
X78444463Y-58094216D01*
X78526473Y-58072242D01*
X78630727Y-58012051D01*
X78715851Y-57926927D01*
X78776042Y-57822673D01*
X78798016Y-57740663D01*
X79365264Y-58307912D01*
X79365267Y-58307912D01*
X79402931Y-58254121D01*
X79402940Y-58254105D01*
X79492504Y-58062034D01*
X79492506Y-58062029D01*
X79547354Y-57857334D01*
X79547355Y-57857328D01*
X79565826Y-57646200D01*
X79547355Y-57435071D01*
X79547354Y-57435065D01*
X79492506Y-57230370D01*
X79492505Y-57230365D01*
X79402938Y-57038290D01*
X79402937Y-57038288D01*
X79365265Y-56984486D01*
X78798016Y-57551735D01*
X78776042Y-57469727D01*
X78715851Y-57365473D01*
X78630727Y-57280349D01*
X78526473Y-57220158D01*
X78444462Y-57198182D01*
X79011712Y-56630933D01*
X79011712Y-56630931D01*
X78957924Y-56593269D01*
X78957912Y-56593261D01*
X78765834Y-56503695D01*
X78765829Y-56503693D01*
X78561134Y-56448845D01*
X78561128Y-56448844D01*
X78350000Y-56430373D01*
X78138871Y-56448844D01*
X78138865Y-56448845D01*
X77934170Y-56503693D01*
X77934165Y-56503694D01*
X77742090Y-56593261D01*
X77742082Y-56593265D01*
X77688286Y-56630931D01*
X77688286Y-56630933D01*
X78255536Y-57198183D01*
X78173527Y-57220158D01*
X78069273Y-57280349D01*
X77984149Y-57365473D01*
X77923958Y-57469727D01*
X77901983Y-57551736D01*
X77334733Y-56984486D01*
X77334731Y-56984486D01*
X77297065Y-57038282D01*
X77297061Y-57038290D01*
X77207494Y-57230365D01*
X77207493Y-57230370D01*
X77152645Y-57435065D01*
X77152644Y-57435071D01*
X77134173Y-57646200D01*
X55150500Y-57646200D01*
X55150500Y-54899500D01*
X55164852Y-54864852D01*
X55199500Y-54850500D01*
X121200500Y-54850500D01*
X121235148Y-54864852D01*
G37*
%TD.AperFunction*%
%TD*%
M02*
